Roman_opsz10.ufo
<glyph name="exclam" format="2">
  <advance width="277"/>
  <unicode hex="0021"/>
  <outline>
    <contour>
      <point x="139" y="187" type="curve" smooth="yes"/>
      <point x="149" y="187"/>
      <point x="152" y="192"/>
      <point x="153" y="209" type="curve" smooth="yes"/>
      <point x="165.987" y="360.848"/>
      <point x="178.974" y="512.696"/>
      <point x="192" y="665" type="curve"/>
      <point x="192" y="698"/>
      <point x="165" y="716"/>
      <point x="139" y="716" type="curve" smooth="yes"/>
      <point x="113" y="716"/>
      <point x="86" y="698"/>
      <point x="86" y="665" type="curve"/>
      <point x="98.987" y="513.485"/>
      <point x="111.974" y="361.96999999999997"/>
      <point x="125" y="210" type="curve" smooth="yes"/>
      <point x="126" y="195"/>
      <point x="127" y="187"/>
    </contour>
    <contour>
      <point x="139" y="0" type="curve" smooth="yes"/>
      <point x="168" y="0"/>
      <point x="192" y="24"/>
      <point x="192" y="53" type="curve" smooth="yes"/>
      <point x="192" y="82"/>
      <point x="168" y="106"/>
      <point x="139" y="106" type="curve" smooth="yes"/>
      <point x="110" y="106"/>
      <point x="86" y="82"/>
      <point x="86" y="53" type="curve" smooth="yes"/>
      <point x="86" y="24"/>
      <point x="110" y="0"/>
    </contour>
  </outline>
</glyph>
<glyph name="numbersign" format="2">
  <advance width="833"/>
  <unicode hex="0023"/>
  <outline>
    <contour>
      <point x="187" y="-194" type="curve" smooth="yes"/>
      <point x="203" y="-194"/>
      <point x="206" y="-181"/>
      <point x="209" y="-170" type="curve" smooth="yes"/>
      <point x="290" y="133" type="line"/>
      <point x="478" y="133" type="line"/>
      <point x="452.026" y="36.76299999999999"/>
      <point x="426.052" y="-59.47400000000002"/>
      <point x="400" y="-156" type="curve"/>
      <point x="399" y="-158"/>
      <point x="396" y="-170"/>
      <point x="396" y="-174" type="curve" smooth="yes"/>
      <point x="396" y="-185"/>
      <point x="405" y="-194"/>
      <point x="416" y="-194" type="curve" smooth="yes"/>
      <point x="432" y="-194"/>
      <point x="435" y="-181"/>
      <point x="438" y="-170" type="curve" smooth="yes"/>
      <point x="519" y="133" type="line"/>
      <point x="743" y="133" type="line" smooth="yes"/>
      <point x="757" y="133"/>
      <point x="776" y="133"/>
      <point x="776" y="153" type="curve" smooth="yes"/>
      <point x="776" y="173"/>
      <point x="757" y="173"/>
      <point x="742" y="173" type="curve" smooth="yes"/>
      <point x="531" y="173" type="line"/>
      <point x="571" y="327" type="line"/>
      <point x="742" y="327" type="line" smooth="yes"/>
      <point x="757" y="327"/>
      <point x="776" y="327"/>
      <point x="776" y="347" type="curve" smooth="yes"/>
      <point x="776" y="367"/>
      <point x="757" y="367"/>
      <point x="743" y="367" type="curve" smooth="yes"/>
      <point x="583" y="367" type="line"/>
      <point x="661" y="656" type="line"/>
      <point x="662" y="658"/>
      <point x="665" y="670"/>
      <point x="665" y="674" type="curve" smooth="yes"/>
      <point x="665" y="685"/>
      <point x="656" y="694"/>
      <point x="645" y="694" type="curve" smooth="yes"/>
      <point x="629" y="694"/>
      <point x="626" y="681"/>
      <point x="623" y="670" type="curve" smooth="yes"/>
      <point x="542" y="367" type="line"/>
      <point x="354" y="367" type="line"/>
      <point x="432" y="656" type="line"/>
      <point x="433" y="658"/>
      <point x="436" y="670"/>
      <point x="436" y="674" type="curve" smooth="yes"/>
      <point x="436" y="685"/>
      <point x="427" y="694"/>
      <point x="416" y="694" type="curve" smooth="yes"/>
      <point x="400" y="694"/>
      <point x="397" y="681"/>
      <point x="394" y="670" type="curve" smooth="yes"/>
      <point x="313" y="367" type="line"/>
      <point x="89" y="367" type="line" smooth="yes"/>
      <point x="75" y="367"/>
      <point x="56" y="367"/>
      <point x="56" y="347" type="curve" smooth="yes"/>
      <point x="56" y="327"/>
      <point x="75" y="327"/>
      <point x="90" y="327" type="curve" smooth="yes"/>
      <point x="301" y="327" type="line"/>
      <point x="261" y="173" type="line"/>
      <point x="90" y="173" type="line" smooth="yes"/>
      <point x="75" y="173"/>
      <point x="56" y="173"/>
      <point x="56" y="153" type="curve" smooth="yes"/>
      <point x="56" y="133"/>
      <point x="75" y="133"/>
      <point x="89" y="133" type="curve" smooth="yes"/>
      <point x="249" y="133" type="line"/>
      <point x="223.026" y="36.76299999999999"/>
      <point x="197.052" y="-59.47400000000002"/>
      <point x="171" y="-156" type="curve"/>
      <point x="170" y="-158"/>
      <point x="167" y="-170"/>
      <point x="167" y="-174" type="curve" smooth="yes"/>
      <point x="167" y="-185"/>
      <point x="176" y="-194"/>
    </contour>
    <contour>
      <point x="302" y="173" type="line"/>
      <point x="342" y="327" type="line"/>
      <point x="530" y="327" type="line"/>
      <point x="490" y="173" type="line"/>
    </contour>
  </outline>
</glyph>
<glyph name="dollar" format="2">
  <advance width="500"/>
  <unicode hex="0024"/>
  <outline>
    <contour>
      <point x="234" y="-56" type="line"/>
      <point x="265" y="-56" type="line"/>
      <point x="265" y="-10" type="line"/>
      <point x="370" y="-1"/>
      <point x="443" y="92"/>
      <point x="443" y="195" type="curve" smooth="yes"/>
      <point x="443" y="278"/>
      <point x="398" y="329"/>
      <point x="389" y="338" type="curve" smooth="yes"/>
      <point x="349" y="382"/>
      <point x="313" y="391"/>
      <point x="265" y="403" type="curve"/>
      <point x="265" y="673" type="line"/>
      <point x="350" y="669"/>
      <point x="398" y="625"/>
      <point x="413" y="569" type="curve"/>
      <point x="409" y="570"/>
      <point x="407" y="571"/>
      <point x="397" y="571" type="curve" smooth="yes"/>
      <point x="371" y="571"/>
      <point x="351" y="553"/>
      <point x="351" y="525" type="curve" smooth="yes"/>
      <point x="351" y="494"/>
      <point x="376" y="479"/>
      <point x="397" y="479" type="curve" smooth="yes"/>
      <point x="400" y="479"/>
      <point x="443" y="480"/>
      <point x="443" y="529" type="curve" smooth="yes"/>
      <point x="443" y="626"/>
      <point x="377" y="699"/>
      <point x="265" y="705" type="curve"/>
      <point x="265" y="750" type="line"/>
      <point x="234" y="750" type="line"/>
      <point x="234" y="704" type="line"/>
      <point x="123" y="694"/>
      <point x="56" y="604"/>
      <point x="56" y="513" type="curve" smooth="yes"/>
      <point x="56" y="444"/>
      <point x="93" y="396"/>
      <point x="111" y="379" type="curve" smooth="yes"/>
      <point x="149" y="340"/>
      <point x="183" y="332"/>
      <point x="234" y="319" type="curve"/>
      <point x="234" y="21" type="line"/>
      <point x="146" y="26"/>
      <point x="99" y="77"/>
      <point x="86" y="139" type="curve"/>
      <point x="90" y="138"/>
      <point x="98" y="137"/>
      <point x="102" y="137" type="curve" smooth="yes"/>
      <point x="129" y="137"/>
      <point x="148" y="156"/>
      <point x="148" y="183" type="curve" smooth="yes"/>
      <point x="148" y="211"/>
      <point x="127" y="229"/>
      <point x="102" y="229" type="curve" smooth="yes"/>
      <point x="96" y="229"/>
      <point x="56" y="227"/>
      <point x="56" y="178" type="curve" smooth="yes"/>
      <point x="56" y="89"/>
      <point x="109" y="-3"/>
      <point x="234" y="-11" type="curve"/>
    </contour>
    <contour>
      <point x="234" y="411" type="line"/>
      <point x="111" y="437"/>
      <point x="107" y="523"/>
      <point x="107" y="543" type="curve" smooth="yes"/>
      <point x="107" y="603"/>
      <point x="154" y="665"/>
      <point x="234" y="673" type="curve"/>
    </contour>
    <contour>
      <point x="265.0" y="117.57000000000001"/>
      <point x="265.0" y="214.14000000000001"/>
      <point x="265" y="311" type="curve"/>
      <point x="385" y="286"/>
      <point x="392" y="189"/>
      <point x="392" y="165" type="curve" smooth="yes"/>
      <point x="392" y="98"/>
      <point x="344" y="31"/>
      <point x="265" y="21" type="curve"/>
    </contour>
  </outline>
</glyph>
<glyph name="ampersand" format="2">
  <advance width="777"/>
  <unicode hex="0026"/>
  <outline>
    <contour>
      <point x="630" y="428" type="curve" smooth="yes"/>
      <point x="619" y="428"/>
      <point x="535" y="429"/>
      <point x="508" y="431" type="curve"/>
      <point x="508" y="400" type="line"/>
      <point x="554" y="400"/>
      <point x="579" y="381"/>
      <point x="579" y="356" type="curve" smooth="yes"/>
      <point x="579" y="349"/>
      <point x="576" y="342"/>
      <point x="573" y="336" type="curve" smooth="yes"/>
      <point x="518" y="239"/>
      <point x="473" y="171"/>
      <point x="430" y="118" type="curve"/>
      <point x="417" y="133"/>
      <point x="308" y="270"/>
      <point x="264" y="385" type="curve"/>
      <point x="318" y="445"/>
      <point x="386" y="521"/>
      <point x="386" y="587" type="curve" smooth="yes"/>
      <point x="386" y="633"/>
      <point x="370" y="716"/>
      <point x="299" y="716" type="curve" smooth="yes"/>
      <point x="237" y="716"/>
      <point x="163" y="661"/>
      <point x="163" y="555" type="curve" smooth="yes"/>
      <point x="163" y="513"/>
      <point x="169" y="441"/>
      <point x="204" y="352" type="curve"/>
      <point x="173.697" y="319.699"/>
      <point x="143.394" y="287.398"/>
      <point x="113" y="255" type="curve" smooth="yes"/>
      <point x="68" y="209"/>
      <point x="42" y="182"/>
      <point x="42" y="128" type="curve" smooth="yes"/>
      <point x="42" y="41"/>
      <point x="124" y="-22"/>
      <point x="223" y="-22" type="curve" smooth="yes"/>
      <point x="308" y="-22"/>
      <point x="367" y="21"/>
      <point x="404" y="54" type="curve"/>
      <point x="473" y="-6"/>
      <point x="532" y="-22"/>
      <point x="580" y="-22" type="curve" smooth="yes"/>
      <point x="656" y="-22"/>
      <point x="719" y="35"/>
      <point x="721" y="121" type="curve"/>
      <point x="696" y="121" type="line"/>
      <point x="693" y="42"/>
      <point x="629" y="9"/>
      <point x="584" y="9" type="curve" smooth="yes"/>
      <point x="530" y="9"/>
      <point x="478" y="60"/>
      <point x="446" y="98" type="curve"/>
      <point x="492" y="151"/>
      <point x="532" y="219"/>
      <point x="578" y="298" type="curve" smooth="yes"/>
      <point x="617" y="364"/>
      <point x="638" y="399"/>
      <point x="727" y="400" type="curve"/>
      <point x="727.0" y="400.0"/>
      <point x="727.0" y="400.0"/>
      <point x="727" y="400" type="curve"/>
      <point x="727" y="431" type="line"/>
      <point x="690" y="429"/>
      <point x="636" y="428"/>
    </contour>
    <contour>
      <point x="213" y="329" type="curve"/>
      <point x="247" y="256"/>
      <point x="310" y="152"/>
      <point x="385" y="73" type="curve"/>
      <point x="321" y="16"/>
      <point x="259" y="9"/>
      <point x="231" y="9" type="curve" smooth="yes"/>
      <point x="148" y="9"/>
      <point x="125" y="106"/>
      <point x="125" y="160" type="curve" smooth="yes"/>
      <point x="125" y="241"/>
      <point x="159" y="277"/>
    </contour>
    <contour>
      <point x="256" y="409" type="curve"/>
      <point x="229" y="489"/>
      <point x="226" y="547"/>
      <point x="226" y="578" type="curve" smooth="yes"/>
      <point x="226" y="662"/>
      <point x="266" y="694"/>
      <point x="301" y="694" type="curve" smooth="yes"/>
      <point x="361" y="694"/>
      <point x="361" y="590"/>
      <point x="361" y="588" type="curve" smooth="yes"/>
      <point x="361" y="522"/>
      <point x="280" y="435"/>
    </contour>
  </outline>
</glyph>
<glyph name="parenleft" format="2">
  <advance width="388"/>
  <unicode hex="0028"/>
  <outline>
    <contour>
      <point x="99" y="250" type="curve" smooth="yes"/>
      <point x="99" y="172"/>
      <point x="110" y="51"/>
      <point x="165" y="-62" type="curve" smooth="yes"/>
      <point x="225" y="-185"/>
      <point x="311" y="-250"/>
      <point x="321" y="-250" type="curve" smooth="yes"/>
      <point x="327" y="-250"/>
      <point x="331" y="-247"/>
      <point x="331" y="-240" type="curve" smooth="yes"/>
      <point x="331" y="-237"/>
      <point x="331" y="-235"/>
      <point x="314" y="-218" type="curve" smooth="yes"/>
      <point x="189" y="-92"/>
      <point x="157" y="97"/>
      <point x="157" y="250" type="curve" smooth="yes"/>
      <point x="157" y="424"/>
      <point x="195" y="598"/>
      <point x="318" y="723" type="curve" smooth="yes"/>
      <point x="331" y="735"/>
      <point x="331" y="737"/>
      <point x="331" y="740" type="curve" smooth="yes"/>
      <point x="331" y="747"/>
      <point x="327" y="750"/>
      <point x="321" y="750" type="curve" smooth="yes"/>
      <point x="311" y="750"/>
      <point x="221" y="682"/>
      <point x="162" y="555" type="curve" smooth="yes"/>
      <point x="111" y="445"/>
      <point x="99" y="334"/>
    </contour>
  </outline>
</glyph>
<glyph name="parenright" format="2">
  <advance width="388"/>
  <unicode hex="0029"/>
  <outline>
    <contour>
      <point x="289" y="250" type="curve" smooth="yes"/>
      <point x="289" y="328"/>
      <point x="278" y="449"/>
      <point x="223" y="562" type="curve" smooth="yes"/>
      <point x="163" y="685"/>
      <point x="77" y="750"/>
      <point x="67" y="750" type="curve" smooth="yes"/>
      <point x="61" y="750"/>
      <point x="57" y="746"/>
      <point x="57" y="740" type="curve" smooth="yes"/>
      <point x="57" y="737"/>
      <point x="57" y="735"/>
      <point x="76" y="717" type="curve" smooth="yes"/>
      <point x="174" y="618"/>
      <point x="231" y="459"/>
      <point x="231" y="250" type="curve" smooth="yes"/>
      <point x="231" y="79"/>
      <point x="194" y="-97"/>
      <point x="70" y="-223" type="curve" smooth="yes"/>
      <point x="57" y="-235"/>
      <point x="57" y="-237"/>
      <point x="57" y="-240" type="curve" smooth="yes"/>
      <point x="57" y="-246"/>
      <point x="61" y="-250"/>
      <point x="67" y="-250" type="curve" smooth="yes"/>
      <point x="77" y="-250"/>
      <point x="167" y="-182"/>
      <point x="226" y="-55" type="curve" smooth="yes"/>
      <point x="277" y="55"/>
      <point x="289" y="166"/>
    </contour>
  </outline>
</glyph>
<glyph name="asterisk" format="2">
  <advance width="500"/>
  <unicode hex="002A"/>
  <outline>
    <contour>
      <point x="249" y="319" type="curve" smooth="yes"/>
      <point x="265" y="319"/>
      <point x="276" y="331"/>
      <point x="276" y="344" type="curve"/>
      <point x="271.005" y="400.61"/>
      <point x="266.01" y="457.22"/>
      <point x="261" y="514" type="curve"/>
      <point x="391" y="419" type="line"/>
      <point x="396" y="416"/>
      <point x="399" y="413"/>
      <point x="407" y="413" type="curve" smooth="yes"/>
      <point x="423" y="413"/>
      <point x="434" y="428"/>
      <point x="434" y="441" type="curve" smooth="yes"/>
      <point x="434" y="452"/>
      <point x="430" y="460"/>
      <point x="413" y="468" type="curve" smooth="yes"/>
      <point x="272" y="534" type="line"/>
      <point x="411" y="600" type="line" smooth="yes"/>
      <point x="430" y="609"/>
      <point x="434" y="616"/>
      <point x="434" y="628" type="curve" smooth="yes"/>
      <point x="434" y="641"/>
      <point x="423" y="656"/>
      <point x="407" y="656" type="curve" smooth="yes"/>
      <point x="400" y="656"/>
      <point x="398" y="656"/>
      <point x="372" y="637" type="curve" smooth="yes"/>
      <point x="261" y="555" type="line"/>
      <point x="265.995" y="611.61"/>
      <point x="270.99" y="668.22"/>
      <point x="276" y="725" type="curve"/>
      <point x="276" y="740"/>
      <point x="263" y="750"/>
      <point x="250" y="750" type="curve" smooth="yes"/>
      <point x="234" y="750"/>
      <point x="223" y="738"/>
      <point x="223" y="725" type="curve"/>
      <point x="227.995" y="668.39"/>
      <point x="232.99" y="611.78"/>
      <point x="238" y="555" type="curve"/>
      <point x="114" y="645" type="line" smooth="yes"/>
      <point x="100" y="656"/>
      <point x="98" y="656"/>
      <point x="92" y="656" type="curve" smooth="yes"/>
      <point x="76" y="656"/>
      <point x="65" y="641"/>
      <point x="65" y="628" type="curve" smooth="yes"/>
      <point x="65" y="617"/>
      <point x="69" y="609"/>
      <point x="86" y="601" type="curve" smooth="yes"/>
      <point x="227" y="535" type="line"/>
      <point x="88" y="469" type="line" smooth="yes"/>
      <point x="69" y="460"/>
      <point x="65" y="453"/>
      <point x="65" y="441" type="curve" smooth="yes"/>
      <point x="65" y="439"/>
      <point x="65" y="413"/>
      <point x="98" y="413" type="curve"/>
      <point x="98" y="413"/>
      <point x="98" y="413"/>
      <point x="98" y="413" type="curve"/>
      <point x="238" y="514" type="line"/>
      <point x="233.005" y="457.39"/>
      <point x="228.01" y="400.78"/>
      <point x="223" y="344" type="curve"/>
      <point x="223" y="329"/>
      <point x="236" y="319"/>
    </contour>
  </outline>
</glyph>
<glyph name="plus" format="2">
  <advance width="777"/>
  <unicode hex="002B"/>
  <outline>
    <contour>
      <point x="409" y="230" type="line"/>
      <point x="688" y="230" type="line" smooth="yes"/>
      <point x="702" y="230"/>
      <point x="721" y="230"/>
      <point x="721" y="250" type="curve" smooth="yes"/>
      <point x="721" y="270"/>
      <point x="702" y="270"/>
      <point x="688" y="270" type="curve" smooth="yes"/>
      <point x="409" y="270" type="line"/>
      <point x="409" y="550" type="line" smooth="yes"/>
      <point x="409" y="564"/>
      <point x="409" y="583"/>
      <point x="389" y="583" type="curve" smooth="yes"/>
      <point x="369" y="583"/>
      <point x="369" y="564"/>
      <point x="369" y="550" type="curve" smooth="yes"/>
      <point x="369" y="270" type="line"/>
      <point x="89" y="270" type="line" smooth="yes"/>
      <point x="75" y="270"/>
      <point x="56" y="270"/>
      <point x="56" y="250" type="curve" smooth="yes"/>
      <point x="56" y="230"/>
      <point x="75" y="230"/>
      <point x="89" y="230" type="curve" smooth="yes"/>
      <point x="369" y="230" type="line"/>
      <point x="369" y="-50" type="line" smooth="yes"/>
      <point x="369" y="-64"/>
      <point x="369" y="-83"/>
      <point x="389" y="-83" type="curve" smooth="yes"/>
      <point x="409" y="-83"/>
      <point x="409" y="-64"/>
      <point x="409" y="-50" type="curve" smooth="yes"/>
    </contour>
  </outline>
</glyph>
<glyph name="comma" format="2">
  <advance width="277"/>
  <unicode hex="002C"/>
  <outline>
    <contour>
      <point x="86" y="53" type="curve" smooth="yes"/>
      <point x="86" y="27"/>
      <point x="103" y="0"/>
      <point x="139" y="0" type="curve" smooth="yes"/>
      <point x="158" y="0"/>
      <point x="172" y="9"/>
      <point x="179" y="16" type="curve"/>
      <point x="189" y="-35"/>
      <point x="162.625" y="-113.71875"/>
      <point x="109" y="-171" type="curve" smooth="yes"/>
      <point x="103" y="-177"/>
      <point x="102" y="-178"/>
      <point x="102" y="-182" type="curve" smooth="yes"/>
      <point x="102" y="-189"/>
      <point x="107" y="-193"/>
      <point x="112" y="-193" type="curve" smooth="yes"/>
      <point x="124" y="-193"/>
      <point x="203" y="-114"/>
      <point x="203" y="1" type="curve" smooth="yes"/>
      <point x="203" y="65"/>
      <point x="179" y="106"/>
      <point x="139" y="106" type="curve" smooth="yes"/>
      <point x="104" y="106"/>
      <point x="86" y="79"/>
    </contour>
  </outline>
</glyph>
<glyph name="hyphen" format="2">
	<unicode hex="002D"/>
	<advance width="333"/>
	<outline>
		<contour>
			<point x="276" y="187" type="line"/>
			<point x="276" y="245" type="line"/>
			<point x="11" y="245" type="line"/>
			<point x="11" y="187" type="line"/>
		</contour>
	</outline>
</glyph>
<glyph name="slash" format="2">
  <advance width="500"/>
  <unicode hex="002F"/>
  <outline>
    <contour>
      <point x="438" y="712" type="line" smooth="yes"/>
      <point x="443" y="725"/>
      <point x="443" y="728"/>
      <point x="443" y="730" type="curve" smooth="yes"/>
      <point x="443" y="741"/>
      <point x="434" y="750"/>
      <point x="423" y="750" type="curve" smooth="yes"/>
      <point x="409" y="750"/>
      <point x="405" y="740"/>
      <point x="402" y="730" type="curve"/>
      <point x="61" y="-212" type="line" smooth="yes"/>
      <point x="56" y="-225"/>
      <point x="56" y="-228"/>
      <point x="56" y="-230" type="curve" smooth="yes"/>
      <point x="56" y="-241"/>
      <point x="65" y="-250"/>
      <point x="76" y="-250" type="curve" smooth="yes"/>
      <point x="90" y="-250"/>
      <point x="94" y="-240"/>
      <point x="97" y="-230" type="curve"/>
    </contour>
  </outline>
</glyph>
<glyph name="zero" format="2">
  <advance width="500"/>
  <unicode hex="0030"/>
  <outline>
    <contour>
      <point x="249" y="-22" type="curve" smooth="yes"/>
      <point x="303" y="-22"/>
      <point x="379" y="-1"/>
      <point x="423" y="94" type="curve" smooth="yes"/>
      <point x="455" y="163"/>
      <point x="460" y="241"/>
      <point x="460" y="320" type="curve" smooth="yes"/>
      <point x="460" y="400"/>
      <point x="455" y="480"/>
      <point x="420" y="554" type="curve" smooth="yes"/>
      <point x="374" y="650"/>
      <point x="292" y="666"/>
      <point x="250" y="666" type="curve" smooth="yes"/>
      <point x="190" y="666"/>
      <point x="117" y="640"/>
      <point x="76" y="547" type="curve" smooth="yes"/>
      <point x="44" y="478"/>
      <point x="39" y="400"/>
      <point x="39" y="320" type="curve" smooth="yes"/>
      <point x="39" y="245"/>
      <point x="43" y="155"/>
      <point x="84" y="79" type="curve" smooth="yes"/>
      <point x="127" y="-2"/>
      <point x="200" y="-22"/>
    </contour>
    <contour>
      <point x="249" y="0" type="curve" smooth="yes"/>
      <point x="210" y="0"/>
      <point x="151" y="25"/>
      <point x="133" y="121" type="curve" smooth="yes"/>
      <point x="122" y="181"/>
      <point x="122" y="273"/>
      <point x="122" y="332" type="curve" smooth="yes"/>
      <point x="122" y="396"/>
      <point x="122" y="462"/>
      <point x="130" y="516" type="curve" smooth="yes"/>
      <point x="149" y="635"/>
      <point x="224" y="644"/>
      <point x="249" y="644" type="curve" smooth="yes"/>
      <point x="282" y="644"/>
      <point x="348" y="626"/>
      <point x="367" y="527" type="curve" smooth="yes"/>
      <point x="377" y="471"/>
      <point x="377" y="395"/>
      <point x="377" y="332" type="curve" smooth="yes"/>
      <point x="377" y="257"/>
      <point x="377" y="189"/>
      <point x="366" y="125" type="curve" smooth="yes"/>
      <point x="351" y="30"/>
      <point x="294" y="0"/>
    </contour>
  </outline>
</glyph>
<glyph name="one" format="2">
  <advance width="500"/>
  <unicode hex="0031"/>
  <outline>
    <contour>
      <point x="220" y="597" type="curve"/>
      <point x="220" y="79" type="line" smooth="yes"/>
      <point x="220" y="43"/>
      <point x="217" y="31"/>
      <point x="127" y="31" type="curve" smooth="yes"/>
      <point x="95" y="31" type="line"/>
      <point x="95" y="0" type="line"/>
      <point x="130" y="3"/>
      <point x="217" y="3"/>
      <point x="257" y="3" type="curve" smooth="yes"/>
      <point x="297" y="3"/>
      <point x="384" y="3"/>
      <point x="419" y="0" type="curve"/>
      <point x="419" y="31" type="line"/>
      <point x="387" y="31" type="line" smooth="yes"/>
      <point x="297" y="31"/>
      <point x="294" y="42"/>
      <point x="294" y="79" type="curve" smooth="yes"/>
      <point x="294" y="640" type="line" smooth="yes"/>
      <point x="294" y="664"/>
      <point x="294" y="666"/>
      <point x="271" y="666" type="curve"/>
      <point x="271.0" y="666.0"/>
      <point x="271.0" y="666.0"/>
      <point x="271" y="666" type="curve"/>
      <point x="209" y="602"/>
      <point x="121" y="602"/>
      <point x="89" y="602" type="curve" smooth="yes"/>
      <point x="89" y="602"/>
      <point x="89" y="602"/>
      <point x="89" y="602" type="curve"/>
      <point x="89.0" y="591.677"/>
      <point x="89.0" y="581.354"/>
      <point x="89" y="571" type="curve"/>
      <point x="89" y="571" type="line"/>
      <point x="109" y="571"/>
      <point x="168" y="571"/>
    </contour>
  </outline>
</glyph>
<glyph name="two" format="2">
	<unicode hex="0032"/>
	<advance width="500"/>
	<outline>
		<contour>
			<point x="358" y="472" type="curve" smooth="yes"/>
			<point x="358" y="392"/>
			<point x="308" y="313"/>
			<point x="253" y="251" type="curve" smooth="yes"/>
			<point x="61" y="37" type="line" smooth="yes"/>
			<point x="51" y="25"/>
			<point x="50" y="24"/>
			<point x="50" y="0" type="curve"/>
			<point x="50" y="0" type="line"/>
			<point x="421" y="0" type="line"/>
			<point x="449" y="174" type="line"/>
			<point x="424" y="174" type="line"/>
			<point x="419" y="144"/>
			<point x="412" y="100"/>
			<point x="402" y="85" type="curve"/>
			<point x="395" y="77"/>
			<point x="329" y="77"/>
			<point x="307" y="77" type="curve" smooth="yes"/>
			<point x="127" y="77" type="line"/>
			<point x="162.298" y="111.299"/>
			<point x="197.596" y="145.598"/>
			<point x="233" y="180" type="curve" smooth="yes"/>
			<point x="389" y="318"/>
			<point x="449" y="372"/>
			<point x="449" y="472" type="curve" smooth="yes"/>
			<point x="449" y="586"/>
			<point x="359" y="666"/>
			<point x="237" y="666" type="curve" smooth="yes"/>
			<point x="124" y="666"/>
			<point x="50" y="574"/>
			<point x="50" y="485" type="curve" smooth="yes"/>
			<point x="50" y="429"/>
			<point x="100" y="429"/>
			<point x="103" y="429" type="curve" smooth="yes"/>
			<point x="120" y="429"/>
			<point x="155" y="441"/>
			<point x="155" y="482" type="curve" smooth="yes"/>
			<point x="155" y="514"/>
			<point x="129" y="540"/>
			<point x="89" y="533" type="curve"/>
			<point x="112" y="598"/>
			<point x="166" y="635"/>
			<point x="224" y="635" type="curve" smooth="yes"/>
			<point x="315" y="635"/>
			<point x="358" y="554"/>
		</contour>
	</outline>
</glyph>
<glyph name="five" format="2">
	<unicode hex="0035"/>
	<advance width="1000"/>
	<outline>
		<contour>
			<point x="462" y="-44" type="curve" smooth="yes"/>
			<point x="694" y="-44"/>
			<point x="898" y="148"/>
			<point x="898" y="402" type="curve" smooth="yes"/>
			<point x="898" y="640"/>
			<point x="734" y="840"/>
			<point x="518" y="840" type="curve" smooth="yes"/>
			<point x="422" y="840"/>
			<point x="336" y="808"/>
			<point x="264" y="738" type="curve"/>
			<point x="264" y="1128" type="line"/>
			<point x="304" y="1116"/>
			<point x="370" y="1102"/>
			<point x="434" y="1102" type="curve" smooth="yes"/>
			<point x="531" y="1102"/>
			<point x="611" y="1130"/>
			<point x="673" y="1166" type="curve" smooth="yes"/>
			<point x="769" y="1221"/>
			<point x="820" y="1294"/>
			<point x="820" y="1310" type="curve" smooth="yes"/>
			<point x="820" y="1322"/>
			<point x="816" y="1332"/>
			<point x="802" y="1332" type="curve" smooth="yes"/>
			<point x="798" y="1332"/>
			<point x="794" y="1330"/>
			<point x="784" y="1326" type="curve" smooth="yes"/>
			<point x="746" y="1308"/>
			<point x="646" y="1268"/>
			<point x="512" y="1268" type="curve" smooth="yes"/>
			<point x="432" y="1268"/>
			<point x="340" y="1282"/>
			<point x="246" y="1324" type="curve"/>
			<point x="230" y="1330"/>
			<point x="226" y="1330"/>
			<point x="222" y="1330" type="curve" smooth="yes"/>
			<point x="202" y="1330"/>
			<point x="202" y="1314"/>
			<point x="202" y="1282" type="curve" smooth="yes"/>
			<point x="202" y="690" type="line" smooth="yes"/>
			<point x="202" y="654"/>
			<point x="202" y="638"/>
			<point x="230" y="638" type="curve" smooth="yes"/>
			<point x="244" y="638"/>
			<point x="248" y="644"/>
			<point x="256" y="656" type="curve" smooth="yes"/>
			<point x="278" y="688"/>
			<point x="352" y="796"/>
			<point x="514" y="796" type="curve" smooth="yes"/>
			<point x="618" y="796"/>
			<point x="668" y="704"/>
			<point x="684" y="668" type="curve" smooth="yes"/>
			<point x="716" y="594"/>
			<point x="720" y="516"/>
			<point x="720" y="416" type="curve" smooth="yes"/>
			<point x="720" y="346"/>
			<point x="720" y="226"/>
			<point x="672" y="142" type="curve" smooth="yes"/>
			<point x="624" y="64"/>
			<point x="550" y="12"/>
			<point x="458" y="12" type="curve" smooth="yes"/>
			<point x="312" y="12"/>
			<point x="198" y="118"/>
			<point x="164" y="236" type="curve"/>
			<point x="242" y="216"/>
			<point x="298" y="266"/>
			<point x="298" y="330" type="curve" smooth="yes"/>
			<point x="298" y="378"/>
			<point x="264" y="428"/>
			<point x="198" y="428" type="curve" smooth="yes"/>
			<point x="170" y="428"/>
			<point x="100" y="414"/>
			<point x="100" y="322" type="curve" smooth="yes"/>
			<point x="100" y="150"/>
			<point x="238" y="-44"/>
		</contour>
	</outline>
</glyph>
<glyph name="six" format="2">
	<unicode hex="0036"/>
	<advance width="1000"/>
	<outline>
		<contour>
			<point x="84" y="632" type="curve" smooth="yes"/>
			<point x="84" y="371"/>
			<point x="139" y="204"/>
			<point x="217" y="101" type="curve" smooth="yes"/>
			<point x="299" y="-7"/>
			<point x="407" y="-44"/>
			<point x="502" y="-44" type="curve" smooth="yes"/>
			<point x="606" y="-44"/>
			<point x="704" y="-2"/>
			<point x="777" y="69" type="curve" smooth="yes"/>
			<point x="861" y="150"/>
			<point x="914" y="268"/>
			<point x="914" y="408" type="curve" smooth="yes"/>
			<point x="914" y="548"/>
			<point x="860" y="669"/>
			<point x="775" y="749" type="curve" smooth="yes"/>
			<point x="705" y="815"/>
			<point x="614" y="854"/>
			<point x="514" y="854" type="curve" smooth="yes"/>
			<point x="378" y="854"/>
			<point x="304" y="752"/>
			<point x="264" y="656" type="curve"/>
			<point x="262" y="970"/>
			<point x="332" y="1116"/>
			<point x="412" y="1194" type="curve" smooth="yes"/>
			<point x="484" y="1266"/>
			<point x="566" y="1282"/>
			<point x="614" y="1282" type="curve" smooth="yes"/>
			<point x="662" y="1282"/>
			<point x="746" y="1270"/>
			<point x="790" y="1202" type="curve"/>
			<point x="760" y="1202"/>
			<point x="680" y="1202"/>
			<point x="680" y="1112" type="curve" smooth="yes"/>
			<point x="680" y="1050"/>
			<point x="728" y="1020"/>
			<point x="772" y="1020" type="curve" smooth="yes"/>
			<point x="804" y="1020"/>
			<point x="864" y="1038"/>
			<point x="864" y="1116" type="curve" smooth="yes"/>
			<point x="864" y="1236"/>
			<point x="776" y="1332"/>
			<point x="610" y="1332" type="curve" smooth="yes"/>
			<point x="354" y="1332"/>
			<point x="84" y="1074"/>
		</contour>
		<contour>
			<point x="502" y="12" type="curve" smooth="yes"/>
			<point x="376" y="12"/>
			<point x="316" y="132"/>
			<point x="304" y="162" type="curve" smooth="yes"/>
			<point x="268" y="256"/>
			<point x="268" y="416"/>
			<point x="268" y="452" type="curve" smooth="yes"/>
			<point x="268" y="608"/>
			<point x="332" y="808"/>
			<point x="512" y="808" type="curve" smooth="yes"/>
			<point x="544" y="808"/>
			<point x="636" y="808"/>
			<point x="698" y="684" type="curve" smooth="yes"/>
			<point x="734" y="610"/>
			<point x="734" y="508"/>
			<point x="734" y="410" type="curve" smooth="yes"/>
			<point x="734" y="314"/>
			<point x="734" y="214"/>
			<point x="700" y="142" type="curve" smooth="yes"/>
			<point x="640" y="22"/>
			<point x="548" y="12"/>
		</contour>
	</outline>
</glyph>
<glyph name="seven" format="2">
  <advance width="500"/>
  <unicode hex="0037"/>
  <outline>
    <contour>
      <point x="222" y="-22" type="curve" smooth="yes"/>
      <point x="268" y="-22"/>
      <point x="268" y="23"/>
      <point x="268" y="33" type="curve" smooth="yes"/>
      <point x="268.0" y="49.983000000000004"/>
      <point x="268.0" y="66.96600000000001"/>
      <point x="268" y="84" type="curve" smooth="yes"/>
      <point x="268" y="213"/>
      <point x="282" y="337"/>
      <point x="341" y="419" type="curve" smooth="yes"/>
      <point x="385.955" y="482.27"/>
      <point x="430.91" y="545.54"/>
      <point x="476" y="609" type="curve" smooth="yes"/>
      <point x="485" y="621"/>
      <point x="485" y="623"/>
      <point x="485" y="644" type="curve"/>
      <point x="485" y="644" type="line"/>
      <point x="242" y="644" type="line"/>
      <point x="242" y="644"/>
      <point x="242" y="644"/>
      <point x="242" y="644" type="curve"/>
      <point x="120" y="644"/>
      <point x="118" y="657"/>
      <point x="114" y="676" type="curve"/>
      <point x="89" y="676" type="line"/>
      <point x="56" y="470" type="line"/>
      <point x="81" y="470" type="line"/>
      <point x="84" y="486"/>
      <point x="93" y="549"/>
      <point x="106" y="561" type="curve" smooth="yes"/>
      <point x="113" y="567"/>
      <point x="191" y="567"/>
      <point x="204" y="567" type="curve" smooth="yes"/>
      <point x="411" y="567" type="line"/>
      <point x="380.697" y="524.043"/>
      <point x="350.394" y="481.086"/>
      <point x="320" y="438" type="curve" smooth="yes"/>
      <point x="205" y="277"/>
      <point x="176" y="135"/>
      <point x="176" y="33" type="curve" smooth="yes"/>
      <point x="176" y="23"/>
      <point x="176" y="-22"/>
    </contour>
  </outline>
</glyph>
<glyph name="eight" format="2">
  <advance width="500"/>
  <unicode hex="0038"/>
  <outline>
    <contour>
      <point x="249" y="-22" type="curve" smooth="yes"/>
      <point x="362" y="-22"/>
      <point x="457" y="61"/>
      <point x="457" y="168" type="curve" smooth="yes"/>
      <point x="457" y="222"/>
      <point x="438" y="292"/>
      <point x="309" y="362" type="curve"/>
      <point x="381" y="399"/>
      <point x="430" y="451"/>
      <point x="430" y="517" type="curve" smooth="yes"/>
      <point x="430" y="609"/>
      <point x="341" y="666"/>
      <point x="250" y="666" type="curve" smooth="yes"/>
      <point x="150" y="666"/>
      <point x="69" y="592"/>
      <point x="69" y="499" type="curve" smooth="yes"/>
      <point x="69" y="481"/>
      <point x="71" y="436"/>
      <point x="113" y="389" type="curve" smooth="yes"/>
      <point x="124" y="377"/>
      <point x="161" y="352"/>
      <point x="186" y="335" type="curve"/>
      <point x="128" y="306"/>
      <point x="42" y="250"/>
      <point x="42" y="151" type="curve" smooth="yes"/>
      <point x="42" y="45"/>
      <point x="144" y="-22"/>
    </contour>
    <contour>
      <point x="250" y="6" type="curve" smooth="yes"/>
      <point x="164" y="6"/>
      <point x="92" y="68"/>
      <point x="92" y="151" type="curve" smooth="yes"/>
      <point x="92" y="209"/>
      <point x="124" y="273"/>
      <point x="209" y="320" type="curve"/>
      <point x="332" y="242" type="line" smooth="yes"/>
      <point x="360" y="223"/>
      <point x="407" y="193"/>
      <point x="407" y="132" type="curve" smooth="yes"/>
      <point x="407" y="58"/>
      <point x="332" y="6"/>
    </contour>
    <contour>
      <point x="287" y="377" type="curve"/>
      <point x="163" y="457" type="line" smooth="yes"/>
      <point x="117" y="487"/>
      <point x="113" y="521"/>
      <point x="113" y="538" type="curve" smooth="yes"/>
      <point x="113" y="599"/>
      <point x="178" y="641"/>
      <point x="249" y="641" type="curve" smooth="yes"/>
      <point x="322" y="641"/>
      <point x="386" y="589"/>
      <point x="386" y="517" type="curve" smooth="yes"/>
      <point x="386" y="460"/>
      <point x="347" y="412"/>
    </contour>
  </outline>
</glyph>
<glyph name="colon" format="2">
	<unicode hex="003A"/>
	<advance width="277"/>
	<outline>
		<contour>
			<point x="192" y="378" type="curve" smooth="yes"/>
			<point x="192" y="407"/>
			<point x="168" y="431"/>
			<point x="139" y="431" type="curve" smooth="yes"/>
			<point x="110" y="431"/>
			<point x="86" y="407"/>
			<point x="86" y="378" type="curve" smooth="yes"/>
			<point x="86" y="349"/>
			<point x="110" y="325"/>
			<point x="139" y="325" type="curve" smooth="yes"/>
			<point x="168" y="325"/>
			<point x="192" y="349"/>
		</contour>
		<contour>
			<point x="192" y="53" type="curve" smooth="yes"/>
			<point x="192" y="82"/>
			<point x="168" y="106"/>
			<point x="139" y="106" type="curve" smooth="yes"/>
			<point x="110" y="106"/>
			<point x="86" y="82"/>
			<point x="86" y="53" type="curve" smooth="yes"/>
			<point x="86" y="24"/>
			<point x="110" y="0"/>
			<point x="139" y="0" type="curve" smooth="yes"/>
			<point x="168" y="0"/>
			<point x="192" y="24"/>
		</contour>
	</outline>
</glyph>
<glyph name="equal" format="2">
	<unicode hex="003D"/>
	<advance width="777"/>
	<outline>
		<contour>
			<point x="687" y="327" type="line" smooth="yes"/>
			<point x="702" y="327"/>
			<point x="721" y="327"/>
			<point x="721" y="347" type="curve" smooth="yes"/>
			<point x="721" y="367"/>
			<point x="702" y="367"/>
			<point x="688" y="367" type="curve" smooth="yes"/>
			<point x="89" y="367" type="line" smooth="yes"/>
			<point x="75" y="367"/>
			<point x="56" y="367"/>
			<point x="56" y="347" type="curve" smooth="yes"/>
			<point x="56" y="327"/>
			<point x="75" y="327"/>
			<point x="90" y="327" type="curve" smooth="yes"/>
		</contour>
		<contour>
			<point x="688" y="133" type="line" smooth="yes"/>
			<point x="702" y="133"/>
			<point x="721" y="133"/>
			<point x="721" y="153" type="curve" smooth="yes"/>
			<point x="721" y="173"/>
			<point x="702" y="173"/>
			<point x="687" y="173" type="curve" smooth="yes"/>
			<point x="90" y="173" type="line" smooth="yes"/>
			<point x="75" y="173"/>
			<point x="56" y="173"/>
			<point x="56" y="153" type="curve" smooth="yes"/>
			<point x="56" y="133"/>
			<point x="75" y="133"/>
			<point x="89" y="133" type="curve" smooth="yes"/>
		</contour>
	</outline>
</glyph>
<glyph name="question" format="2">
	<unicode hex="003F"/>
	<advance width="472"/>
	<outline>
		<contour>
			<point x="415" y="570" type="curve" smooth="yes"/>
			<point x="415" y="628"/>
			<point x="375" y="705"/>
			<point x="226" y="705" type="curve" smooth="yes"/>
			<point x="118" y="705"/>
			<point x="56" y="637"/>
			<point x="56" y="572" type="curve" smooth="yes"/>
			<point x="56" y="538"/>
			<point x="79" y="524"/>
			<point x="102" y="524" type="curve" smooth="yes"/>
			<point x="130" y="524"/>
			<point x="148" y="544"/>
			<point x="148" y="570" type="curve" smooth="yes"/>
			<point x="148" y="615"/>
			<point x="106" y="615"/>
			<point x="92" y="615" type="curve"/>
			<point x="123" y="668"/>
			<point x="181" y="683"/>
			<point x="223" y="683" type="curve" smooth="yes"/>
			<point x="332" y="683"/>
			<point x="332" y="615"/>
			<point x="332" y="576" type="curve" smooth="yes"/>
			<point x="332" y="517"/>
			<point x="316" y="499"/>
			<point x="298" y="481" type="curve" smooth="yes"/>
			<point x="232" y="409"/>
			<point x="210" y="317"/>
			<point x="210" y="256" type="curve" smooth="yes"/>
			<point x="210" y="241.015"/>
			<point x="210" y="226.03"/>
			<point x="210" y="211" type="curve" smooth="yes"/>
			<point x="210" y="193"/>
			<point x="210" y="187"/>
			<point x="222" y="187" type="curve" smooth="yes"/>
			<point x="235" y="187"/>
			<point x="235" y="196"/>
			<point x="235" y="214" type="curve" smooth="yes"/>
			<point x="235" y="249" type="line" smooth="yes"/>
			<point x="235" y="375"/>
			<point x="332" y="446"/>
			<point x="367" y="472" type="curve" smooth="yes"/>
			<point x="394" y="492"/>
			<point x="415" y="528"/>
		</contour>
		<contour>
			<point x="275" y="53" type="curve" smooth="yes"/>
			<point x="275" y="82"/>
			<point x="251" y="106"/>
			<point x="222" y="106" type="curve" smooth="yes"/>
			<point x="193" y="106"/>
			<point x="169" y="82"/>
			<point x="169" y="53" type="curve" smooth="yes"/>
			<point x="169" y="24"/>
			<point x="193" y="0"/>
			<point x="222" y="0" type="curve" smooth="yes"/>
			<point x="251" y="0"/>
			<point x="275" y="24"/>
		</contour>
	</outline>
</glyph>
<glyph name="at" format="2">
	<unicode hex="0040"/>
	<advance width="777"/>
	<outline>
		<contour>
			<point x="394" y="-11" type="curve" smooth="yes"/>
			<point x="446" y="-11"/>
			<point x="510" y="-4"/>
			<point x="574" y="11" type="curve" smooth="yes"/>
			<point x="594.65752" y="15.76712"/>
			<point x="674.6536708576" y="38.8408388816"/>
			<point x="706.6566865766" y="56.1467418419" type="curve" smooth="yes"/>
			<point x="714.933356352" y="60.6224214224"/>
			<point x="720" y="64.71232"/>
			<point x="720" y="68" type="curve" smooth="yes"/>
			<point x="720" y="78"/>
			<point x="713" y="78"/>
			<point x="697" y="78" type="curve" smooth="yes"/>
			<point x="688" y="78" type="line" smooth="yes"/>
			<point x="672" y="78"/>
			<point x="670" y="77"/>
			<point x="665" y="75" type="curve" smooth="yes"/>
			<point x="580" y="35"/>
			<point x="487" y="11"/>
			<point x="393" y="11" type="curve" smooth="yes"/>
			<point x="211" y="11"/>
			<point x="81" y="168"/>
			<point x="81" y="347" type="curve" smooth="yes"/>
			<point x="81" y="538"/>
			<point x="224" y="683"/>
			<point x="388" y="683" type="curve" smooth="yes"/>
			<point x="525" y="683"/>
			<point x="696" y="573"/>
			<point x="696" y="332" type="curve" smooth="yes"/>
			<point x="696" y="240"/>
			<point x="689" y="150"/>
			<point x="623" y="150" type="curve" smooth="yes"/>
			<point x="588" y="150"/>
			<point x="588" y="201"/>
			<point x="588" y="216" type="curve" smooth="yes"/>
			<point x="588" y="457" type="line" smooth="yes"/>
			<point x="588" y="480"/>
			<point x="587" y="481"/>
			<point x="564" y="481" type="curve" smooth="yes"/>
			<point x="531" y="481"/>
			<point x="530" y="482"/>
			<point x="524" y="489" type="curve"/>
			<point x="478" y="552"/>
			<point x="426" y="566"/>
			<point x="387" y="566" type="curve" smooth="yes"/>
			<point x="284" y="566"/>
			<point x="189" y="473"/>
			<point x="189" y="347" type="curve" smooth="yes"/>
			<point x="189" y="221"/>
			<point x="284" y="128"/>
			<point x="387" y="128" type="curve" smooth="yes"/>
			<point x="441" y="128"/>
			<point x="489" y="157"/>
			<point x="519" y="199" type="curve"/>
			<point x="529" y="147"/>
			<point x="581" y="128"/>
			<point x="619" y="128" type="curve" smooth="yes"/>
			<point x="707" y="128"/>
			<point x="721" y="231"/>
			<point x="721" y="338" type="curve" smooth="yes"/>
			<point x="721" y="572"/>
			<point x="550" y="705"/>
			<point x="389" y="705" type="curve" smooth="yes"/>
			<point x="206" y="705"/>
			<point x="56" y="546"/>
			<point x="56" y="347" type="curve" smooth="yes"/>
			<point x="56" y="159"/>
			<point x="194" y="-11"/>
		</contour>
		<contour>
			<point x="390" y="150" type="curve" smooth="yes"/>
			<point x="318" y="150"/>
			<point x="258" y="236"/>
			<point x="258" y="347" type="curve" smooth="yes"/>
			<point x="258" y="458"/>
			<point x="317" y="544"/>
			<point x="390" y="544" type="curve" smooth="yes"/>
			<point x="422" y="544"/>
			<point x="470" y="528"/>
			<point x="506" y="472" type="curve" smooth="yes"/>
			<point x="519" y="453"/>
			<point x="519" y="450"/>
			<point x="519" y="432" type="curve" smooth="yes"/>
			<point x="519" y="251" type="line" smooth="yes"/>
			<point x="519" y="230"/>
			<point x="469" y="150"/>
		</contour>
	</outline>
</glyph>
<glyph name="A" format="2">
	<unicode hex="0041"/>
	<advance width="1500"/>
	<outline>
		<contour>
			<point x="750" y="1432" type="curve" smooth="yes"/>
			<point x="718" y="1432"/>
			<point x="712" y="1420"/>
			<point x="702" y="1392" type="curve" smooth="yes"/>
			<point x="288" y="196" type="line" smooth="yes"/>
			<point x="252" y="94"/>
			<point x="172" y="64"/>
			<point x="64" y="62" type="curve"/>
			<point x="64" y="0" type="line"/>
			<point x="110" y="2"/>
			<point x="196" y="6"/>
			<point x="268" y="6" type="curve" smooth="yes"/>
			<point x="330" y="6"/>
			<point x="434" y="2"/>
			<point x="498" y="0" type="curve"/>
			<point x="498" y="62" type="line"/>
			<point x="398" y="62"/>
			<point x="348" y="112"/>
			<point x="348" y="164" type="curve" smooth="yes"/>
			<point x="348" y="170"/>
			<point x="350" y="190"/>
			<point x="352" y="194" type="curve"/>
			<point x="444" y="456" type="line"/>
			<point x="938" y="456" type="line"/>
			<point x="1044" y="150" type="line"/>
			<point x="1046" y="142"/>
			<point x="1050" y="130"/>
			<point x="1050" y="122" type="curve" smooth="yes"/>
			<point x="1050" y="62"/>
			<point x="938" y="62"/>
			<point x="884" y="62" type="curve"/>
			<point x="884" y="0" type="line"/>
			<point x="956" y="6"/>
			<point x="1096" y="6"/>
			<point x="1172" y="6" type="curve" smooth="yes"/>
			<point x="1258" y="6"/>
			<point x="1350" y="4"/>
			<point x="1434" y="0" type="curve"/>
			<point x="1434" y="62" type="line"/>
			<point x="1398" y="62" type="line" smooth="yes"/>
			<point x="1278" y="62"/>
			<point x="1250" y="76"/>
			<point x="1228" y="142" type="curve" smooth="yes"/>
			<point x="796" y="1392" type="line" smooth="yes"/>
			<point x="786" y="1418"/>
			<point x="782" y="1432"/>
		</contour>
		<contour>
			<point x="690" y="1168" type="line"/>
			<point x="916" y="518" type="line"/>
			<point x="466" y="518" type="line"/>
		</contour>
	</outline>
</glyph>
<glyph name="B" format="2">
	<unicode hex="0042"/>
	<advance width="708"/>
	<outline>
		<contour>
			<point x="651" y="183" type="curve" smooth="yes"/>
			<point x="651" y="270"/>
			<point x="569" y="345"/>
			<point x="458" y="357" type="curve"/>
			<point x="555" y="376"/>
			<point x="624" y="440"/>
			<point x="624" y="514" type="curve" smooth="yes"/>
			<point x="624" y="601"/>
			<point x="532" y="683"/>
			<point x="402" y="683" type="curve" smooth="yes"/>
			<point x="36" y="683" type="line"/>
			<point x="36" y="652" type="line"/>
			<point x="60" y="652" type="line" smooth="yes"/>
			<point x="137" y="652"/>
			<point x="139" y="641"/>
			<point x="139" y="605" type="curve" smooth="yes"/>
			<point x="139" y="78" type="line" smooth="yes"/>
			<point x="139" y="42"/>
			<point x="137" y="31"/>
			<point x="60" y="31" type="curve" smooth="yes"/>
			<point x="36" y="31" type="line"/>
			<point x="36" y="0" type="line"/>
			<point x="428" y="0" type="line" smooth="yes"/>
			<point x="561" y="0"/>
			<point x="651" y="89"/>
		</contour>
		<contour>
			<point x="222" y="366" type="line"/>
			<point x="222" y="612" type="line" smooth="yes"/>
			<point x="222" y="645"/>
			<point x="224" y="652"/>
			<point x="271" y="652" type="curve" smooth="yes"/>
			<point x="395" y="652" type="line" smooth="yes"/>
			<point x="492" y="652"/>
			<point x="527" y="567"/>
			<point x="527" y="514" type="curve" smooth="yes"/>
			<point x="527" y="450"/>
			<point x="478" y="366"/>
			<point x="367" y="366" type="curve" smooth="yes"/>
		</contour>
		<contour>
			<point x="396" y="31" type="curve" smooth="yes"/>
			<point x="271" y="31" type="line" smooth="yes"/>
			<point x="224" y="31"/>
			<point x="222" y="38"/>
			<point x="222" y="71" type="curve" smooth="yes"/>
			<point x="222" y="344" type="line"/>
			<point x="410" y="344" type="line" smooth="yes"/>
			<point x="509" y="344"/>
			<point x="551" y="251"/>
			<point x="551" y="184" type="curve" smooth="yes"/>
			<point x="551" y="113"/>
			<point x="499" y="31"/>
		</contour>
	</outline>
</glyph>
<glyph name="C" format="2">
	<unicode hex="0043"/>
	<advance width="1444"/>
	<outline>
		<contour>
			<point x="112" y="684" type="curve" smooth="yes"/>
			<point x="112" y="270"/>
			<point x="436" y="-44"/>
			<point x="808" y="-44" type="curve" smooth="yes"/>
			<point x="1134" y="-44"/>
			<point x="1330" y="234"/>
			<point x="1330" y="466" type="curve" smooth="yes"/>
			<point x="1330" y="486"/>
			<point x="1330" y="500"/>
			<point x="1304" y="500" type="curve" smooth="yes"/>
			<point x="1282" y="500"/>
			<point x="1282" y="488"/>
			<point x="1280" y="468" type="curve" smooth="yes"/>
			<point x="1264" y="182"/>
			<point x="1050" y="18"/>
			<point x="832" y="18" type="curve" smooth="yes"/>
			<point x="764" y="18"/>
			<point x="613" y="39"/>
			<point x="492" y="160" type="curve" smooth="yes"/>
			<point x="395" y="257"/>
			<point x="318" y="418"/>
			<point x="318" y="682" type="curve" smooth="yes"/>
			<point x="318" y="951"/>
			<point x="397" y="1112"/>
			<point x="494" y="1209" type="curve" smooth="yes"/>
			<point x="614" y="1327"/>
			<point x="763" y="1348"/>
			<point x="830" y="1348" type="curve" smooth="yes"/>
			<point x="1048" y="1348"/>
			<point x="1226" y="1166"/>
			<point x="1266" y="874" type="curve" smooth="yes"/>
			<point x="1270" y="846"/>
			<point x="1270" y="840"/>
			<point x="1298" y="840" type="curve" smooth="yes"/>
			<point x="1330" y="840"/>
			<point x="1330" y="846"/>
			<point x="1330" y="888" type="curve" smooth="yes"/>
			<point x="1330" y="1362" type="line" smooth="yes"/>
			<point x="1330" y="1396"/>
			<point x="1330" y="1410"/>
			<point x="1308" y="1410" type="curve" smooth="yes"/>
			<point x="1300" y="1410"/>
			<point x="1292" y="1410"/>
			<point x="1276" y="1386" type="curve" smooth="yes"/>
			<point x="1176" y="1238" type="line"/>
			<point x="1102" y="1310"/>
			<point x="1000" y="1410"/>
			<point x="808" y="1410" type="curve" smooth="yes"/>
			<point x="434" y="1410"/>
			<point x="112" y="1092"/>
		</contour>
	</outline>
</glyph>
<glyph name="E" format="2">
  <advance width="680"/>
  <unicode hex="0045"/>
  <outline>
    <contour>
      <point x="652" y="258" type="line"/>
      <point x="627" y="258" type="line"/>
      <point x="602" y="104"/>
      <point x="579" y="31"/>
      <point x="407" y="31" type="curve" smooth="yes"/>
      <point x="274" y="31" type="line" smooth="yes"/>
      <point x="227" y="31"/>
      <point x="225" y="38"/>
      <point x="225" y="71" type="curve" smooth="yes"/>
      <point x="225" y="338" type="line"/>
      <point x="315" y="338" type="line" smooth="yes"/>
      <point x="412" y="338"/>
      <point x="423" y="306"/>
      <point x="423" y="221" type="curve"/>
      <point x="448" y="221" type="line"/>
      <point x="448" y="486" type="line"/>
      <point x="423" y="486" type="line"/>
      <point x="423" y="400"/>
      <point x="412" y="369"/>
      <point x="315" y="369" type="curve" smooth="yes"/>
      <point x="225" y="369" type="line"/>
      <point x="225" y="609" type="line" smooth="yes"/>
      <point x="225" y="642"/>
      <point x="227" y="649"/>
      <point x="274" y="649" type="curve" smooth="yes"/>
      <point x="403" y="649" type="line" smooth="yes"/>
      <point x="556" y="649"/>
      <point x="583" y="594"/>
      <point x="599" y="455" type="curve"/>
      <point x="624" y="455" type="line"/>
      <point x="596" y="680" type="line"/>
      <point x="33" y="680" type="line"/>
      <point x="33" y="649" type="line"/>
      <point x="57" y="649" type="line" smooth="yes"/>
      <point x="134" y="649"/>
      <point x="136" y="638"/>
      <point x="136" y="602" type="curve" smooth="yes"/>
      <point x="136" y="78" type="line" smooth="yes"/>
      <point x="136" y="42"/>
      <point x="134" y="31"/>
      <point x="57" y="31" type="curve" smooth="yes"/>
      <point x="33" y="31" type="line"/>
      <point x="33" y="0" type="line"/>
      <point x="610" y="0" type="line"/>
    </contour>
  </outline>
</glyph>
<glyph name="G" format="2">
	<unicode hex="0047"/>
	<advance width="1568"/>
	<outline>
		<contour>
			<point x="812" y="-44" type="curve" smooth="yes"/>
			<point x="896" y="-44"/>
			<point x="984" y="-27"/>
			<point x="1057" y="10" type="curve" smooth="yes"/>
			<point x="1111" y="37"/>
			<point x="1157" y="76"/>
			<point x="1186" y="126" type="curve"/>
			<point x="1212" y="82"/>
			<point x="1292" y="2"/>
			<point x="1314" y="2" type="curve" smooth="yes"/>
			<point x="1332" y="2"/>
			<point x="1332" y="18"/>
			<point x="1332" y="48" type="curve" smooth="yes"/>
			<point x="1332" y="164"/>
			<point x="1332" y="280"/>
			<point x="1332" y="396" type="curve" smooth="yes"/>
			<point x="1332" y="474"/>
			<point x="1340" y="484"/>
			<point x="1470" y="484" type="curve"/>
			<point x="1470" y="484"/>
			<point x="1470" y="484"/>
			<point x="1470" y="484" type="curve"/>
			<point x="1470" y="505"/>
			<point x="1470" y="525"/>
			<point x="1470" y="546" type="curve"/>
			<point x="1396" y="544"/>
			<point x="1286" y="540"/>
			<point x="1226" y="540" type="curve" smooth="yes"/>
			<point x="1146" y="540"/>
			<point x="976" y="540"/>
			<point x="904" y="546" type="curve"/>
			<point x="904" y="525"/>
			<point x="904" y="505"/>
			<point x="904" y="484" type="curve"/>
			<point x="925" y="484"/>
			<point x="947" y="484"/>
			<point x="968" y="484" type="curve" smooth="yes"/>
			<point x="1148" y="484"/>
			<point x="1154" y="462"/>
			<point x="1154" y="388" type="curve" smooth="yes"/>
			<point x="1154" y="345"/>
			<point x="1154" y="303"/>
			<point x="1154" y="260" type="curve" smooth="yes"/>
			<point x="1154" y="164"/>
			<point x="1108" y="94"/>
			<point x="1050" y="60" type="curve" smooth="yes"/>
			<point x="974" y="12"/>
			<point x="876" y="18"/>
			<point x="844" y="18" type="curve" smooth="yes"/>
			<point x="771" y="18"/>
			<point x="616" y="40"/>
			<point x="492" y="163" type="curve" smooth="yes"/>
			<point x="395" y="261"/>
			<point x="318" y="421"/>
			<point x="318" y="684" type="curve" smooth="yes"/>
			<point x="318" y="949"/>
			<point x="396" y="1110"/>
			<point x="492" y="1206" type="curve" smooth="yes"/>
			<point x="614" y="1328"/>
			<point x="765" y="1348"/>
			<point x="832" y="1348" type="curve" smooth="yes"/>
			<point x="1046" y="1348"/>
			<point x="1228" y="1168"/>
			<point x="1268" y="874" type="curve" smooth="yes"/>
			<point x="1272" y="846"/>
			<point x="1272" y="840"/>
			<point x="1300" y="840" type="curve" smooth="yes"/>
			<point x="1332" y="840"/>
			<point x="1332" y="846"/>
			<point x="1332" y="888" type="curve" smooth="yes"/>
			<point x="1332" y="1046"/>
			<point x="1332" y="1204"/>
			<point x="1332" y="1362" type="curve" smooth="yes"/>
			<point x="1332" y="1396"/>
			<point x="1332" y="1410"/>
			<point x="1310" y="1410" type="curve" smooth="yes"/>
			<point x="1302" y="1410"/>
			<point x="1294" y="1410"/>
			<point x="1278" y="1386" type="curve" smooth="yes"/>
			<point x="1245" y="1337"/>
			<point x="1211" y="1287"/>
			<point x="1178" y="1238" type="curve"/>
			<point x="1114" y="1302"/>
			<point x="1006" y="1410"/>
			<point x="808" y="1410" type="curve" smooth="yes"/>
			<point x="436" y="1410"/>
			<point x="112" y="1094"/>
			<point x="112" y="684" type="curve" smooth="yes"/>
			<point x="112" y="274"/>
			<point x="432" y="-44"/>
		</contour>
	</outline>
</glyph>
<glyph name="I" format="2">
	<unicode hex="0049"/>
	<advance width="722"/>
	<outline>
		<contour>
			<point x="56" y="0" type="line"/>
			<point x="126" y="6"/>
			<point x="284" y="6"/>
			<point x="360" y="6" type="curve" smooth="yes"/>
			<point x="438" y="6"/>
			<point x="596" y="6"/>
			<point x="666" y="0" type="curve"/>
			<point x="666" y="62" type="line"/>
			<point x="614" y="62" type="line" smooth="yes"/>
			<point x="456" y="62"/>
			<point x="450" y="84"/>
			<point x="450" y="156" type="curve" smooth="yes"/>
			<point x="450" y="1210" type="line" smooth="yes"/>
			<point x="450" y="1282"/>
			<point x="456" y="1304"/>
			<point x="614" y="1304" type="curve" smooth="yes"/>
			<point x="666" y="1304" type="line"/>
			<point x="666" y="1366" type="line"/>
			<point x="596" y="1360"/>
			<point x="438" y="1360"/>
			<point x="362" y="1360" type="curve" smooth="yes"/>
			<point x="284" y="1360"/>
			<point x="126" y="1360"/>
			<point x="56" y="1366" type="curve"/>
			<point x="56" y="1304" type="line"/>
			<point x="108" y="1304" type="line" smooth="yes"/>
			<point x="266" y="1304"/>
			<point x="272" y="1282"/>
			<point x="272" y="1210" type="curve" smooth="yes"/>
			<point x="272" y="156" type="line" smooth="yes"/>
			<point x="272" y="84"/>
			<point x="266" y="62"/>
			<point x="108" y="62" type="curve" smooth="yes"/>
			<point x="56" y="62" type="line"/>
		</contour>
	</outline>
</glyph>
<glyph name="K" format="2">
	<unicode hex="004B"/>
	<advance width="1554"/>
	<outline>
		<contour>
			<point x="66" y="0" type="line"/>
			<point x="136" y="6"/>
			<point x="284" y="6"/>
			<point x="360" y="6" type="curve" smooth="yes"/>
			<point x="436" y="6"/>
			<point x="586" y="6"/>
			<point x="656" y="0" type="curve"/>
			<point x="656" y="62" type="line"/>
			<point x="608" y="62" type="line" smooth="yes"/>
			<point x="454" y="62"/>
			<point x="450" y="84"/>
			<point x="450" y="156" type="curve" smooth="yes"/>
			<point x="450" y="506" type="line"/>
			<point x="682" y="726" type="line"/>
			<point x="1044" y="190" type="line" smooth="yes"/>
			<point x="1056" y="172"/>
			<point x="1074" y="146"/>
			<point x="1074" y="122" type="curve" smooth="yes"/>
			<point x="1074" y="62"/>
			<point x="996" y="62"/>
			<point x="956" y="62" type="curve"/>
			<point x="956" y="0" type="line"/>
			<point x="1026" y="6"/>
			<point x="1166" y="6"/>
			<point x="1242" y="6" type="curve" smooth="yes"/>
			<point x="1312" y="6"/>
			<point x="1388" y="4"/>
			<point x="1472" y="0" type="curve"/>
			<point x="1472" y="62" type="line"/>
			<point x="1364" y="62"/>
			<point x="1322" y="70"/>
			<point x="1262" y="158" type="curve" smooth="yes"/>
			<point x="800" y="838" type="line"/>
			<point x="1160" y="1184" type="line" smooth="yes"/>
			<point x="1176" y="1200"/>
			<point x="1282" y="1302"/>
			<point x="1444" y="1304" type="curve"/>
			<point x="1444" y="1366" type="line"/>
			<point x="1392" y="1360"/>
			<point x="1328" y="1360"/>
			<point x="1274" y="1360" type="curve" smooth="yes"/>
			<point x="1202" y="1360"/>
			<point x="1088" y="1360"/>
			<point x="1020" y="1366" type="curve"/>
			<point x="1020" y="1304" type="line"/>
			<point x="1100" y="1302"/>
			<point x="1112" y="1256"/>
			<point x="1112" y="1238" type="curve" smooth="yes"/>
			<point x="1112" y="1206"/>
			<point x="1092" y="1186"/>
			<point x="1076" y="1172" type="curve" smooth="yes"/>
			<point x="450" y="574" type="line"/>
			<point x="450" y="1210" type="line" smooth="yes"/>
			<point x="450" y="1282"/>
			<point x="454" y="1304"/>
			<point x="608" y="1304" type="curve" smooth="yes"/>
			<point x="656" y="1304" type="line"/>
			<point x="656" y="1366" type="line"/>
			<point x="586" y="1360"/>
			<point x="438" y="1360"/>
			<point x="362" y="1360" type="curve" smooth="yes"/>
			<point x="286" y="1360"/>
			<point x="136" y="1360"/>
			<point x="66" y="1366" type="curve"/>
			<point x="66" y="1304" type="line"/>
			<point x="114" y="1304" type="line" smooth="yes"/>
			<point x="268" y="1304"/>
			<point x="272" y="1282"/>
			<point x="272" y="1210" type="curve" smooth="yes"/>
			<point x="272" y="156" type="line" smooth="yes"/>
			<point x="272" y="84"/>
			<point x="268" y="62"/>
			<point x="114" y="62" type="curve" smooth="yes"/>
			<point x="66" y="62" type="line"/>
		</contour>
	</outline>
</glyph>
<glyph name="L" format="2">
  <advance width="625"/>
  <unicode hex="004C"/>
  <outline>
    <contour>
      <point x="582" y="258" type="line"/>
      <point x="557" y="258" type="line"/>
      <point x="546" y="156"/>
      <point x="532" y="31"/>
      <point x="356" y="31" type="curve" smooth="yes"/>
      <point x="274" y="31" type="line" smooth="yes"/>
      <point x="227" y="31"/>
      <point x="225" y="38"/>
      <point x="225" y="71" type="curve" smooth="yes"/>
      <point x="225" y="604" type="line" smooth="yes"/>
      <point x="225" y="638"/>
      <point x="225" y="652"/>
      <point x="320" y="652" type="curve" smooth="yes"/>
      <point x="353" y="652" type="line"/>
      <point x="353" y="683" type="line"/>
      <point x="317" y="680"/>
      <point x="226" y="680"/>
      <point x="185" y="680" type="curve" smooth="yes"/>
      <point x="146" y="680"/>
      <point x="68" y="680"/>
      <point x="33" y="683" type="curve"/>
      <point x="33" y="652" type="line"/>
      <point x="57" y="652" type="line" smooth="yes"/>
      <point x="134" y="652"/>
      <point x="136" y="641"/>
      <point x="136" y="605" type="curve" smooth="yes"/>
      <point x="136" y="78" type="line" smooth="yes"/>
      <point x="136" y="42"/>
      <point x="134" y="31"/>
      <point x="57" y="31" type="curve" smooth="yes"/>
      <point x="33" y="31" type="line"/>
      <point x="33" y="0" type="line"/>
      <point x="554" y="0" type="line"/>
    </contour>
  </outline>
</glyph>
<glyph name="M" format="2">
	<unicode hex="004D"/>
	<advance width="1832"/>
	<outline>
		<contour>
			<point x="916" y="202" type="line"/>
			<point x="482" y="1322" type="line" smooth="yes"/>
			<point x="464" y="1366"/>
			<point x="458" y="1366"/>
			<point x="412" y="1366" type="curve" smooth="yes"/>
			<point x="74" y="1366" type="line"/>
			<point x="74" y="1304" type="line"/>
			<point x="122" y="1304" type="line" smooth="yes"/>
			<point x="276" y="1304"/>
			<point x="280" y="1282"/>
			<point x="280" y="1210" type="curve" smooth="yes"/>
			<point x="280" y="210" type="line" smooth="yes"/>
			<point x="280" y="156"/>
			<point x="280" y="62"/>
			<point x="74" y="62" type="curve"/>
			<point x="74" y="62" type="line"/>
			<point x="74" y="0" type="line"/>
			<point x="144" y="2"/>
			<point x="242" y="6"/>
			<point x="308" y="6" type="curve" smooth="yes"/>
			<point x="374" y="6"/>
			<point x="472" y="2"/>
			<point x="542" y="0" type="curve"/>
			<point x="542" y="62" type="line"/>
			<point x="542" y="62" type="line"/>
			<point x="336" y="62"/>
			<point x="336" y="156"/>
			<point x="336" y="210" type="curve" smooth="yes"/>
			<point x="336" y="1288" type="line"/>
			<point x="338" y="1288" type="line"/>
			<point x="820" y="44" type="line" smooth="yes"/>
			<point x="830" y="18"/>
			<point x="840" y="0"/>
			<point x="860" y="0" type="curve" smooth="yes"/>
			<point x="882" y="0"/>
			<point x="888" y="16"/>
			<point x="896" y="38" type="curve" smooth="yes"/>
			<point x="1388" y="1304" type="line"/>
			<point x="1390" y="1304" type="line"/>
			<point x="1390" y="156" type="line" smooth="yes"/>
			<point x="1390" y="84"/>
			<point x="1386" y="62"/>
			<point x="1232" y="62" type="curve" smooth="yes"/>
			<point x="1184" y="62" type="line"/>
			<point x="1184" y="0" type="line"/>
			<point x="1258" y="6"/>
			<point x="1394" y="6"/>
			<point x="1472" y="6" type="curve" smooth="yes"/>
			<point x="1550" y="6"/>
			<point x="1684" y="6"/>
			<point x="1758" y="0" type="curve"/>
			<point x="1758" y="62" type="line"/>
			<point x="1710" y="62" type="line" smooth="yes"/>
			<point x="1556" y="62"/>
			<point x="1552" y="84"/>
			<point x="1552" y="156" type="curve" smooth="yes"/>
			<point x="1552" y="1210" type="line" smooth="yes"/>
			<point x="1552" y="1282"/>
			<point x="1556" y="1304"/>
			<point x="1710" y="1304" type="curve" smooth="yes"/>
			<point x="1758" y="1304" type="line"/>
			<point x="1758" y="1366" type="line"/>
			<point x="1420" y="1366" type="line" smooth="yes"/>
			<point x="1368" y="1366"/>
			<point x="1368" y="1364"/>
			<point x="1354" y="1328" type="curve" smooth="yes"/>
		</contour>
	</outline>
</glyph>
<glyph name="N" format="2">
  <advance width="750"/>
  <unicode hex="004E"/>
  <outline>
    <contour>
      <point x="136" y="105" type="line" smooth="yes"/>
      <point x="136" y="78"/>
      <point x="136" y="31"/>
      <point x="33" y="31" type="curve"/>
      <point x="33" y="0" type="line"/>
      <point x="68" y="1"/>
      <point x="117" y="3"/>
      <point x="150" y="3" type="curve" smooth="yes"/>
      <point x="183" y="3"/>
      <point x="232" y="1"/>
      <point x="267" y="0" type="curve"/>
      <point x="267" y="31" type="line"/>
      <point x="164" y="31"/>
      <point x="164" y="78"/>
      <point x="164" y="105" type="curve" smooth="yes"/>
      <point x="164" y="625" type="line"/>
      <point x="169" y="620"/>
      <point x="170" y="619"/>
      <point x="174" y="613" type="curve" smooth="yes"/>
      <point x="582" y="13" type="line" smooth="yes"/>
      <point x="591" y="1"/>
      <point x="592" y="0"/>
      <point x="599" y="0" type="curve" smooth="yes"/>
      <point x="613" y="0"/>
      <point x="613" y="7"/>
      <point x="613" y="26" type="curve" smooth="yes"/>
      <point x="613" y="578" type="line" smooth="yes"/>
      <point x="613" y="605"/>
      <point x="613" y="652"/>
      <point x="716" y="652" type="curve"/>
      <point x="716" y="683" type="line"/>
      <point x="681" y="682"/>
      <point x="632" y="680"/>
      <point x="599" y="680" type="curve" smooth="yes"/>
      <point x="566" y="680"/>
      <point x="517" y="682"/>
      <point x="482" y="683" type="curve"/>
      <point x="482" y="652" type="line"/>
      <point x="585" y="652"/>
      <point x="585" y="605"/>
      <point x="585" y="578" type="curve" smooth="yes"/>
      <point x="585" y="151" type="line"/>
      <point x="232" y="670" type="line" smooth="yes"/>
      <point x="223" y="682"/>
      <point x="222" y="683"/>
      <point x="203" y="683" type="curve" smooth="yes"/>
      <point x="33" y="683" type="line"/>
      <point x="33" y="652" type="line"/>
      <point x="62" y="652" type="line" smooth="yes"/>
      <point x="77" y="652"/>
      <point x="97" y="651"/>
      <point x="112" y="650" type="curve"/>
      <point x="135" y="647"/>
      <point x="136" y="646"/>
      <point x="136" y="627" type="curve" smooth="yes"/>
    </contour>
  </outline>
</glyph>
<glyph name="O" format="2">
	<unicode hex="004F"/>
	<advance width="777"/>
	<outline>
		<contour>
			<point x="721" y="339" type="curve" smooth="yes"/>
			<point x="721" y="543"/>
			<point x="570" y="705"/>
			<point x="388" y="705" type="curve" smooth="yes"/>
			<point x="209" y="705"/>
			<point x="56" y="545"/>
			<point x="56" y="339" type="curve" smooth="yes"/>
			<point x="56" y="134"/>
			<point x="210" y="-22"/>
			<point x="388" y="-22" type="curve" smooth="yes"/>
			<point x="570" y="-22"/>
			<point x="721" y="137"/>
		</contour>
		<contour>
			<point x="389" y="4" type="curve" smooth="yes"/>
			<point x="346.42592" y="4"/>
			<point x="296.3782086048" y="21.3073569152"/>
			<point x="253.8589142564" y="63.3358737547" type="curve" smooth="yes"/>
			<point x="200.5017443936" y="116.0771702992"/>
			<point x="159" y="207.74828"/>
			<point x="159" y="353" type="curve" smooth="yes"/>
			<point x="159" y="485"/>
			<point x="197.1117299744" y="567.7980639376"/>
			<point x="245.4608240231" y="616.8138829406" type="curve" smooth="yes"/>
			<point x="291.7431674768" y="663.7344512448"/>
			<point x="347" y="680"/>
			<point x="388" y="680" type="curve" smooth="yes"/>
			<point x="429.98707" y="680"/>
			<point x="485.0172350776" y="663.4632187409"/>
			<point x="530.7217292513" y="617.5753882735" type="curve" smooth="yes"/>
			<point x="579.7199850697" y="568.3805837615"/>
			<point x="618" y="485.45184"/>
			<point x="618" y="353" type="curve" smooth="yes"/>
			<point x="618" y="208.34975"/>
			<point x="577.1805455175" y="117.6288522725"/>
			<point x="525.1416107111" y="65.0614964143" type="curve" smooth="yes"/>
			<point x="481.8449500125" y="21.32518669"/>
			<point x="430.7818" y="4"/>
		</contour>
	</outline>
</glyph>
<glyph name="P" format="2">
	<unicode hex="0050"/>
	<advance width="1360"/>
	<outline>
		<contour>
			<point x="454" y="632" type="line"/>
			<point x="792" y="632" type="line" smooth="yes"/>
			<point x="1032" y="632"/>
			<point x="1248" y="794"/>
			<point x="1248" y="994" type="curve" smooth="yes"/>
			<point x="1248" y="1190"/>
			<point x="1050" y="1366"/>
			<point x="776" y="1366" type="curve" smooth="yes"/>
			<point x="70" y="1366" type="line"/>
			<point x="70" y="1304" type="line"/>
			<point x="118" y="1304" type="line" smooth="yes"/>
			<point x="272" y="1304"/>
			<point x="276" y="1282"/>
			<point x="276" y="1210" type="curve" smooth="yes"/>
			<point x="276" y="156" type="line" smooth="yes"/>
			<point x="276" y="84"/>
			<point x="272" y="62"/>
			<point x="118" y="62" type="curve" smooth="yes"/>
			<point x="70" y="62" type="line"/>
			<point x="70" y="0" type="line"/>
			<point x="140" y="6"/>
			<point x="288" y="6"/>
			<point x="364" y="6" type="curve" smooth="yes"/>
			<point x="440" y="6"/>
			<point x="590" y="6"/>
			<point x="660" y="0" type="curve"/>
			<point x="660" y="62" type="line"/>
			<point x="612" y="62" type="line" smooth="yes"/>
			<point x="458" y="62"/>
			<point x="454" y="84"/>
			<point x="454" y="156" type="curve" smooth="yes"/>
		</contour>
		<contour>
			<point x="448" y="684" type="line"/>
			<point x="448" y="1224" type="line" smooth="yes"/>
			<point x="448" y="1290"/>
			<point x="452" y="1304"/>
			<point x="546" y="1304" type="curve" smooth="yes"/>
			<point x="724" y="1304" type="line" smooth="yes"/>
			<point x="1042" y="1304"/>
			<point x="1042" y="1092"/>
			<point x="1042" y="994" type="curve" smooth="yes"/>
			<point x="1042" y="900"/>
			<point x="1042" y="684"/>
			<point x="724" y="684" type="curve" smooth="yes"/>
		</contour>
	</outline>
</glyph>
<glyph name="Q" format="2">
  <advance width="777"/>
  <unicode hex="0051"/>
  <outline>
    <contour>
      <point x="518" y="7" type="curve"/>
      <point x="636" y="60"/>
      <point x="721" y="188"/>
      <point x="721" y="339" type="curve" smooth="yes"/>
      <point x="721" y="543"/>
      <point x="570" y="705"/>
      <point x="388" y="705" type="curve" smooth="yes"/>
      <point x="209" y="705"/>
      <point x="56" y="545"/>
      <point x="56" y="339" type="curve" smooth="yes"/>
      <point x="56" y="137"/>
      <point x="207" y="-22"/>
      <point x="389" y="-22" type="curve" smooth="yes"/>
      <point x="420" y="-22"/>
      <point x="455" y="-16"/>
      <point x="484" y="-7" type="curve"/>
      <point x="499" y="-102"/>
      <point x="513" y="-194"/>
      <point x="606" y="-194" type="curve" smooth="yes"/>
      <point x="708" y="-194"/>
      <point x="727" y="-61"/>
      <point x="727" y="-10" type="curve" smooth="yes"/>
      <point x="727" y="0"/>
      <point x="727" y="11"/>
      <point x="716" y="11" type="curve" smooth="yes"/>
      <point x="707" y="11"/>
      <point x="706" y="3"/>
      <point x="705" y="-7" type="curve" smooth="yes"/>
      <point x="699" y="-61"/>
      <point x="657" y="-91"/>
      <point x="614" y="-91" type="curve" smooth="yes"/>
      <point x="567" y="-91"/>
      <point x="542" y="-57"/>
    </contour>
    <contour>
      <point x="322" y="16" type="curve"/>
      <point x="268" y="36"/>
      <point x="156" y="109"/>
      <point x="156" y="339" type="curve" smooth="yes"/>
      <point x="156.0" y="477.96479999999997"/>
      <point x="195.99364185599998" y="565.7948721984"/>
      <point x="247.2762775719383" y="617.4532777846365" type="curve" smooth="yes"/>
      <point x="291.9422942208" y="662.4465814975999"/>
      <point x="345.17216" y="679.9999999999999"/>
      <point x="388" y="680" type="curve" smooth="yes"/>
      <point x="432.12918" y="680.0"/>
      <point x="484.3302057404" y="662.2005452904"/>
      <point x="528.1252320237878" y="618.7864292918559" type="curve" smooth="yes"/>
      <point x="580.5957051104" y="566.7723217916"/>
      <point x="621.0" y="477.9903"/>
      <point x="621" y="339" type="curve" smooth="yes"/>
      <point x="621" y="261"/>
      <point x="609" y="120"/>
      <point x="503" y="42" type="curve"/>
      <point x="481" y="98"/>
      <point x="449" y="148"/>
      <point x="390" y="148" type="curve" smooth="yes"/>
      <point x="339" y="148"/>
      <point x="308" y="105"/>
      <point x="308" y="64" type="curve" smooth="yes"/>
      <point x="308" y="37"/>
      <point x="321" y="18"/>
    </contour>
    <contour>
      <point x="477" y="26" type="curve"/>
      <point x="443" y="7"/>
      <point x="411" y="3"/>
      <point x="389" y="3" type="curve" smooth="yes"/>
      <point x="338" y="3"/>
      <point x="330" y="49"/>
      <point x="330" y="64" type="curve" smooth="yes"/>
      <point x="330" y="93"/>
      <point x="351" y="126"/>
      <point x="390" y="126" type="curve" smooth="yes"/>
      <point x="444" y="126"/>
      <point x="466" y="84"/>
    </contour>
  </outline>
</glyph>
<glyph name="R" format="2">
  <advance width="736"/>
  <unicode hex="0052"/>
  <outline>
    <contour>
      <point x="435" y="340" type="curve"/>
      <point x="532" y="364"/>
      <point x="610" y="425"/>
      <point x="610" y="503" type="curve" smooth="yes"/>
      <point x="610" y="599"/>
      <point x="496" y="683"/>
      <point x="349" y="683" type="curve" smooth="yes"/>
      <point x="35" y="683" type="line"/>
      <point x="35" y="652" type="line"/>
      <point x="59" y="652" type="line" smooth="yes"/>
      <point x="136" y="652"/>
      <point x="138" y="641"/>
      <point x="138" y="605" type="curve" smooth="yes"/>
      <point x="138" y="78" type="line" smooth="yes"/>
      <point x="138" y="42"/>
      <point x="136" y="31"/>
      <point x="59" y="31" type="curve" smooth="yes"/>
      <point x="35" y="31" type="line"/>
      <point x="35" y="0" type="line"/>
      <point x="71" y="3"/>
      <point x="142" y="3"/>
      <point x="181" y="3" type="curve" smooth="yes"/>
      <point x="220" y="3"/>
      <point x="291" y="3"/>
      <point x="327" y="0" type="curve"/>
      <point x="327" y="31" type="line"/>
      <point x="303" y="31" type="line" smooth="yes"/>
      <point x="226" y="31"/>
      <point x="224" y="42"/>
      <point x="224" y="78" type="curve" smooth="yes"/>
      <point x="224" y="331" type="line"/>
      <point x="339" y="331" type="line" smooth="yes"/>
      <point x="355" y="331"/>
      <point x="397" y="331"/>
      <point x="432" y="297" type="curve" smooth="yes"/>
      <point x="470" y="261"/>
      <point x="470" y="230"/>
      <point x="470" y="163" type="curve" smooth="yes"/>
      <point x="470" y="98"/>
      <point x="470" y="58"/>
      <point x="511" y="20" type="curve" smooth="yes"/>
      <point x="552" y="-16"/>
      <point x="607" y="-22"/>
      <point x="637" y="-22" type="curve" smooth="yes"/>
      <point x="715" y="-22"/>
      <point x="732" y="60"/>
      <point x="732" y="88" type="curve" smooth="yes"/>
      <point x="732" y="94"/>
      <point x="732" y="105"/>
      <point x="719" y="105" type="curve" smooth="yes"/>
      <point x="708" y="105"/>
      <point x="708" y="96"/>
      <point x="707" y="89" type="curve"/>
      <point x="701" y="18"/>
      <point x="666" y="0"/>
      <point x="641" y="0" type="curve" smooth="yes"/>
      <point x="592" y="0"/>
      <point x="584" y="51"/>
      <point x="570" y="144" type="curve" smooth="yes"/>
      <point x="566" y="171"/>
      <point x="561" y="197"/>
      <point x="557" y="224" type="curve"/>
      <point x="539" y="288"/>
      <point x="490" y="321"/>
    </contour>
    <contour>
      <point x="224" y="353" type="line"/>
      <point x="224" y="612" type="line" smooth="yes"/>
      <point x="224" y="635"/>
      <point x="224" y="647"/>
      <point x="246" y="650" type="curve"/>
      <point x="256" y="652"/>
      <point x="285" y="652"/>
      <point x="305" y="652" type="curve" smooth="yes"/>
      <point x="395" y="652"/>
      <point x="507" y="648"/>
      <point x="507" y="503" type="curve" smooth="yes"/>
      <point x="507" y="434"/>
      <point x="483" y="353"/>
      <point x="335" y="353" type="curve" smooth="yes"/>
    </contour>
  </outline>
</glyph>
<glyph name="S" format="2">
	<unicode hex="0053"/>
	<advance width="1110"/>
	<outline>
		<contour>
			<point x="870" y="304" type="curve" smooth="yes"/>
			<point x="870" y="162"/>
			<point x="770" y="18"/>
			<point x="602" y="18" type="curve" smooth="yes"/>
			<point x="336" y="18"/>
			<point x="166" y="172"/>
			<point x="162" y="434" type="curve"/>
			<point x="160" y="454"/>
			<point x="144" y="454"/>
			<point x="138" y="454" type="curve" smooth="yes"/>
			<point x="112" y="454"/>
			<point x="112" y="440"/>
			<point x="112" y="404" type="curve" smooth="yes"/>
			<point x="112" y="4" type="line" smooth="yes"/>
			<point x="112" y="-30"/>
			<point x="112" y="-44"/>
			<point x="134" y="-44" type="curve" smooth="yes"/>
			<point x="148" y="-44"/>
			<point x="150" y="-40"/>
			<point x="164" y="-18" type="curve" smooth="yes"/>
			<point x="188" y="20"/>
			<point x="212" y="58"/>
			<point x="236" y="96" type="curve"/>
			<point x="298" y="28"/>
			<point x="426" y="-44"/>
			<point x="604" y="-44" type="curve" smooth="yes"/>
			<point x="838" y="-44"/>
			<point x="998" y="152"/>
			<point x="998" y="372" type="curve" smooth="yes"/>
			<point x="998" y="493"/>
			<point x="949" y="601"/>
			<point x="874" y="677" type="curve" smooth="yes"/>
			<point x="825" y="725"/>
			<point x="764" y="760"/>
			<point x="698" y="776" type="curve" smooth="yes"/>
			<point x="612" y="796"/>
			<point x="528" y="818"/>
			<point x="442" y="838" type="curve" smooth="yes"/>
			<point x="318" y="868"/>
			<point x="240" y="976"/>
			<point x="240" y="1092" type="curve" smooth="yes"/>
			<point x="240" y="1232"/>
			<point x="348" y="1354"/>
			<point x="504" y="1354" type="curve" smooth="yes"/>
			<point x="838" y="1354"/>
			<point x="882" y="1026"/>
			<point x="894" y="936" type="curve" smooth="yes"/>
			<point x="896" y="924"/>
			<point x="896" y="912"/>
			<point x="918" y="912" type="curve" smooth="yes"/>
			<point x="944" y="912"/>
			<point x="944" y="922"/>
			<point x="944" y="960" type="curve" smooth="yes"/>
			<point x="944" y="1362" type="line" smooth="yes"/>
			<point x="944" y="1396"/>
			<point x="944" y="1410"/>
			<point x="922" y="1410" type="curve" smooth="yes"/>
			<point x="908" y="1410"/>
			<point x="906" y="1408"/>
			<point x="892" y="1384" type="curve" smooth="yes"/>
			<point x="869" y="1346"/>
			<point x="845" y="1308"/>
			<point x="822" y="1270" type="curve"/>
			<point x="762" y="1328"/>
			<point x="680" y="1410"/>
			<point x="502" y="1410" type="curve" smooth="yes"/>
			<point x="280" y="1410"/>
			<point x="112" y="1234"/>
			<point x="112" y="1022" type="curve" smooth="yes"/>
			<point x="112" y="856"/>
			<point x="218" y="710"/>
			<point x="374" y="656" type="curve" smooth="yes"/>
			<point x="396" y="648"/>
			<point x="498" y="624"/>
			<point x="638" y="590" type="curve" smooth="yes"/>
			<point x="692" y="576"/>
			<point x="752" y="562"/>
			<point x="808" y="488" type="curve" smooth="yes"/>
			<point x="850" y="436"/>
			<point x="870" y="370"/>
		</contour>
	</outline>
</glyph>
<glyph name="T" format="2">
	<unicode hex="0054"/>
	<advance width="722"/>
	<outline>
		<contour>
			<point x="666" y="677" type="line"/>
			<point x="55" y="677" type="line"/>
			<point x="36" y="452" type="line"/>
			<point x="61" y="452" type="line"/>
			<point x="75" y="613"/>
			<point x="90" y="646"/>
			<point x="241" y="646" type="curve" smooth="yes"/>
			<point x="259" y="646"/>
			<point x="285" y="646"/>
			<point x="295" y="644" type="curve" smooth="yes"/>
			<point x="316" y="640"/>
			<point x="316" y="629"/>
			<point x="316" y="606" type="curve" smooth="yes"/>
			<point x="316" y="79" type="line" smooth="yes"/>
			<point x="316" y="45"/>
			<point x="316" y="31"/>
			<point x="211" y="31" type="curve" smooth="yes"/>
			<point x="171" y="31" type="line"/>
			<point x="171" y="0" type="line"/>
			<point x="212" y="3"/>
			<point x="314" y="3"/>
			<point x="360" y="3" type="curve" smooth="yes"/>
			<point x="406" y="3"/>
			<point x="509" y="3"/>
			<point x="550" y="0" type="curve"/>
			<point x="550" y="31" type="line"/>
			<point x="510" y="31" type="line" smooth="yes"/>
			<point x="405" y="31"/>
			<point x="405" y="45"/>
			<point x="405" y="79" type="curve" smooth="yes"/>
			<point x="405" y="606" type="line" smooth="yes"/>
			<point x="405" y="626"/>
			<point x="405" y="640"/>
			<point x="423" y="644" type="curve" smooth="yes"/>
			<point x="434" y="646"/>
			<point x="461" y="646"/>
			<point x="480" y="646" type="curve" smooth="yes"/>
			<point x="631" y="646"/>
			<point x="646" y="613"/>
			<point x="660" y="452" type="curve"/>
			<point x="685" y="452" type="line"/>
		</contour>
	</outline>
</glyph>
<glyph name="U" format="2">
  <advance width="750"/>
  <unicode hex="0055"/>
  <outline>
    <contour>
      <point x="390" y="9" type="curve" smooth="yes"/>
      <point x="343" y="9"/>
      <point x="225" y="34"/>
      <point x="225" y="224" type="curve" smooth="yes"/>
      <point x="225" y="605" type="line" smooth="yes"/>
      <point x="225" y="641"/>
      <point x="227" y="652"/>
      <point x="304" y="652" type="curve" smooth="yes"/>
      <point x="328" y="652" type="line"/>
      <point x="328" y="683" type="line"/>
      <point x="293" y="680"/>
      <point x="219" y="680"/>
      <point x="181" y="680" type="curve" smooth="yes"/>
      <point x="143" y="680"/>
      <point x="68" y="680"/>
      <point x="33" y="683" type="curve"/>
      <point x="33" y="652" type="line"/>
      <point x="57" y="652" type="line" smooth="yes"/>
      <point x="134" y="652"/>
      <point x="136" y="641"/>
      <point x="136" y="605" type="curve" smooth="yes"/>
      <point x="136" y="228" type="line" smooth="yes"/>
      <point x="136" y="87"/>
      <point x="252" y="-22"/>
      <point x="388" y="-22" type="curve" smooth="yes"/>
      <point x="498" y="-22"/>
      <point x="613" y="71"/>
      <point x="613" y="231" type="curve" smooth="yes"/>
      <point x="613" y="574" type="line" smooth="yes"/>
      <point x="613" y="607"/>
      <point x="613" y="652"/>
      <point x="716" y="652" type="curve"/>
      <point x="716" y="652" type="line"/>
      <point x="716" y="683" type="line"/>
      <point x="680" y="682"/>
      <point x="632" y="680"/>
      <point x="598" y="680" type="curve" smooth="yes"/>
      <point x="563" y="680"/>
      <point x="515" y="682"/>
      <point x="479" y="683" type="curve"/>
      <point x="479" y="652" type="line"/>
      <point x="479" y="652" type="line"/>
      <point x="582" y="652"/>
      <point x="582" y="605"/>
      <point x="582" y="578" type="curve" smooth="yes"/>
      <point x="582" y="231" type="line" smooth="yes"/>
      <point x="582" y="89"/>
      <point x="485" y="9"/>
    </contour>
  </outline>
</glyph>
<glyph name="V" format="2">
	<unicode hex="0056"/>
	<advance width="1500"/>
	<outline>
		<contour>
			<point x="748" y="-44" type="curve" smooth="yes"/>
			<point x="782" y="-44"/>
			<point x="786" y="-34"/>
			<point x="796" y="-6" type="curve" smooth="yes"/>
			<point x="1242" y="1170" type="line" smooth="yes"/>
			<point x="1270" y="1244"/>
			<point x="1324" y="1302"/>
			<point x="1460" y="1304" type="curve"/>
			<point x="1460" y="1304" type="line"/>
			<point x="1460" y="1366" type="line"/>
			<point x="1398" y="1362"/>
			<point x="1318" y="1360"/>
			<point x="1266" y="1360" type="curve" smooth="yes"/>
			<point x="1206" y="1360"/>
			<point x="1090" y="1364"/>
			<point x="1038" y="1366" type="curve"/>
			<point x="1038" y="1304" type="line"/>
			<point x="1142" y="1302"/>
			<point x="1184" y="1250"/>
			<point x="1184" y="1204" type="curve" smooth="yes"/>
			<point x="1184" y="1188"/>
			<point x="1178" y="1176"/>
			<point x="1174" y="1164" type="curve" smooth="yes"/>
			<point x="808" y="200" type="line"/>
			<point x="426" y="1210" type="line" smooth="yes"/>
			<point x="414" y="1238"/>
			<point x="414" y="1242"/>
			<point x="414" y="1246" type="curve" smooth="yes"/>
			<point x="414" y="1304"/>
			<point x="528" y="1304"/>
			<point x="578" y="1304" type="curve"/>
			<point x="578" y="1366" type="line"/>
			<point x="506" y="1360"/>
			<point x="368" y="1360"/>
			<point x="292" y="1360" type="curve" smooth="yes"/>
			<point x="196" y="1360"/>
			<point x="110" y="1364"/>
			<point x="38" y="1366" type="curve"/>
			<point x="38" y="1304" type="line"/>
			<point x="38" y="1304" type="line"/>
			<point x="168" y="1304"/>
			<point x="206" y="1304"/>
			<point x="234" y="1228" type="curve" smooth="yes"/>
			<point x="698" y="0" type="line" smooth="yes"/>
			<point x="712" y="-38"/>
			<point x="722" y="-44"/>
		</contour>
	</outline>
</glyph>
<glyph name="X" format="2">
	<unicode hex="0058"/>
	<advance width="1500"/>
	<outline>
		<contour>
			<point x="804" y="772" type="line"/>
			<point x="1078" y="1174" type="line" smooth="yes"/>
			<point x="1122" y="1238"/>
			<point x="1190" y="1302"/>
			<point x="1368" y="1304" type="curve"/>
			<point x="1368" y="1304" type="line"/>
			<point x="1368" y="1366" type="line"/>
			<point x="1290" y="1364"/>
			<point x="1196" y="1360"/>
			<point x="1146" y="1360" type="curve" smooth="yes"/>
			<point x="1066" y="1360"/>
			<point x="970" y="1360"/>
			<point x="890" y="1366" type="curve"/>
			<point x="890" y="1304" type="line"/>
			<point x="970" y="1302"/>
			<point x="1014" y="1258"/>
			<point x="1014" y="1212" type="curve" smooth="yes"/>
			<point x="1014" y="1194"/>
			<point x="1010" y="1188"/>
			<point x="996" y="1166" type="curve" smooth="yes"/>
			<point x="768" y="828" type="line"/>
			<point x="510" y="1214" type="line" smooth="yes"/>
			<point x="506" y="1220"/>
			<point x="496" y="1236"/>
			<point x="496" y="1244" type="curve" smooth="yes"/>
			<point x="496" y="1268"/>
			<point x="540" y="1302"/>
			<point x="626" y="1304" type="curve"/>
			<point x="626" y="1366" type="line"/>
			<point x="556" y="1360"/>
			<point x="410" y="1360"/>
			<point x="334" y="1360" type="curve" smooth="yes"/>
			<point x="272" y="1360"/>
			<point x="148" y="1362"/>
			<point x="74" y="1366" type="curve"/>
			<point x="74" y="1304" type="line"/>
			<point x="112" y="1304" type="line" smooth="yes"/>
			<point x="222" y="1304"/>
			<point x="260" y="1290"/>
			<point x="298" y="1234" type="curve" smooth="yes"/>
			<point x="666" y="678" type="line"/>
			<point x="338" y="194" type="line" smooth="yes"/>
			<point x="310" y="154"/>
			<point x="250" y="62"/>
			<point x="48" y="62" type="curve"/>
			<point x="48" y="62" type="line"/>
			<point x="48" y="0" type="line"/>
			<point x="120" y="2"/>
			<point x="204" y="6"/>
			<point x="270" y="6" type="curve" smooth="yes"/>
			<point x="344" y="6"/>
			<point x="454" y="6"/>
			<point x="526" y="0" type="curve"/>
			<point x="526" y="62" type="line"/>
			<point x="434" y="64"/>
			<point x="400" y="118"/>
			<point x="400" y="154" type="curve" smooth="yes"/>
			<point x="400" y="172"/>
			<point x="406" y="180"/>
			<point x="420" y="202" type="curve" smooth="yes"/>
			<point x="704" y="622" type="line"/>
			<point x="1020" y="144" type="line" smooth="yes"/>
			<point x="1026" y="134"/>
			<point x="1030" y="128"/>
			<point x="1030" y="122" type="curve" smooth="yes"/>
			<point x="1030" y="98"/>
			<point x="986" y="64"/>
			<point x="900" y="62" type="curve"/>
			<point x="900" y="0" type="line"/>
			<point x="970" y="6"/>
			<point x="1116" y="6"/>
			<point x="1192" y="6" type="curve" smooth="yes"/>
			<point x="1276" y="6"/>
			<point x="1368" y="4"/>
			<point x="1452" y="0" type="curve"/>
			<point x="1452" y="62" type="line"/>
			<point x="1414" y="62" type="line" smooth="yes"/>
			<point x="1310" y="62"/>
			<point x="1268" y="72"/>
			<point x="1226" y="134" type="curve" smooth="yes"/>
		</contour>
	</outline>
</glyph>
<glyph name="bracketleft" format="2">
	<unicode hex="005B"/>
	<advance width="554"/>
	<outline>
		<contour>
			<point x="510" y="1420" type="line"/>
			<point x="510" y="1500" type="line"/>
			<point x="236" y="1500" type="line"/>
			<point x="236" y="-500" type="line"/>
			<point x="510" y="-500" type="line"/>
			<point x="510" y="-420" type="line"/>
			<point x="316" y="-420" type="line"/>
			<point x="316" y="1420" type="line"/>
		</contour>
	</outline>
</glyph>
<glyph name="bracketright" format="2">
	<unicode hex="005D"/>
	<advance width="554"/>
	<outline>
		<contour>
			<point x="318" y="1500" type="line"/>
			<point x="44" y="1500" type="line"/>
			<point x="44" y="1420" type="line"/>
			<point x="238" y="1420" type="line"/>
			<point x="238" y="-420" type="line"/>
			<point x="44" y="-420" type="line"/>
			<point x="44" y="-500" type="line"/>
			<point x="318" y="-500" type="line"/>
		</contour>
	</outline>
</glyph>
<glyph name="grave" format="2">
	<unicode hex="0060"/>
	<advance width="500"/>
	<outline>
		<contour>
			<point x="275" y="510" type="line"/>
			<point x="293" y="527" type="line"/>
			<point x="173" y="681" type="line" smooth="yes"/>
			<point x="170" y="685"/>
			<point x="159" y="698"/>
			<point x="143" y="698" type="curve" smooth="yes"/>
			<point x="125" y="698"/>
			<point x="107" y="680"/>
			<point x="107" y="662" type="curve" smooth="yes"/>
			<point x="107" y="650"/>
			<point x="114" y="640"/>
			<point x="124" y="632" type="curve" smooth="yes"/>
		</contour>
	</outline>
</glyph>
<glyph name="a" format="2">
  <advance width="500"/>
  <unicode hex="0061"/>
  <outline>
    <contour>
      <point x="333" y="76" type="curve"/>
      <point x="337" y="36"/>
      <point x="364" y="-6"/>
      <point x="411" y="-6" type="curve" smooth="yes"/>
      <point x="432" y="-6"/>
      <point x="493" y="8"/>
      <point x="493" y="89" type="curve" smooth="yes"/>
      <point x="493" y="145" type="line"/>
      <point x="468" y="145" type="line"/>
      <point x="468" y="89" type="line" smooth="yes"/>
      <point x="468" y="31"/>
      <point x="443" y="25"/>
      <point x="432" y="25" type="curve" smooth="yes"/>
      <point x="399" y="25"/>
      <point x="395" y="70"/>
      <point x="395" y="75" type="curve" smooth="yes"/>
      <point x="395" y="275" type="line" smooth="yes"/>
      <point x="395" y="317"/>
      <point x="395" y="356"/>
      <point x="359" y="393" type="curve" smooth="yes"/>
      <point x="320" y="432"/>
      <point x="270" y="448"/>
      <point x="222" y="448" type="curve" smooth="yes"/>
      <point x="140" y="448"/>
      <point x="71" y="401"/>
      <point x="71" y="335" type="curve" smooth="yes"/>
      <point x="71" y="305"/>
      <point x="91" y="288"/>
      <point x="117" y="288" type="curve" smooth="yes"/>
      <point x="145" y="288"/>
      <point x="163" y="308"/>
      <point x="163" y="334" type="curve" smooth="yes"/>
      <point x="163" y="346"/>
      <point x="158" y="379"/>
      <point x="112" y="380" type="curve"/>
      <point x="139" y="415"/>
      <point x="188" y="426"/>
      <point x="220" y="426" type="curve" smooth="yes"/>
      <point x="269" y="426"/>
      <point x="326" y="387"/>
      <point x="326" y="298" type="curve" smooth="yes"/>
      <point x="326" y="261" type="line"/>
      <point x="275" y="258"/>
      <point x="205" y="255"/>
      <point x="142" y="225" type="curve" smooth="yes"/>
      <point x="67" y="191"/>
      <point x="42" y="139"/>
      <point x="42" y="95" type="curve" smooth="yes"/>
      <point x="42" y="14"/>
      <point x="139" y="-11"/>
      <point x="202" y="-11" type="curve" smooth="yes"/>
      <point x="268" y="-11"/>
      <point x="314" y="29"/>
    </contour>
    <contour>
      <point x="326" y="140" type="line" smooth="yes"/>
      <point x="326" y="45"/>
      <point x="254" y="11"/>
      <point x="209" y="11" type="curve" smooth="yes"/>
      <point x="160" y="11"/>
      <point x="119" y="46"/>
      <point x="119" y="96" type="curve" smooth="yes"/>
      <point x="119" y="151"/>
      <point x="161" y="234"/>
      <point x="326" y="240" type="curve"/>
    </contour>
  </outline>
</glyph>
<glyph name="b" format="2">
  <advance width="555"/>
  <unicode hex="0062"/>
  <outline>
    <contour>
      <point x="106" y="0" type="line"/>
      <point x="131" y="0" type="line"/>
      <point x="142.988" y="20.646"/>
      <point x="154.976" y="41.292"/>
      <point x="167" y="62" type="curve"/>
      <point x="182" y="39"/>
      <point x="224" y="-11"/>
      <point x="298" y="-11" type="curve" smooth="yes"/>
      <point x="417" y="-11"/>
      <point x="521" y="87"/>
      <point x="521" y="216" type="curve" smooth="yes"/>
      <point x="521" y="343"/>
      <point x="423" y="442"/>
      <point x="309" y="442" type="curve" smooth="yes"/>
      <point x="231" y="442"/>
      <point x="188" y="395"/>
      <point x="172" y="377" type="curve"/>
      <point x="172" y="694" type="line"/>
      <point x="28" y="683" type="line"/>
      <point x="28" y="652" type="line"/>
      <point x="98" y="652"/>
      <point x="106" y="645"/>
      <point x="106" y="596" type="curve" smooth="yes"/>
    </contour>
    <contour>
      <point x="294" y="11" type="curve" smooth="yes"/>
      <point x="249" y="11"/>
      <point x="213" y="35"/>
      <point x="189" y="72" type="curve" smooth="yes"/>
      <point x="175" y="93"/>
      <point x="175" y="96"/>
      <point x="175" y="114" type="curve" smooth="yes"/>
      <point x="175" y="320" type="line" smooth="yes"/>
      <point x="175" y="339"/>
      <point x="175" y="340"/>
      <point x="186" y="356" type="curve" smooth="yes"/>
      <point x="225" y="412"/>
      <point x="280" y="420"/>
      <point x="304" y="420" type="curve" smooth="yes"/>
      <point x="349" y="420"/>
      <point x="385" y="394"/>
      <point x="409" y="356" type="curve" smooth="yes"/>
      <point x="435" y="315"/>
      <point x="438" y="258"/>
      <point x="438" y="217" type="curve" smooth="yes"/>
      <point x="438" y="180"/>
      <point x="436" y="120"/>
      <point x="407" y="75" type="curve" smooth="yes"/>
      <point x="386" y="44"/>
      <point x="348" y="11"/>
    </contour>
  </outline>
</glyph>
<glyph name="c" format="2">
  <advance width="444"/>
  <unicode hex="0063"/>
  <outline>
    <contour>
      <point x="117" y="218" type="curve" smooth="yes"/>
      <point x="117" y="381"/>
      <point x="199" y="423"/>
      <point x="252" y="423" type="curve" smooth="yes"/>
      <point x="261" y="423"/>
      <point x="324" y="422"/>
      <point x="359" y="386" type="curve"/>
      <point x="318" y="383"/>
      <point x="312" y="353"/>
      <point x="312" y="340" type="curve" smooth="yes"/>
      <point x="312" y="314"/>
      <point x="330" y="294"/>
      <point x="358" y="294" type="curve" smooth="yes"/>
      <point x="384" y="294"/>
      <point x="404" y="311"/>
      <point x="404" y="341" type="curve" smooth="yes"/>
      <point x="404" y="409"/>
      <point x="328" y="448"/>
      <point x="251" y="448" type="curve" smooth="yes"/>
      <point x="126" y="448"/>
      <point x="34" y="340"/>
      <point x="34" y="216" type="curve" smooth="yes"/>
      <point x="34" y="88"/>
      <point x="133" y="-11"/>
      <point x="249" y="-11" type="curve" smooth="yes"/>
      <point x="383" y="-11"/>
      <point x="415" y="109"/>
      <point x="415" y="119" type="curve" smooth="yes"/>
      <point x="415" y="129"/>
      <point x="405" y="129"/>
      <point x="402" y="129" type="curve" smooth="yes"/>
      <point x="393" y="129"/>
      <point x="391" y="125"/>
      <point x="389" y="119" type="curve" smooth="yes"/>
      <point x="360" y="26"/>
      <point x="295" y="14"/>
      <point x="258" y="14" type="curve" smooth="yes"/>
      <point x="205" y="14"/>
      <point x="117" y="57"/>
    </contour>
  </outline>
</glyph>
<glyph name="e" format="2">
  <advance width="444"/>
  <unicode hex="0065"/>
  <outline>
    <contour>
      <point x="111" y="231" type="curve"/>
      <point x="390" y="231" type="line" smooth="yes"/>
      <point x="412" y="231"/>
      <point x="415" y="231"/>
      <point x="415" y="252" type="curve" smooth="yes"/>
      <point x="415" y="351"/>
      <point x="361" y="448"/>
      <point x="236" y="448" type="curve" smooth="yes"/>
      <point x="120" y="448"/>
      <point x="28" y="345"/>
      <point x="28" y="220" type="curve" smooth="yes"/>
      <point x="28" y="86"/>
      <point x="133" y="-11"/>
      <point x="248" y="-11" type="curve" smooth="yes"/>
      <point x="370" y="-11"/>
      <point x="415" y="100"/>
      <point x="415" y="119" type="curve" smooth="yes"/>
      <point x="415" y="129"/>
      <point x="407" y="131"/>
      <point x="402" y="131" type="curve" smooth="yes"/>
      <point x="393" y="131"/>
      <point x="391" y="125"/>
      <point x="389" y="117" type="curve"/>
      <point x="354" y="14"/>
      <point x="264" y="14"/>
      <point x="254" y="14" type="curve" smooth="yes"/>
      <point x="204" y="14"/>
      <point x="164" y="44"/>
      <point x="141" y="81" type="curve" smooth="yes"/>
      <point x="111" y="129"/>
      <point x="111" y="195"/>
    </contour>
    <contour>
      <point x="112" y="252" type="line"/>
      <point x="118" y="401"/>
      <point x="202" y="426"/>
      <point x="236" y="426" type="curve" smooth="yes"/>
      <point x="339" y="426"/>
      <point x="349" y="291"/>
      <point x="349" y="252" type="curve"/>
    </contour>
  </outline>
</glyph>
<glyph name="f" format="2">
	<unicode hex="0066"/>
	<advance width="610"/>
	<outline>
		<contour>
			<point x="224" y="152" type="line" smooth="yes"/>
			<point x="224" y="62"/>
			<point x="202" y="62"/>
			<point x="68" y="62" type="curve"/>
			<point x="68" y="62" type="line"/>
			<point x="68" y="0" type="line"/>
			<point x="146" y="2"/>
			<point x="240" y="6"/>
			<point x="296" y="6" type="curve" smooth="yes"/>
			<point x="376" y="6"/>
			<point x="470" y="6"/>
			<point x="550" y="0" type="curve"/>
			<point x="550" y="62" type="line"/>
			<point x="508" y="62" type="line" smooth="yes"/>
			<point x="360" y="62"/>
			<point x="356" y="84"/>
			<point x="356" y="156" type="curve" smooth="yes"/>
			<point x="356" y="800" type="line"/>
			<point x="584" y="800" type="line"/>
			<point x="584" y="862" type="line"/>
			<point x="350" y="862" type="line"/>
			<point x="350" y="1094" type="line" smooth="yes"/>
			<point x="350" y="1270"/>
			<point x="446" y="1366"/>
			<point x="534" y="1366" type="curve" smooth="yes"/>
			<point x="540" y="1366"/>
			<point x="570" y="1366"/>
			<point x="600" y="1352" type="curve"/>
			<point x="576" y="1344"/>
			<point x="540" y="1318"/>
			<point x="540" y="1268" type="curve" smooth="yes"/>
			<point x="540" y="1222"/>
			<point x="572" y="1182"/>
			<point x="626" y="1182" type="curve" smooth="yes"/>
			<point x="684" y="1182"/>
			<point x="714" y="1222"/>
			<point x="714" y="1270" type="curve" smooth="yes"/>
			<point x="714" y="1344"/>
			<point x="640" y="1410"/>
			<point x="534" y="1410" type="curve" smooth="yes"/>
			<point x="394" y="1410"/>
			<point x="224" y="1304"/>
			<point x="224" y="1092" type="curve" smooth="yes"/>
			<point x="224" y="862" type="line"/>
			<point x="66" y="862" type="line"/>
			<point x="66" y="800" type="line"/>
			<point x="224" y="800" type="line"/>
		</contour>
	</outline>
</glyph>
<glyph name="g" format="2">
  <advance width="500"/>
  <unicode hex="0067"/>
  <outline>
    <contour>
      <point x="249" y="-206" type="curve" smooth="yes"/>
      <point x="367" y="-206"/>
      <point x="471" y="-155"/>
      <point x="471" y="-77" type="curve" smooth="yes"/>
      <point x="471" y="-42"/>
      <point x="457" y="9"/>
      <point x="406" y="37" type="curve" smooth="yes"/>
      <point x="353" y="65"/>
      <point x="295" y="65"/>
      <point x="234" y="65" type="curve" smooth="yes"/>
      <point x="209" y="65"/>
      <point x="166" y="65"/>
      <point x="159" y="66" type="curve" smooth="yes"/>
      <point x="127" y="70"/>
      <point x="106" y="101"/>
      <point x="106" y="133" type="curve" smooth="yes"/>
      <point x="106" y="137"/>
      <point x="106" y="160"/>
      <point x="123" y="180" type="curve"/>
      <point x="162" y="152"/>
      <point x="203" y="149"/>
      <point x="222" y="149" type="curve" smooth="yes"/>
      <point x="315" y="149"/>
      <point x="384" y="218"/>
      <point x="384" y="295" type="curve" smooth="yes"/>
      <point x="384" y="332"/>
      <point x="368" y="369"/>
      <point x="343" y="392" type="curve"/>
      <point x="383" y="430"/>
      <point x="426" y="433"/>
      <point x="443" y="430" type="curve"/>
      <point x="432" y="426"/>
      <point x="427" y="415"/>
      <point x="427" y="403" type="curve" smooth="yes"/>
      <point x="427" y="386"/>
      <point x="440" y="374"/>
      <point x="456" y="374" type="curve" smooth="yes"/>
      <point x="466" y="374"/>
      <point x="485" y="381"/>
      <point x="485" y="404" type="curve" smooth="yes"/>
      <point x="485" y="421"/>
      <point x="473" y="453"/>
      <point x="434" y="453" type="curve" smooth="yes"/>
      <point x="414" y="453"/>
      <point x="370" y="447"/>
      <point x="328" y="406" type="curve"/>
      <point x="286" y="439"/>
      <point x="244" y="442"/>
      <point x="222" y="442" type="curve" smooth="yes"/>
      <point x="129" y="442"/>
      <point x="60" y="373"/>
      <point x="60" y="296" type="curve" smooth="yes"/>
      <point x="60" y="252"/>
      <point x="82" y="214"/>
      <point x="107" y="193" type="curve"/>
      <point x="94" y="178"/>
      <point x="76" y="145"/>
      <point x="76" y="110" type="curve" smooth="yes"/>
      <point x="76" y="79"/>
      <point x="89" y="41"/>
      <point x="120" y="21" type="curve"/>
      <point x="60" y="4"/>
      <point x="28" y="-39"/>
      <point x="28" y="-79" type="curve" smooth="yes"/>
      <point x="28" y="-151"/>
      <point x="127" y="-206"/>
    </contour>
    <contour>
      <point x="222" y="172" type="curve" smooth="yes"/>
      <point x="135" y="172"/>
      <point x="135" y="272"/>
      <point x="135" y="295" type="curve" smooth="yes"/>
      <point x="135" y="322"/>
      <point x="136" y="354"/>
      <point x="151" y="379" type="curve" smooth="yes"/>
      <point x="159" y="391"/>
      <point x="182" y="419"/>
      <point x="222" y="419" type="curve" smooth="yes"/>
      <point x="309" y="419"/>
      <point x="309" y="319"/>
      <point x="309" y="296" type="curve" smooth="yes"/>
      <point x="309" y="269"/>
      <point x="308" y="237"/>
      <point x="293" y="212" type="curve" smooth="yes"/>
      <point x="285" y="200"/>
      <point x="262" y="172"/>
    </contour>
    <contour>
      <point x="250" y="-183" type="curve" smooth="yes"/>
      <point x="149" y="-183"/>
      <point x="80" y="-132"/>
      <point x="80" y="-79" type="curve" smooth="yes"/>
      <point x="80" y="-56"/>
      <point x="89" y="-35"/>
      <point x="105" y="-19" type="curve" smooth="yes"/>
      <point x="120" y="-5"/>
      <point x="140" y="5"/>
      <point x="162" y="7" type="curve"/>
      <point x="221" y="7" type="line" smooth="yes"/>
      <point x="307" y="7"/>
      <point x="419" y="7"/>
      <point x="419" y="-79" type="curve" smooth="yes"/>
      <point x="419" y="-133"/>
      <point x="348" y="-183"/>
    </contour>
  </outline>
</glyph>
<glyph name="h" format="2">
	<unicode hex="0068"/>
	<advance width="555"/>
	<outline>
		<contour>
			<point x="110" y="76" type="line" smooth="yes"/>
			<point x="110" y="31"/>
			<point x="99" y="31"/>
			<point x="32" y="31" type="curve"/>
			<point x="32" y="31" type="line"/>
			<point x="32" y="0" type="line"/>
			<point x="67" y="1"/>
			<point x="118" y="3"/>
			<point x="145" y="3" type="curve" smooth="yes"/>
			<point x="171" y="3"/>
			<point x="223" y="1"/>
			<point x="257" y="0" type="curve"/>
			<point x="257" y="31" type="line"/>
			<point x="257" y="31" type="line"/>
			<point x="190" y="31"/>
			<point x="179" y="31"/>
			<point x="179" y="76" type="curve" smooth="yes"/>
			<point x="179" y="260" type="line" smooth="yes"/>
			<point x="179" y="364"/>
			<point x="250" y="420"/>
			<point x="314" y="420" type="curve" smooth="yes"/>
			<point x="377" y="420"/>
			<point x="388" y="366"/>
			<point x="388" y="309" type="curve" smooth="yes"/>
			<point x="388" y="76" type="line" smooth="yes"/>
			<point x="388" y="31"/>
			<point x="377" y="31"/>
			<point x="310" y="31" type="curve"/>
			<point x="310" y="31" type="line"/>
			<point x="310" y="0" type="line"/>
			<point x="345" y="1"/>
			<point x="396" y="3"/>
			<point x="423" y="3" type="curve" smooth="yes"/>
			<point x="449" y="3"/>
			<point x="501" y="1"/>
			<point x="535" y="0" type="curve"/>
			<point x="535" y="31" type="line"/>
			<point x="535" y="31" type="line"/>
			<point x="483" y="31"/>
			<point x="458" y="31"/>
			<point x="457" y="61" type="curve" smooth="yes"/>
			<point x="457" y="252" type="line" smooth="yes"/>
			<point x="457" y="338"/>
			<point x="457" y="369"/>
			<point x="426" y="405" type="curve" smooth="yes"/>
			<point x="412" y="422"/>
			<point x="379" y="442"/>
			<point x="321" y="442" type="curve" smooth="yes"/>
			<point x="237" y="442"/>
			<point x="193" y="382"/>
			<point x="176" y="344" type="curve"/>
			<point x="176" y="344" type="line"/>
			<point x="176" y="694" type="line"/>
			<point x="32" y="683" type="line"/>
			<point x="32" y="652" type="line"/>
			<point x="102" y="652"/>
			<point x="110" y="645"/>
			<point x="110" y="596" type="curve" smooth="yes"/>
		</contour>
	</outline>
</glyph>
<glyph name="i" format="2">
	<unicode hex="0069"/>
	<advance width="554"/>
	<outline>
		<contour>
			<point x="222" y="152" type="line" smooth="yes"/>
			<point x="222" y="62"/>
			<point x="200" y="62"/>
			<point x="66" y="62" type="curve"/>
			<point x="66" y="62" type="line"/>
			<point x="66" y="0" type="line"/>
			<point x="130" y="2"/>
			<point x="238" y="6"/>
			<point x="286" y="6" type="curve" smooth="yes"/>
			<point x="356" y="6"/>
			<point x="426" y="2"/>
			<point x="494" y="0" type="curve"/>
			<point x="494" y="62" type="line"/>
			<point x="362" y="62"/>
			<point x="354" y="72"/>
			<point x="354" y="150" type="curve" smooth="yes"/>
			<point x="354" y="884" type="line"/>
			<point x="74" y="862" type="line"/>
			<point x="74" y="800" type="line"/>
			<point x="204" y="800"/>
			<point x="222" y="788"/>
			<point x="222" y="690" type="curve" smooth="yes"/>
		</contour>
		<contour>
			<point x="362" y="1232" type="curve" smooth="yes"/>
			<point x="362" y="1296"/>
			<point x="312" y="1338"/>
			<point x="256" y="1338" type="curve" smooth="yes"/>
			<point x="194" y="1338"/>
			<point x="150" y="1284"/>
			<point x="150" y="1232" type="curve" smooth="yes"/>
			<point x="150" y="1178"/>
			<point x="194" y="1126"/>
			<point x="256" y="1126" type="curve" smooth="yes"/>
			<point x="312" y="1126"/>
			<point x="362" y="1168"/>
		</contour>
	</outline>
</glyph>
<glyph name="j" format="2">
	<unicode hex="006A"/>
	<advance width="610"/>
	<outline>
		<contour>
			<point x="288" y="688" type="curve" smooth="yes"/>
			<point x="288" y="-104" type="line" smooth="yes"/>
			<point x="288" y="-194"/>
			<point x="270" y="-366"/>
			<point x="142" y="-366" type="curve" smooth="yes"/>
			<point x="132" y="-366"/>
			<point x="86" y="-366"/>
			<point x="34" y="-340" type="curve"/>
			<point x="64" y="-332"/>
			<point x="104" y="-304"/>
			<point x="104" y="-250" type="curve" smooth="yes"/>
			<point x="104" y="-198"/>
			<point x="68" y="-158"/>
			<point x="12" y="-158" type="curve" smooth="yes"/>
			<point x="-44" y="-158"/>
			<point x="-80" y="-198"/>
			<point x="-80" y="-250" type="curve" smooth="yes"/>
			<point x="-80" y="-354"/>
			<point x="32" y="-410"/>
			<point x="146" y="-410" type="curve" smooth="yes"/>
			<point x="296" y="-410"/>
			<point x="420" y="-282"/>
			<point x="420" y="-100" type="curve" smooth="yes"/>
			<point x="420" y="884" type="line"/>
			<point x="116" y="862" type="line"/>
			<point x="116" y="800" type="line"/>
			<point x="270" y="800"/>
			<point x="288" y="786"/>
		</contour>
		<contour>
			<point x="420" y="1232" type="curve" smooth="yes"/>
			<point x="420" y="1290"/>
			<point x="372" y="1338"/>
			<point x="314" y="1338" type="curve" smooth="yes"/>
			<point x="256" y="1338"/>
			<point x="208" y="1290"/>
			<point x="208" y="1232" type="curve" smooth="yes"/>
			<point x="208" y="1174"/>
			<point x="256" y="1126"/>
			<point x="314" y="1126" type="curve" smooth="yes"/>
			<point x="372" y="1126"/>
			<point x="420" y="1174"/>
		</contour>
	</outline>
</glyph>
<glyph name="l" format="2">
	<unicode hex="006C"/>
	<advance width="277"/>
	<outline>
		<contour>
			<point x="177" y="694" type="line"/>
			<point x="33" y="683" type="line"/>
			<point x="33" y="652" type="line"/>
			<point x="103" y="652"/>
			<point x="111" y="645"/>
			<point x="111" y="596" type="curve" smooth="yes"/>
			<point x="111" y="76" type="line" smooth="yes"/>
			<point x="111" y="31"/>
			<point x="100" y="31"/>
			<point x="33" y="31" type="curve"/>
			<point x="33" y="31" type="line"/>
			<point x="33" y="0" type="line"/>
			<point x="66" y="1"/>
			<point x="119" y="3"/>
			<point x="144" y="3" type="curve" smooth="yes"/>
			<point x="169" y="3"/>
			<point x="218" y="1"/>
			<point x="255" y="0" type="curve"/>
			<point x="255" y="31" type="line"/>
			<point x="255" y="31" type="line"/>
			<point x="188" y="31"/>
			<point x="177" y="31"/>
			<point x="177" y="76" type="curve" smooth="yes"/>
		</contour>
	</outline>
</glyph>
<glyph name="m" format="2">
  <advance width="833"/>
  <unicode hex="006D"/>
  <outline>
    <contour>
      <point x="110" y="76" type="line" smooth="yes"/>
      <point x="110" y="31"/>
      <point x="99" y="31"/>
      <point x="32" y="31" type="curve"/>
      <point x="32" y="31" type="line"/>
      <point x="32" y="0" type="line"/>
      <point x="67" y="1"/>
      <point x="118" y="3"/>
      <point x="145" y="3" type="curve" smooth="yes"/>
      <point x="171" y="3"/>
      <point x="223" y="1"/>
      <point x="257" y="0" type="curve"/>
      <point x="257" y="31" type="line"/>
      <point x="257" y="31" type="line"/>
      <point x="190" y="31"/>
      <point x="179" y="31"/>
      <point x="179" y="76" type="curve" smooth="yes"/>
      <point x="179" y="260" type="line" smooth="yes"/>
      <point x="179" y="364"/>
      <point x="250" y="420"/>
      <point x="314" y="420" type="curve" smooth="yes"/>
      <point x="377" y="420"/>
      <point x="388" y="366"/>
      <point x="388" y="309" type="curve" smooth="yes"/>
      <point x="388" y="76" type="line" smooth="yes"/>
      <point x="388" y="31"/>
      <point x="377" y="31"/>
      <point x="310" y="31" type="curve"/>
      <point x="310" y="31" type="line"/>
      <point x="310" y="0" type="line"/>
      <point x="345" y="1"/>
      <point x="396" y="3"/>
      <point x="423" y="3" type="curve" smooth="yes"/>
      <point x="449" y="3"/>
      <point x="501" y="1"/>
      <point x="535" y="0" type="curve"/>
      <point x="535" y="31" type="line"/>
      <point x="535" y="31" type="line"/>
      <point x="468" y="31"/>
      <point x="457" y="31"/>
      <point x="457" y="76" type="curve" smooth="yes"/>
      <point x="457" y="260" type="line" smooth="yes"/>
      <point x="457" y="364"/>
      <point x="528" y="420"/>
      <point x="592" y="420" type="curve" smooth="yes"/>
      <point x="655" y="420"/>
      <point x="666" y="366"/>
      <point x="666" y="309" type="curve" smooth="yes"/>
      <point x="666" y="76" type="line" smooth="yes"/>
      <point x="666" y="31"/>
      <point x="655" y="31"/>
      <point x="588" y="31" type="curve"/>
      <point x="588" y="31" type="line"/>
      <point x="588" y="0" type="line"/>
      <point x="623" y="1"/>
      <point x="674" y="3"/>
      <point x="701" y="3" type="curve" smooth="yes"/>
      <point x="727" y="3"/>
      <point x="779" y="1"/>
      <point x="813" y="0" type="curve"/>
      <point x="813" y="31" type="line"/>
      <point x="813" y="31" type="line"/>
      <point x="761" y="31"/>
      <point x="736" y="31"/>
      <point x="735" y="61" type="curve" smooth="yes"/>
      <point x="735" y="252" type="line" smooth="yes"/>
      <point x="735" y="338"/>
      <point x="735" y="369"/>
      <point x="704" y="405" type="curve" smooth="yes"/>
      <point x="690" y="422"/>
      <point x="657" y="442"/>
      <point x="599" y="442" type="curve" smooth="yes"/>
      <point x="515" y="442"/>
      <point x="471" y="382"/>
      <point x="454" y="344" type="curve"/>
      <point x="440" y="431"/>
      <point x="366" y="442"/>
      <point x="321" y="442" type="curve" smooth="yes"/>
      <point x="248" y="442"/>
      <point x="201" y="399"/>
      <point x="173" y="337" type="curve"/>
      <point x="173" y="337" type="line"/>
      <point x="173" y="442" type="line"/>
      <point x="32" y="431" type="line"/>
      <point x="32" y="400" type="line"/>
      <point x="102" y="400"/>
      <point x="110" y="393"/>
      <point x="110" y="344" type="curve" smooth="yes"/>
    </contour>
  </outline>
</glyph>
<glyph name="o" format="2">
  <advance width="500"/>
  <unicode hex="006F"/>
  <outline>
    <contour>
      <point x="471" y="214" type="curve" smooth="yes"/>
      <point x="471" y="342"/>
      <point x="371" y="448"/>
      <point x="250" y="448" type="curve" smooth="yes"/>
      <point x="125" y="448"/>
      <point x="28" y="339"/>
      <point x="28" y="214" type="curve" smooth="yes"/>
      <point x="28" y="85"/>
      <point x="132" y="-11"/>
      <point x="249" y="-11" type="curve" smooth="yes"/>
      <point x="370" y="-11"/>
      <point x="471" y="87"/>
    </contour>
    <contour>
      <point x="250" y="14" type="curve" smooth="yes"/>
      <point x="207" y="14"/>
      <point x="163" y="35"/>
      <point x="136" y="81" type="curve" smooth="yes"/>
      <point x="111" y="125"/>
      <point x="111" y="186"/>
      <point x="111" y="222" type="curve" smooth="yes"/>
      <point x="111" y="261"/>
      <point x="111" y="315"/>
      <point x="135" y="359" type="curve" smooth="yes"/>
      <point x="162" y="405"/>
      <point x="209" y="426"/>
      <point x="249" y="426" type="curve" smooth="yes"/>
      <point x="293" y="426"/>
      <point x="336" y="404"/>
      <point x="362" y="361" type="curve" smooth="yes"/>
      <point x="388" y="318"/>
      <point x="388" y="260"/>
      <point x="388" y="222" type="curve" smooth="yes"/>
      <point x="388" y="186"/>
      <point x="388" y="132"/>
      <point x="366" y="88" type="curve" smooth="yes"/>
      <point x="344" y="43"/>
      <point x="300" y="14"/>
    </contour>
  </outline>
</glyph>
<glyph name="p" format="2">
  <advance width="555"/>
  <unicode hex="0070"/>
  <outline>
    <contour>
      <point x="28" y="400" type="line"/>
      <point x="28" y="400" type="line"/>
      <point x="99" y="400"/>
      <point x="106" y="394"/>
      <point x="106" y="350" type="curve" smooth="yes"/>
      <point x="106" y="-118" type="line" smooth="yes"/>
      <point x="106" y="-163"/>
      <point x="95" y="-163"/>
      <point x="28" y="-163" type="curve"/>
      <point x="28" y="-163" type="line"/>
      <point x="28" y="-194" type="line"/>
      <point x="62" y="-193"/>
      <point x="114" y="-191"/>
      <point x="140" y="-191" type="curve" smooth="yes"/>
      <point x="167" y="-191"/>
      <point x="218" y="-193"/>
      <point x="253" y="-194" type="curve"/>
      <point x="253" y="-163" type="line"/>
      <point x="186" y="-163"/>
      <point x="175" y="-163"/>
      <point x="175" y="-118" type="curve" smooth="yes"/>
      <point x="175" y="59" type="line"/>
      <point x="180" y="43"/>
      <point x="222" y="-11"/>
      <point x="298" y="-11" type="curve" smooth="yes"/>
      <point x="417" y="-11"/>
      <point x="521" y="87"/>
      <point x="521" y="216" type="curve" smooth="yes"/>
      <point x="521" y="343"/>
      <point x="424" y="442"/>
      <point x="312" y="442" type="curve" smooth="yes"/>
      <point x="234" y="442"/>
      <point x="192" y="398"/>
      <point x="172" y="376" type="curve"/>
      <point x="172" y="442" type="line"/>
      <point x="28" y="431" type="line"/>
    </contour>
    <contour>
      <point x="438" y="216" type="curve" smooth="yes"/>
      <point x="438" y="95"/>
      <point x="368" y="11"/>
      <point x="294" y="11" type="curve" smooth="yes"/>
      <point x="254" y="11"/>
      <point x="216" y="31"/>
      <point x="189" y="72" type="curve" smooth="yes"/>
      <point x="175" y="93"/>
      <point x="174" y="94"/>
      <point x="175" y="114" type="curve" smooth="yes"/>
      <point x="175" y="337" type="line"/>
      <point x="175" y="337"/>
      <point x="175" y="337"/>
      <point x="175" y="337" type="curve"/>
      <point x="204" y="388"/>
      <point x="253" y="417"/>
      <point x="304" y="417" type="curve" smooth="yes"/>
      <point x="377" y="417"/>
      <point x="438" y="329"/>
    </contour>
  </outline>
</glyph>
<glyph name="q" format="2">
  <advance width="527"/>
  <unicode hex="0071"/>
  <outline>
    <contour>
      <point x="34" y="215" type="curve" smooth="yes"/>
      <point x="34" y="90"/>
      <point x="131" y="-11"/>
      <point x="247" y="-11" type="curve" smooth="yes"/>
      <point x="317" y="-11"/>
      <point x="358" y="32"/>
      <point x="380" y="61" type="curve"/>
      <point x="380" y="-118" type="line" smooth="yes"/>
      <point x="380" y="-163"/>
      <point x="369" y="-163"/>
      <point x="302" y="-163" type="curve"/>
      <point x="302" y="-163" type="line"/>
      <point x="302" y="-194" type="line"/>
      <point x="336" y="-193"/>
      <point x="388" y="-191"/>
      <point x="414" y="-191" type="curve" smooth="yes"/>
      <point x="441" y="-191"/>
      <point x="492" y="-193"/>
      <point x="527" y="-194" type="curve"/>
      <point x="527" y="-163" type="line"/>
      <point x="527" y="-163" type="line"/>
      <point x="460" y="-163"/>
      <point x="449" y="-163"/>
      <point x="449" y="-118" type="curve" smooth="yes"/>
      <point x="449" y="442" type="line"/>
      <point x="427" y="442" type="line"/>
      <point x="389" y="351" type="line"/>
      <point x="376" y="379"/>
      <point x="335" y="442"/>
      <point x="255" y="442" type="curve" smooth="yes"/>
      <point x="139" y="442"/>
      <point x="34" y="345"/>
    </contour>
    <contour>
      <point x="117" y="215" type="curve" smooth="yes"/>
      <point x="117" y="334"/>
      <point x="187" y="417"/>
      <point x="261" y="417" type="curve" smooth="yes"/>
      <point x="341" y="417"/>
      <point x="383" y="330"/>
      <point x="383" y="277" type="curve" smooth="yes"/>
      <point x="383" y="136" type="line" smooth="yes"/>
      <point x="383" y="104"/>
      <point x="365" y="76"/>
      <point x="343" y="52" type="curve" smooth="yes"/>
      <point x="330" y="38"/>
      <point x="298" y="11"/>
      <point x="251" y="11" type="curve" smooth="yes"/>
      <point x="178" y="11"/>
      <point x="117" y="100"/>
    </contour>
  </outline>
</glyph>
<glyph name="s" format="2">
  <advance width="394"/>
  <unicode hex="0073"/>
  <outline>
    <contour>
      <point x="360" y="128" type="curve" smooth="yes"/>
      <point x="360" y="181"/>
      <point x="330" y="211"/>
      <point x="318" y="223" type="curve" smooth="yes"/>
      <point x="285" y="255"/>
      <point x="246" y="263"/>
      <point x="204" y="271" type="curve" smooth="yes"/>
      <point x="148" y="282"/>
      <point x="81" y="295"/>
      <point x="81" y="353" type="curve" smooth="yes"/>
      <point x="81" y="388"/>
      <point x="107" y="429"/>
      <point x="193" y="429" type="curve" smooth="yes"/>
      <point x="303" y="429"/>
      <point x="308" y="339"/>
      <point x="310" y="308" type="curve" smooth="yes"/>
      <point x="311" y="299"/>
      <point x="320" y="299"/>
      <point x="322" y="299" type="curve" smooth="yes"/>
      <point x="335" y="299"/>
      <point x="335" y="304"/>
      <point x="335" y="323" type="curve" smooth="yes"/>
      <point x="335" y="424" type="line" smooth="yes"/>
      <point x="335" y="441"/>
      <point x="335" y="448"/>
      <point x="324" y="448" type="curve" smooth="yes"/>
      <point x="319" y="448"/>
      <point x="317" y="448"/>
      <point x="304" y="436" type="curve"/>
      <point x="301" y="432"/>
      <point x="291" y="423"/>
      <point x="287" y="420" type="curve"/>
      <point x="249" y="448"/>
      <point x="208" y="448"/>
      <point x="193" y="448" type="curve" smooth="yes"/>
      <point x="71" y="448"/>
      <point x="33" y="381"/>
      <point x="33" y="325" type="curve" smooth="yes"/>
      <point x="33" y="290"/>
      <point x="49" y="262"/>
      <point x="76" y="240" type="curve" smooth="yes"/>
      <point x="108" y="214"/>
      <point x="136" y="208"/>
      <point x="208" y="194" type="curve" smooth="yes"/>
      <point x="222.59612" y="191.34616"/>
      <point x="263.60299029600003" y="183.4101699408"/>
      <point x="289.5507500950575" y="157.34221380205162" type="curve" smooth="yes"/>
      <point x="302.7127479288" y="144.1192463904"/>
      <point x="312.0" y="126.23088000000001"/>
      <point x="312" y="102" type="curve" smooth="yes"/>
      <point x="312" y="51"/>
      <point x="277" y="11"/>
      <point x="199" y="11" type="curve" smooth="yes"/>
      <point x="115" y="11"/>
      <point x="79" y="68"/>
      <point x="60" y="153" type="curve" smooth="yes"/>
      <point x="57" y="166"/>
      <point x="56" y="170"/>
      <point x="46" y="170" type="curve" smooth="yes"/>
      <point x="33" y="170"/>
      <point x="33" y="163"/>
      <point x="33" y="145" type="curve" smooth="yes"/>
      <point x="33" y="13" type="line" smooth="yes"/>
      <point x="33" y="-4"/>
      <point x="33" y="-11"/>
      <point x="44" y="-11" type="curve" smooth="yes"/>
      <point x="49" y="-11"/>
      <point x="54" y="-9"/>
      <point x="77" y="18" type="curve" smooth="yes"/>
      <point x="80.996" y="22.662"/>
      <point x="84.992" y="27.323999999999998"/>
      <point x="89" y="32" type="curve"/>
      <point x="133" y="-10"/>
      <point x="178" y="-11"/>
      <point x="199" y="-11" type="curve" smooth="yes"/>
      <point x="314" y="-11"/>
      <point x="360" y="56"/>
    </contour>
  </outline>
</glyph>
<glyph name="t" format="2">
	<unicode hex="0074"/>
	<advance width="776"/>
	<outline>
		<contour>
			<point x="346" y="800" type="line"/>
			<point x="632" y="800" type="line"/>
			<point x="632" y="862" type="line"/>
			<point x="346" y="862" type="line"/>
			<point x="346" y="1230" type="line"/>
			<point x="296" y="1230" type="line"/>
			<point x="294" y="1066"/>
			<point x="234" y="852"/>
			<point x="38" y="844" type="curve"/>
			<point x="38" y="800" type="line"/>
			<point x="208" y="800" type="line"/>
			<point x="208" y="248" type="line" smooth="yes"/>
			<point x="208" y="2"/>
			<point x="394" y="-22"/>
			<point x="466" y="-22" type="curve" smooth="yes"/>
			<point x="608" y="-22"/>
			<point x="664" y="120"/>
			<point x="664" y="248" type="curve" smooth="yes"/>
			<point x="664" y="362" type="line"/>
			<point x="614" y="362" type="line"/>
			<point x="614" y="252" type="line" smooth="yes"/>
			<point x="614" y="104"/>
			<point x="554" y="28"/>
			<point x="480" y="28" type="curve" smooth="yes"/>
			<point x="346" y="28"/>
			<point x="346" y="210"/>
			<point x="346" y="244" type="curve" smooth="yes"/>
		</contour>
	</outline>
</glyph>
<glyph name="u" format="2">
	<unicode hex="0075"/>
	<advance width="555"/>
	<outline>
		<contour>
			<point x="110" y="308" type="curve" smooth="yes"/>
			<point x="110" y="158" type="line" smooth="yes"/>
			<point x="110" y="110.78972"/>
			<point x="110" y="58.8170243212"/>
			<point x="143.7030735762" y="25.1419106736" type="curve" smooth="yes"/>
			<point x="165.6836294752" y="3.1795897516"/>
			<point x="201.99952" y="-11"/>
			<point x="262" y="-11" type="curve" smooth="yes"/>
			<point x="318" y="-11"/>
			<point x="362" y="17"/>
			<point x="391" y="79" type="curve"/>
			<point x="391" y="79" type="line"/>
			<point x="391" y="-11" type="line"/>
			<point x="535" y="0" type="line"/>
			<point x="535" y="31" type="line"/>
			<point x="465" y="31"/>
			<point x="457" y="38"/>
			<point x="457" y="87" type="curve" smooth="yes"/>
			<point x="457" y="442" type="line"/>
			<point x="310" y="431" type="line"/>
			<point x="310" y="400" type="line"/>
			<point x="380" y="400"/>
			<point x="388" y="393"/>
			<point x="388" y="344" type="curve" smooth="yes"/>
			<point x="388" y="166" type="line" smooth="yes"/>
			<point x="388" y="79"/>
			<point x="340" y="11"/>
			<point x="267" y="11" type="curve" smooth="yes"/>
			<point x="183" y="11"/>
			<point x="179" y="58"/>
			<point x="179" y="110" type="curve" smooth="yes"/>
			<point x="179" y="442" type="line"/>
			<point x="32" y="431" type="line"/>
			<point x="32" y="400" type="line"/>
			<point x="110" y="400"/>
			<point x="110" y="397"/>
		</contour>
	</outline>
</glyph>
<glyph name="v" format="2">
	<unicode hex="0076"/>
	<advance width="1054"/>
	<outline>
		<contour>
			<point x="528" y="-22" type="curve" smooth="yes"/>
			<point x="554" y="-22"/>
			<point x="562" y="-4"/>
			<point x="570" y="16" type="curve" smooth="yes"/>
			<point x="657" y="232"/>
			<point x="744" y="449"/>
			<point x="832" y="666" type="curve" smooth="yes"/>
			<point x="850" y="712"/>
			<point x="884" y="798"/>
			<point x="1016" y="800" type="curve"/>
			<point x="1016" y="821"/>
			<point x="1016" y="841"/>
			<point x="1016" y="862" type="curve"/>
			<point x="970" y="858"/>
			<point x="912" y="856"/>
			<point x="866" y="856" type="curve" smooth="yes"/>
			<point x="818" y="856"/>
			<point x="726" y="860"/>
			<point x="692" y="862" type="curve"/>
			<point x="692" y="841"/>
			<point x="692" y="821"/>
			<point x="692" y="800" type="curve"/>
			<point x="766" y="798"/>
			<point x="788" y="752"/>
			<point x="788" y="714" type="curve" smooth="yes"/>
			<point x="788" y="696"/>
			<point x="784" y="688"/>
			<point x="776" y="666" type="curve" smooth="yes"/>
			<point x="708" y="496"/>
			<point x="640" y="326"/>
			<point x="572" y="156" type="curve"/>
			<point x="497" y="342"/>
			<point x="423" y="528"/>
			<point x="348" y="714" type="curve"/>
			<point x="336" y="740"/>
			<point x="336" y="744"/>
			<point x="336" y="748" type="curve" smooth="yes"/>
			<point x="336" y="800"/>
			<point x="414" y="800"/>
			<point x="450" y="800" type="curve"/>
			<point x="450" y="821"/>
			<point x="450" y="841"/>
			<point x="450" y="862" type="curve"/>
			<point x="390" y="860"/>
			<point x="278" y="856"/>
			<point x="232" y="856" type="curve" smooth="yes"/>
			<point x="178" y="856"/>
			<point x="98" y="858"/>
			<point x="38" y="862" type="curve"/>
			<point x="38" y="841"/>
			<point x="38" y="821"/>
			<point x="38" y="800" type="curve"/>
			<point x="164" y="800"/>
			<point x="172" y="788"/>
			<point x="198" y="726" type="curve" smooth="yes"/>
			<point x="294" y="490"/>
			<point x="390" y="253"/>
			<point x="486" y="16" type="curve" smooth="yes"/>
			<point x="498" y="-12"/>
			<point x="502" y="-22"/>
		</contour>
	</outline>
</glyph>
<glyph name="w" format="2">
	<unicode hex="0077"/>
	<advance width="1444"/>
	<outline>
		<contour>
			<point x="1238" y="672" type="line" smooth="yes"/>
			<point x="1274" y="772"/>
			<point x="1336" y="798"/>
			<point x="1406" y="800" type="curve"/>
			<point x="1406" y="821"/>
			<point x="1406" y="841"/>
			<point x="1406" y="862" type="curve"/>
			<point x="1362" y="858"/>
			<point x="1304" y="856"/>
			<point x="1260" y="856" type="curve" smooth="yes"/>
			<point x="1202" y="856"/>
			<point x="1112" y="860"/>
			<point x="1074" y="862" type="curve"/>
			<point x="1074" y="841"/>
			<point x="1074" y="821"/>
			<point x="1074" y="800" type="curve"/>
			<point x="1146" y="798"/>
			<point x="1190" y="762"/>
			<point x="1190" y="704" type="curve" smooth="yes"/>
			<point x="1190" y="692"/>
			<point x="1190" y="688"/>
			<point x="1180" y="662" type="curve" smooth="yes"/>
			<point x="998" y="150" type="line"/>
			<point x="800" y="708" type="line" smooth="yes"/>
			<point x="792" y="732"/>
			<point x="790" y="736"/>
			<point x="790" y="746" type="curve" smooth="yes"/>
			<point x="790" y="800"/>
			<point x="868" y="800"/>
			<point x="908" y="800" type="curve"/>
			<point x="908" y="862" type="line"/>
			<point x="850" y="860"/>
			<point x="748" y="856"/>
			<point x="700" y="856" type="curve" smooth="yes"/>
			<point x="640" y="856"/>
			<point x="582" y="858"/>
			<point x="522" y="862" type="curve"/>
			<point x="522" y="800" type="line"/>
			<point x="596" y="800"/>
			<point x="628" y="796"/>
			<point x="648" y="770" type="curve" smooth="yes"/>
			<point x="658" y="758"/>
			<point x="680" y="698"/>
			<point x="694" y="660" type="curve"/>
			<point x="522" y="176" type="line"/>
			<point x="332" y="710" type="line"/>
			<point x="322" y="734"/>
			<point x="322" y="738"/>
			<point x="322" y="746" type="curve" smooth="yes"/>
			<point x="322" y="800"/>
			<point x="400" y="800"/>
			<point x="440" y="800" type="curve"/>
			<point x="440" y="862" type="line"/>
			<point x="380" y="860"/>
			<point x="268" y="856"/>
			<point x="222" y="856" type="curve" smooth="yes"/>
			<point x="214" y="856"/>
			<point x="108" y="858"/>
			<point x="36" y="862" type="curve"/>
			<point x="36" y="800" type="line"/>
			<point x="136" y="800"/>
			<point x="160" y="794"/>
			<point x="184" y="730" type="curve" smooth="yes"/>
			<point x="436" y="22" type="line" smooth="yes"/>
			<point x="446" y="-6"/>
			<point x="452" y="-22"/>
			<point x="478" y="-22" type="curve" smooth="yes"/>
			<point x="504" y="-22"/>
			<point x="508" y="-10"/>
			<point x="518" y="18" type="curve" smooth="yes"/>
			<point x="720" y="584" type="line"/>
			<point x="924" y="16" type="line" smooth="yes"/>
			<point x="932" y="-6"/>
			<point x="938" y="-22"/>
			<point x="964" y="-22" type="curve" smooth="yes"/>
			<point x="990" y="-22"/>
			<point x="996" y="-4"/>
			<point x="1004" y="16" type="curve" smooth="yes"/>
		</contour>
	</outline>
</glyph>
<glyph name="x" format="2">
  <advance width="527"/>
  <unicode hex="0078"/>
  <outline>
    <contour>
      <point x="234" y="210" type="line"/>
      <point x="140" y="91" type="line" smooth="yes"/>
      <point x="92" y="33"/>
      <point x="33" y="31"/>
      <point x="12" y="31" type="curve"/>
      <point x="12" y="0" type="line"/>
      <point x="38" y="2"/>
      <point x="69" y="3"/>
      <point x="95" y="3" type="curve" smooth="yes"/>
      <point x="124" y="3"/>
      <point x="166" y="1"/>
      <point x="190" y="0" type="curve"/>
      <point x="190" y="31" type="line"/>
      <point x="168" y="34"/>
      <point x="161" y="47"/>
      <point x="161" y="62" type="curve" smooth="yes"/>
      <point x="161" y="76"/>
      <point x="172" y="94"/>
      <point x="196" y="123" type="curve" smooth="yes"/>
      <point x="214.315" y="144.978"/>
      <point x="232.63" y="166.95600000000002"/>
      <point x="251" y="189" type="curve"/>
      <point x="327" y="89" type="line" smooth="yes"/>
      <point x="335" y="78"/>
      <point x="348" y="62"/>
      <point x="348" y="56" type="curve" smooth="yes"/>
      <point x="348" y="47"/>
      <point x="339" y="32"/>
      <point x="312" y="31" type="curve"/>
      <point x="312" y="0" type="line"/>
      <point x="342" y="1"/>
      <point x="398" y="3"/>
      <point x="420" y="3" type="curve" smooth="yes"/>
      <point x="447" y="3"/>
      <point x="486" y="2"/>
      <point x="516" y="0" type="curve"/>
      <point x="516" y="31" type="line"/>
      <point x="462" y="31"/>
      <point x="444" y="33"/>
      <point x="421" y="62" type="curve" smooth="yes"/>
      <point x="287" y="235" type="line"/>
      <point x="377" y="344" type="line" smooth="yes"/>
      <point x="410" y="384"/>
      <point x="451" y="399"/>
      <point x="498" y="400" type="curve"/>
      <point x="498" y="431" type="line"/>
      <point x="472" y="429"/>
      <point x="442" y="428"/>
      <point x="416" y="428" type="curve" smooth="yes"/>
      <point x="386" y="428"/>
      <point x="333" y="430"/>
      <point x="320" y="431" type="curve"/>
      <point x="320" y="400" type="line"/>
      <point x="341" y="398"/>
      <point x="349" y="385"/>
      <point x="349" y="369" type="curve" smooth="yes"/>
      <point x="349" y="353"/>
      <point x="339" y="340"/>
      <point x="334" y="334" type="curve" smooth="yes"/>
      <point x="272" y="256" type="line"/>
      <point x="194" y="357" type="line" smooth="yes"/>
      <point x="186" y="368"/>
      <point x="185" y="369"/>
      <point x="185" y="375" type="curve" smooth="yes"/>
      <point x="185" y="390"/>
      <point x="200" y="399"/>
      <point x="220" y="400" type="curve"/>
      <point x="220" y="431" type="line"/>
      <point x="194" y="430"/>
      <point x="128" y="428"/>
      <point x="112" y="428" type="curve" smooth="yes"/>
      <point x="91" y="428"/>
      <point x="44" y="429"/>
      <point x="17" y="431" type="curve"/>
      <point x="17" y="400" type="line"/>
      <point x="87" y="400"/>
      <point x="88" y="399"/>
      <point x="135" y="339" type="curve" smooth="yes"/>
    </contour>
  </outline>
</glyph>
<glyph name="y" format="2">
  <advance width="527"/>
  <unicode hex="0079"/>
  <outline>
    <contour>
      <point x="111" y="-205" type="curve" smooth="yes"/>
      <point x="174" y="-205"/>
      <point x="215" y="-148"/>
      <point x="239" y="-91" type="curve" smooth="yes"/>
      <point x="415" y="336" type="line" smooth="yes"/>
      <point x="441" y="399"/>
      <point x="492" y="400"/>
      <point x="508" y="400" type="curve"/>
      <point x="508" y="431" type="line"/>
      <point x="485" y="429"/>
      <point x="456" y="428"/>
      <point x="433" y="428" type="curve" smooth="yes"/>
      <point x="415" y="428"/>
      <point x="368" y="430"/>
      <point x="346" y="431" type="curve"/>
      <point x="346" y="400" type="line"/>
      <point x="377" y="399"/>
      <point x="393" y="382"/>
      <point x="393" y="357" type="curve" smooth="yes"/>
      <point x="393" y="347"/>
      <point x="392" y="345"/>
      <point x="387" y="333" type="curve" smooth="yes"/>
      <point x="286" y="87" type="line"/>
      <point x="175" y="356" type="line" smooth="yes"/>
      <point x="171" y="366"/>
      <point x="169" y="370"/>
      <point x="169" y="374" type="curve" smooth="yes"/>
      <point x="169" y="400"/>
      <point x="206" y="400"/>
      <point x="225" y="400" type="curve"/>
      <point x="225" y="431" type="line"/>
      <point x="199" y="430"/>
      <point x="133" y="428"/>
      <point x="116" y="428" type="curve" smooth="yes"/>
      <point x="89" y="428"/>
      <point x="49" y="429"/>
      <point x="19" y="431" type="curve"/>
      <point x="19" y="400" type="line"/>
      <point x="67" y="400"/>
      <point x="86" y="400"/>
      <point x="100" y="365" type="curve" smooth="yes"/>
      <point x="250" y="0" type="line"/>
      <point x="241.675" y="-19.647000000000002"/>
      <point x="233.35" y="-39.294000000000004"/>
      <point x="225" y="-59" type="curve" smooth="yes"/>
      <point x="202" y="-114"/>
      <point x="175" y="-183"/>
      <point x="111" y="-183" type="curve" smooth="yes"/>
      <point x="106" y="-183"/>
      <point x="83" y="-183"/>
      <point x="64" y="-165" type="curve"/>
      <point x="95" y="-161"/>
      <point x="103" y="-139"/>
      <point x="103" y="-123" type="curve" smooth="yes"/>
      <point x="103" y="-97"/>
      <point x="84" y="-81"/>
      <point x="61" y="-81" type="curve" smooth="yes"/>
      <point x="41" y="-81"/>
      <point x="19" y="-94"/>
      <point x="19" y="-124" type="curve" smooth="yes"/>
      <point x="19" y="-169"/>
      <point x="61" y="-205"/>
    </contour>
  </outline>
</glyph>
<glyph name="z" format="2">
	<unicode hex="007A"/>
	<advance width="888"/>
	<outline>
		<contour>
			<point x="632" y="818" type="line"/>
			<point x="74" y="64" type="line" smooth="yes"/>
			<point x="56" y="42"/>
			<point x="56" y="38"/>
			<point x="56" y="28" type="curve" smooth="yes"/>
			<point x="56" y="0"/>
			<point x="70" y="0"/>
			<point x="108" y="0" type="curve" smooth="yes"/>
			<point x="768" y="0" type="line"/>
			<point x="802" y="374" type="line"/>
			<point x="752" y="374" type="line"/>
			<point x="734" y="138"/>
			<point x="692" y="50"/>
			<point x="460" y="50" type="curve" smooth="yes"/>
			<point x="224" y="50" type="line"/>
			<point x="780" y="802" type="line" smooth="yes"/>
			<point x="798" y="824"/>
			<point x="798" y="828"/>
			<point x="798" y="836" type="curve" smooth="yes"/>
			<point x="798" y="862"/>
			<point x="782" y="862"/>
			<point x="746" y="862" type="curve" smooth="yes"/>
			<point x="106" y="862" type="line"/>
			<point x="84" y="540" type="line"/>
			<point x="134" y="540" type="line"/>
			<point x="146" y="744"/>
			<point x="184" y="818"/>
			<point x="404" y="818" type="curve" smooth="yes"/>
		</contour>
	</outline>
</glyph>
<glyph name="exclamdown" format="2">
	<unicode hex="00A1"/>
	<advance width="554"/>
	<outline>
		<contour>
			<point x="278" y="-432" type="curve" smooth="yes"/>
			<point x="330" y="-432"/>
			<point x="384" y="-396"/>
			<point x="384" y="-330" type="curve"/>
			<point x="358" y="-27"/>
			<point x="332" y="276"/>
			<point x="306" y="580" type="curve" smooth="yes"/>
			<point x="304" y="610"/>
			<point x="302" y="626"/>
			<point x="278" y="626" type="curve" smooth="yes"/>
			<point x="258" y="626"/>
			<point x="252" y="616"/>
			<point x="250" y="582" type="curve" smooth="yes"/>
			<point x="224" y="278"/>
			<point x="198" y="-25"/>
			<point x="172" y="-330" type="curve"/>
			<point x="172" y="-396"/>
			<point x="226" y="-432"/>
		</contour>
		<contour>
			<point x="384" y="894" type="curve" smooth="yes"/>
			<point x="384" y="952"/>
			<point x="336" y="1000"/>
			<point x="278" y="1000" type="curve" smooth="yes"/>
			<point x="220" y="1000"/>
			<point x="172" y="952"/>
			<point x="172" y="894" type="curve" smooth="yes"/>
			<point x="172" y="836"/>
			<point x="220" y="788"/>
			<point x="278" y="788" type="curve" smooth="yes"/>
			<point x="336" y="788"/>
			<point x="384" y="836"/>
		</contour>
	</outline>
</glyph>
<glyph name="dieresis" format="2">
  <advance width="500"/>
  <unicode hex="00A8"/>
  <outline>
    <contour>
      <point x="203" y="619" type="curve" smooth="yes"/>
      <point x="203" y="643"/>
      <point x="183" y="669"/>
      <point x="153" y="669" type="curve" smooth="yes"/>
      <point x="125" y="669"/>
      <point x="103" y="647"/>
      <point x="103" y="619" type="curve" smooth="yes"/>
      <point x="103" y="591"/>
      <point x="125" y="569"/>
      <point x="153" y="569" type="curve" smooth="yes"/>
      <point x="183" y="569"/>
      <point x="203" y="595"/>
    </contour>
    <contour>
      <point x="396" y="619" type="curve" smooth="yes"/>
      <point x="396" y="647"/>
      <point x="374" y="669"/>
      <point x="346" y="669" type="curve" smooth="yes"/>
      <point x="316" y="669"/>
      <point x="296" y="643"/>
      <point x="296" y="619" type="curve" smooth="yes"/>
      <point x="296" y="595"/>
      <point x="316" y="569"/>
      <point x="346" y="569" type="curve" smooth="yes"/>
      <point x="374" y="569"/>
      <point x="396" y="591"/>
    </contour>
  </outline>
</glyph>
<glyph name="macron" format="2">
	<unicode hex="00AF"/>
	<advance width="500"/>
	<outline>
		<contour>
			<point x="430" y="559" type="line"/>
			<point x="430" y="590" type="line"/>
			<point x="69" y="590" type="line"/>
			<point x="69" y="559" type="line"/>
		</contour>
	</outline>
</glyph>
<glyph name="acute" format="2">
	<unicode hex="00B4"/>
	<advance width="1000"/>
	<outline>
		<contour>
			<point x="446" y="1020" type="line"/>
			<point x="750" y="1264" type="line" smooth="yes"/>
			<point x="768" y="1278"/>
			<point x="784" y="1300"/>
			<point x="784" y="1324" type="curve" smooth="yes"/>
			<point x="784" y="1360"/>
			<point x="748" y="1396"/>
			<point x="712" y="1396" type="curve" smooth="yes"/>
			<point x="682" y="1396"/>
			<point x="660" y="1374"/>
			<point x="652" y="1362" type="curve"/>
			<point x="572" y="1260"/>
			<point x="492" y="1158"/>
			<point x="412" y="1056" type="curve"/>
		</contour>
	</outline>
</glyph>
<glyph name="cedilla" format="2">
	<unicode hex="00B8"/>
	<advance width="888"/>
	<outline>
		<contour>
			<point x="596" y="-252" type="curve" smooth="yes"/>
			<point x="596" y="-328"/>
			<point x="510" y="-362"/>
			<point x="324" y="-362" type="curve" smooth="yes"/>
			<point x="303" y="-362"/>
			<point x="283" y="-362"/>
			<point x="262" y="-362" type="curve"/>
			<point x="262" y="-406" type="line"/>
			<point x="291" y="-406"/>
			<point x="321" y="-406"/>
			<point x="350" y="-406" type="curve" smooth="yes"/>
			<point x="358" y="-406"/>
			<point x="492" y="-406"/>
			<point x="586" y="-384" type="curve" smooth="yes"/>
			<point x="668" y="-366"/>
			<point x="734" y="-330"/>
			<point x="734" y="-252" type="curve" smooth="yes"/>
			<point x="734" y="-166"/>
			<point x="660" y="-124"/>
			<point x="568" y="-110" type="curve"/>
			<point x="568" y="-44" type="line"/>
			<point x="430" y="-44" type="line"/>
			<point x="430" y="-142" type="line"/>
			<point x="538" y="-144"/>
			<point x="596" y="-190"/>
		</contour>
	</outline>
</glyph>
<glyph name="questiondown" format="2">
	<unicode hex="00BF"/>
	<advance width="944"/>
	<outline>
		<contour>
			<point x="112" y="-140" type="curve" smooth="yes"/>
			<point x="112" y="-254"/>
			<point x="176" y="-410"/>
			<point x="444" y="-410" type="curve" smooth="yes"/>
			<point x="656" y="-410"/>
			<point x="830" y="-304"/>
			<point x="830" y="-144" type="curve" smooth="yes"/>
			<point x="830" y="-76"/>
			<point x="784" y="-48"/>
			<point x="738" y="-48" type="curve" smooth="yes"/>
			<point x="682" y="-48"/>
			<point x="646" y="-88"/>
			<point x="646" y="-140" type="curve" smooth="yes"/>
			<point x="646" y="-188"/>
			<point x="684" y="-238"/>
			<point x="756" y="-230" type="curve"/>
			<point x="696" y="-332"/>
			<point x="548" y="-366"/>
			<point x="450" y="-366" type="curve" smooth="yes"/>
			<point x="278" y="-366"/>
			<point x="278" y="-252"/>
			<point x="278" y="-154" type="curve" smooth="yes"/>
			<point x="278" y="-32"/>
			<point x="300" y="-2"/>
			<point x="330" y="40" type="curve" smooth="yes"/>
			<point x="456" y="218"/>
			<point x="470" y="402"/>
			<point x="470" y="554" type="curve" smooth="yes"/>
			<point x="470" y="570"/>
			<point x="470" y="586"/>
			<point x="470" y="602" type="curve"/>
			<point x="468" y="626"/>
			<point x="450" y="626"/>
			<point x="444" y="626" type="curve" smooth="yes"/>
			<point x="420" y="626"/>
			<point x="420" y="614"/>
			<point x="420" y="578" type="curve" smooth="yes"/>
			<point x="420" y="546" type="line" smooth="yes"/>
			<point x="420" y="464"/>
			<point x="420" y="248"/>
			<point x="214" y="72" type="curve" smooth="yes"/>
			<point x="178" y="40"/>
			<point x="112" y="-16"/>
		</contour>
		<contour>
			<point x="550" y="894" type="curve" smooth="yes"/>
			<point x="550" y="952"/>
			<point x="502" y="1000"/>
			<point x="444" y="1000" type="curve" smooth="yes"/>
			<point x="386" y="1000"/>
			<point x="338" y="952"/>
			<point x="338" y="894" type="curve" smooth="yes"/>
			<point x="338" y="836"/>
			<point x="386" y="788"/>
			<point x="444" y="788" type="curve" smooth="yes"/>
			<point x="502" y="788"/>
			<point x="550" y="836"/>
		</contour>
	</outline>
</glyph>
<glyph name="AE" format="2">
	<unicode hex="00C6"/>
	<advance width="1804"/>
	<outline>
		<contour>
			<point x="1636" y="1366" type="line"/>
			<point x="516" y="1366" type="line"/>
			<point x="516" y="1304" type="line"/>
			<point x="686" y="1304" type="line"/>
			<point x="290" y="196" type="line" smooth="yes"/>
			<point x="262" y="118"/>
			<point x="204" y="62"/>
			<point x="64" y="62" type="curve"/>
			<point x="64" y="62" type="line"/>
			<point x="64" y="0" type="line"/>
			<point x="108" y="2"/>
			<point x="188" y="6"/>
			<point x="268" y="6" type="curve" smooth="yes"/>
			<point x="330" y="6"/>
			<point x="434" y="2"/>
			<point x="498" y="0" type="curve"/>
			<point x="498" y="62" type="line"/>
			<point x="398" y="64"/>
			<point x="350" y="112"/>
			<point x="350" y="162" type="curve" smooth="yes"/>
			<point x="350" y="178"/>
			<point x="350" y="180"/>
			<point x="360" y="206" type="curve" smooth="yes"/>
			<point x="510" y="626" type="line"/>
			<point x="832" y="626" type="line"/>
			<point x="832" y="152" type="line" smooth="yes"/>
			<point x="832" y="62"/>
			<point x="810" y="62"/>
			<point x="678" y="62" type="curve"/>
			<point x="678" y="62" type="line"/>
			<point x="678" y="0" type="line"/>
			<point x="1664" y="0" type="line"/>
			<point x="1748" y="516" type="line"/>
			<point x="1698" y="516" type="line"/>
			<point x="1648" y="220"/>
			<point x="1622" y="62"/>
			<point x="1286" y="62" type="curve" smooth="yes"/>
			<point x="1096" y="62" type="line" smooth="yes"/>
			<point x="1002" y="62"/>
			<point x="998" y="76"/>
			<point x="998" y="142" type="curve" smooth="yes"/>
			<point x="998" y="626" type="line"/>
			<point x="1168" y="626" type="line" smooth="yes"/>
			<point x="1356" y="626"/>
			<point x="1374" y="560"/>
			<point x="1374" y="392" type="curve"/>
			<point x="1424" y="392" type="line"/>
			<point x="1424" y="922" type="line"/>
			<point x="1374" y="922" type="line"/>
			<point x="1374" y="754"/>
			<point x="1356" y="688"/>
			<point x="1168" y="688" type="curve" smooth="yes"/>
			<point x="998" y="688" type="line"/>
			<point x="998" y="1224" type="line" smooth="yes"/>
			<point x="998" y="1290"/>
			<point x="1002" y="1304"/>
			<point x="1096" y="1304" type="curve" smooth="yes"/>
			<point x="1286" y="1304" type="line" smooth="yes"/>
			<point x="1570" y="1304"/>
			<point x="1610" y="1188"/>
			<point x="1642" y="916" type="curve"/>
			<point x="1692" y="916" type="line"/>
		</contour>
		<contour>
			<point x="532" y="688" type="line"/>
			<point x="750" y="1296" type="line"/>
			<point x="832" y="1294"/>
			<point x="832" y="1240"/>
			<point x="832" y="1208" type="curve" smooth="yes"/>
			<point x="832" y="688" type="line"/>
		</contour>
	</outline>
</glyph>
<glyph name="Oslash" format="2">
	<unicode hex="00D8"/>
	<advance width="1554"/>
	<outline>
		<contour>
			<point x="1330" y="1450" type="line"/>
			<point x="1288" y="1478" type="line"/>
			<point x="1154" y="1282" type="line"/>
			<point x="1084" y="1330"/>
			<point x="964" y="1410"/>
			<point x="776" y="1410" type="curve" smooth="yes"/>
			<point x="418" y="1410"/>
			<point x="112" y="1090"/>
			<point x="112" y="678" type="curve" smooth="yes"/>
			<point x="112" y="380"/>
			<point x="272" y="188"/>
			<point x="360" y="116" type="curve"/>
			<point x="224" y="-84" type="line"/>
			<point x="237" y="-93"/>
			<point x="251" y="-103"/>
			<point x="264" y="-112" type="curve"/>
			<point x="400" y="84" type="line"/>
			<point x="546" y="-26"/>
			<point x="686" y="-44"/>
			<point x="776" y="-44" type="curve" smooth="yes"/>
			<point x="1140" y="-44"/>
			<point x="1442" y="274"/>
			<point x="1442" y="678" type="curve" smooth="yes"/>
			<point x="1442" y="926"/>
			<point x="1342" y="1108"/>
			<point x="1192" y="1248" type="curve"/>
		</contour>
		<contour>
			<point x="778" y="0" type="curve" smooth="yes"/>
			<point x="654" y="0"/>
			<point x="532" y="54"/>
			<point x="446" y="152" type="curve"/>
			<point x="1140" y="1172" type="line"/>
			<point x="1254" y="1020"/>
			<point x="1264" y="806"/>
			<point x="1264" y="678" type="curve" smooth="yes"/>
			<point x="1264" y="576"/>
			<point x="1260" y="362"/>
			<point x="1148" y="200" type="curve" smooth="yes"/>
			<point x="1060" y="76"/>
			<point x="922" y="0"/>
		</contour>
		<contour>
			<point x="412" y="194" type="line"/>
			<point x="342" y="292"/>
			<point x="290" y="422"/>
			<point x="290" y="678" type="curve" smooth="yes"/>
			<point x="290" y="876"/>
			<point x="330" y="1031"/>
			<point x="397" y="1144" type="curve" smooth="yes"/>
			<point x="486" y="1292"/>
			<point x="622" y="1366"/>
			<point x="776" y="1366" type="curve" smooth="yes"/>
			<point x="960" y="1366"/>
			<point x="1070" y="1254"/>
			<point x="1108" y="1214" type="curve"/>
		</contour>
	</outline>
</glyph>
<glyph name="germandbls" format="2">
	<unicode hex="00DF"/>
	<advance width="1000"/>
	<outline>
		<contour>
			<point x="620" y="838" type="curve"/>
			<point x="798" y="888"/>
			<point x="886" y="1010"/>
			<point x="886" y="1126" type="curve" smooth="yes"/>
			<point x="886" y="1276"/>
			<point x="742" y="1410"/>
			<point x="544" y="1410" type="curve" smooth="yes"/>
			<point x="390" y="1410"/>
			<point x="212" y="1312"/>
			<point x="212" y="1112" type="curve" smooth="yes"/>
			<point x="212" y="862" type="line"/>
			<point x="56" y="862" type="line"/>
			<point x="56" y="800" type="line"/>
			<point x="212" y="800" type="line"/>
			<point x="212" y="152" type="line" smooth="yes"/>
			<point x="212" y="62"/>
			<point x="190" y="62"/>
			<point x="56" y="62" type="curve"/>
			<point x="56" y="0" type="line"/>
			<point x="94" y="2"/>
			<point x="226" y="6"/>
			<point x="252" y="6" type="curve" smooth="yes"/>
			<point x="274" y="6"/>
			<point x="308" y="6"/>
			<point x="344" y="0" type="curve"/>
			<point x="344" y="1116" type="line" smooth="yes"/>
			<point x="344" y="1344"/>
			<point x="504" y="1366"/>
			<point x="544" y="1366" type="curve" smooth="yes"/>
			<point x="626" y="1366"/>
			<point x="736" y="1304"/>
			<point x="736" y="1128" type="curve" smooth="yes"/>
			<point x="736" y="1000"/>
			<point x="666" y="878"/>
			<point x="488" y="862" type="curve" smooth="yes"/>
			<point x="470" y="860"/>
			<point x="456" y="860"/>
			<point x="456" y="840" type="curve" smooth="yes"/>
			<point x="456" y="836"/>
			<point x="456" y="820"/>
			<point x="474" y="818" type="curve" smooth="yes"/>
			<point x="712" y="798"/>
			<point x="792" y="554"/>
			<point x="792" y="346" type="curve" smooth="yes"/>
			<point x="792" y="88"/>
			<point x="662" y="22"/>
			<point x="586" y="22" type="curve" smooth="yes"/>
			<point x="568" y="22"/>
			<point x="522" y="26"/>
			<point x="486" y="60" type="curve"/>
			<point x="508" y="64"/>
			<point x="546" y="84"/>
			<point x="546" y="132" type="curve" smooth="yes"/>
			<point x="546" y="176"/>
			<point x="514" y="204"/>
			<point x="474" y="204" type="curve" smooth="yes"/>
			<point x="440" y="204"/>
			<point x="402" y="180"/>
			<point x="402" y="130" type="curve" smooth="yes"/>
			<point x="402" y="50"/>
			<point x="476" y="-22"/>
			<point x="592" y="-22" type="curve" smooth="yes"/>
			<point x="764" y="-22"/>
			<point x="942" y="124"/>
			<point x="942" y="348" type="curve" smooth="yes"/>
			<point x="942" y="492"/>
			<point x="878" y="732"/>
		</contour>
	</outline>
</glyph>
<glyph name="ae" format="2">
	<unicode hex="00E6"/>
	<advance width="1444"/>
	<outline>
		<contour>
			<point x="90" y="184" type="curve" smooth="yes"/>
			<point x="90" y="26"/>
			<point x="274" y="-22"/>
			<point x="408" y="-22" type="curve" smooth="yes"/>
			<point x="570" y="-22"/>
			<point x="694" y="58"/>
			<point x="742" y="156" type="curve"/>
			<point x="860" y="-6"/>
			<point x="1016" y="-22"/>
			<point x="1076" y="-22" type="curve" smooth="yes"/>
			<point x="1302" y="-22"/>
			<point x="1386" y="200"/>
			<point x="1386" y="238" type="curve" smooth="yes"/>
			<point x="1386" y="258"/>
			<point x="1370" y="262"/>
			<point x="1360" y="262" type="curve" smooth="yes"/>
			<point x="1342" y="262"/>
			<point x="1340" y="254"/>
			<point x="1330" y="222" type="curve" smooth="yes"/>
			<point x="1300" y="122"/>
			<point x="1208" y="28"/>
			<point x="1084" y="28" type="curve" smooth="yes"/>
			<point x="1064" y="28"/>
			<point x="790" y="28"/>
			<point x="790" y="462" type="curve"/>
			<point x="1336" y="462" type="line" smooth="yes"/>
			<point x="1380" y="462"/>
			<point x="1386" y="462"/>
			<point x="1386" y="504" type="curve" smooth="yes"/>
			<point x="1386" y="726"/>
			<point x="1270" y="896"/>
			<point x="1052" y="896" type="curve" smooth="yes"/>
			<point x="964" y="896"/>
			<point x="852" y="864"/>
			<point x="750" y="742" type="curve"/>
			<point x="692" y="838"/>
			<point x="572" y="896"/>
			<point x="444" y="896" type="curve" smooth="yes"/>
			<point x="284" y="896"/>
			<point x="142" y="804"/>
			<point x="142" y="670" type="curve" smooth="yes"/>
			<point x="142" y="610"/>
			<point x="182" y="576"/>
			<point x="234" y="576" type="curve" smooth="yes"/>
			<point x="290" y="576"/>
			<point x="326" y="616"/>
			<point x="326" y="668" type="curve" smooth="yes"/>
			<point x="326" y="692"/>
			<point x="316" y="758"/>
			<point x="224" y="760" type="curve"/>
			<point x="274" y="824"/>
			<point x="368" y="852"/>
			<point x="440" y="852" type="curve" smooth="yes"/>
			<point x="542" y="852"/>
			<point x="652" y="770"/>
			<point x="652" y="596" type="curve" smooth="yes"/>
			<point x="652" y="500" type="line"/>
			<point x="328" y="500"/>
			<point x="90" y="376"/>
		</contour>
		<contour>
			<point x="418" y="22" type="curve" smooth="yes"/>
			<point x="324" y="22"/>
			<point x="244" y="90"/>
			<point x="244" y="184" type="curve" smooth="yes"/>
			<point x="244" y="292"/>
			<point x="328" y="446"/>
			<point x="652" y="458" type="curve"/>
			<point x="652" y="410"/>
			<point x="652" y="370"/>
			<point x="670" y="308" type="curve" smooth="yes"/>
			<point x="676" y="286"/>
			<point x="676" y="270"/>
			<point x="676" y="264" type="curve" smooth="yes"/>
			<point x="676" y="136"/>
			<point x="562" y="22"/>
		</contour>
		<contour>
			<point x="792" y="504" type="line"/>
			<point x="812" y="796"/>
			<point x="978" y="852"/>
			<point x="1050" y="852" type="curve" smooth="yes"/>
			<point x="1240" y="852"/>
			<point x="1250" y="582"/>
			<point x="1254" y="504" type="curve"/>
		</contour>
	</outline>
</glyph>
<glyph name="dotlessi" format="2">
  <advance width="277"/>
  <unicode hex="0131"/>
  <outline>
    <contour>
      <point x="177" y="442" type="line"/>
      <point x="37" y="431" type="line"/>
      <point x="37" y="400" type="line"/>
      <point x="102" y="400"/>
      <point x="111" y="394"/>
      <point x="111" y="345" type="curve" smooth="yes"/>
      <point x="111" y="76" type="line" smooth="yes"/>
      <point x="111" y="31"/>
      <point x="100" y="31"/>
      <point x="33" y="31" type="curve"/>
      <point x="33" y="31" type="line"/>
      <point x="33" y="0" type="line"/>
      <point x="65" y="1"/>
      <point x="119" y="3"/>
      <point x="143" y="3" type="curve" smooth="yes"/>
      <point x="178" y="3"/>
      <point x="213" y="1"/>
      <point x="247" y="0" type="curve"/>
      <point x="247" y="31" type="line"/>
      <point x="181" y="31"/>
      <point x="177" y="36"/>
      <point x="177" y="75" type="curve" smooth="yes"/>
    </contour>
  </outline>
</glyph>
<glyph name="OE" format="2">
  <advance width="1013"/>
  <unicode hex="0152"/>
  <outline>
    <contour>
      <point x="400" y="-22" type="curve" smooth="yes"/>
      <point x="425" y="-22"/>
      <point x="442" y="-19"/>
      <point x="479" y="-11" type="curve" smooth="yes"/>
      <point x="527" y="0"/>
      <point x="540" y="0"/>
      <point x="556" y="0" type="curve" smooth="yes"/>
      <point x="943" y="0" type="line"/>
      <point x="985" y="258" type="line"/>
      <point x="960" y="258" type="line"/>
      <point x="935" y="109"/>
      <point x="920" y="31"/>
      <point x="749" y="31" type="curve" smooth="yes"/>
      <point x="639" y="31" type="line" smooth="yes"/>
      <point x="592" y="31"/>
      <point x="590" y="38"/>
      <point x="590" y="71" type="curve" smooth="yes"/>
      <point x="590" y="339" type="line"/>
      <point x="698" y="339" type="line" smooth="yes"/>
      <point x="798" y="339"/>
      <point x="812" y="308"/>
      <point x="812" y="222" type="curve"/>
      <point x="837" y="222" type="line"/>
      <point x="837" y="487" type="line"/>
      <point x="812" y="487" type="line"/>
      <point x="812" y="401"/>
      <point x="798" y="370"/>
      <point x="698" y="370" type="curve" smooth="yes"/>
      <point x="590" y="370" type="line"/>
      <point x="590" y="612" type="line" smooth="yes"/>
      <point x="590" y="645"/>
      <point x="592" y="652"/>
      <point x="639" y="652" type="curve" smooth="yes"/>
      <point x="751" y="652" type="line" smooth="yes"/>
      <point x="894" y="652"/>
      <point x="916" y="593"/>
      <point x="932" y="458" type="curve"/>
      <point x="957" y="458" type="line"/>
      <point x="929" y="683" type="line"/>
      <point x="556" y="683" type="line" smooth="yes"/>
      <point x="539" y="683"/>
      <point x="525" y="683"/>
      <point x="470" y="695" type="curve" smooth="yes"/>
      <point x="428" y="705"/>
      <point x="411" y="705"/>
      <point x="400" y="705" type="curve" smooth="yes"/>
      <point x="228" y="705"/>
      <point x="70" y="550"/>
      <point x="70" y="339" type="curve" smooth="yes"/>
      <point x="70" y="130"/>
      <point x="228" y="-22"/>
    </contour>
    <contour>
      <point x="404" y="0" type="curve" smooth="yes"/>
      <point x="275" y="0"/>
      <point x="170" y="156"/>
      <point x="170" y="354" type="curve" smooth="yes"/>
      <point x="170" y="544"/>
      <point x="278" y="683"/>
      <point x="404" y="683" type="curve" smooth="yes"/>
      <point x="492" y="683"/>
      <point x="503" y="635"/>
      <point x="509" y="578" type="curve" smooth="yes"/>
      <point x="514" y="534"/>
      <point x="514" y="449"/>
      <point x="514" y="341" type="curve" smooth="yes"/>
      <point x="514" y="214"/>
      <point x="514" y="155"/>
      <point x="510" y="109" type="curve" smooth="yes"/>
      <point x="503" y="43"/>
      <point x="488" y="0"/>
    </contour>
  </outline>
</glyph>
<glyph name="oe" format="2">
  <advance width="777"/>
  <unicode hex="0153"/>
  <outline>
    <contour>
      <point x="241" y="-11" type="curve" smooth="yes"/>
      <point x="321" y="-11"/>
      <point x="384" y="37"/>
      <point x="417" y="93" type="curve"/>
      <point x="461" y="20"/>
      <point x="533" y="-11"/>
      <point x="594" y="-11" type="curve" smooth="yes"/>
      <point x="707" y="-11"/>
      <point x="749" y="100"/>
      <point x="749" y="119" type="curve" smooth="yes"/>
      <point x="749" y="129"/>
      <point x="741" y="131"/>
      <point x="736" y="131" type="curve" smooth="yes"/>
      <point x="727" y="131"/>
      <point x="726" y="127"/>
      <point x="721" y="111" type="curve" smooth="yes"/>
      <point x="706" y="61"/>
      <point x="660" y="14"/>
      <point x="598" y="14" type="curve" smooth="yes"/>
      <point x="588" y="14"/>
      <point x="451" y="14"/>
      <point x="451" y="231" type="curve"/>
      <point x="724" y="231" type="line" smooth="yes"/>
      <point x="746" y="231"/>
      <point x="749" y="231"/>
      <point x="749" y="252" type="curve" smooth="yes"/>
      <point x="749" y="363"/>
      <point x="691" y="448"/>
      <point x="582" y="448" type="curve" smooth="yes"/>
      <point x="519" y="448"/>
      <point x="456" y="414"/>
      <point x="416" y="347" type="curve"/>
      <point x="380" y="404"/>
      <point x="317" y="448"/>
      <point x="241" y="448" type="curve" smooth="yes"/>
      <point x="127" y="448"/>
      <point x="28" y="349"/>
      <point x="28" y="219" type="curve" smooth="yes"/>
      <point x="28" y="89"/>
      <point x="126" y="-11"/>
    </contour>
    <contour>
      <point x="242" y="11" type="curve" smooth="yes"/>
      <point x="220" y="11"/>
      <point x="105" y="20"/>
      <point x="105" y="223" type="curve" smooth="yes"/>
      <point x="105" y="416"/>
      <point x="217" y="426"/>
      <point x="242" y="426" type="curve" smooth="yes"/>
      <point x="260" y="426"/>
      <point x="382" y="418"/>
      <point x="382" y="223" type="curve" smooth="yes"/>
      <point x="382" y="32"/>
      <point x="274" y="11"/>
    </contour>
    <contour>
      <point x="452" y="252" type="line"/>
      <point x="462" y="398"/>
      <point x="545" y="426"/>
      <point x="581" y="426" type="curve" smooth="yes"/>
      <point x="676" y="426"/>
      <point x="681" y="291"/>
      <point x="683" y="252" type="curve"/>
    </contour>
  </outline>
</glyph>
<glyph name="circumflex" format="2">
	<unicode hex="02C6"/>
	<advance width="500"/>
	<outline>
		<contour>
			<point x="250" y="694" type="line"/>
			<point x="116" y="558" type="line"/>
			<point x="134" y="540" type="line"/>
			<point x="250" y="642" type="line"/>
			<point x="365" y="540" type="line"/>
			<point x="383" y="558" type="line"/>
		</contour>
	</outline>
</glyph>
<glyph name="caron" format="2">
	<unicode hex="02C7"/>
	<advance width="1000"/>
	<outline>
		<contour>
			<point x="500" y="1138" type="line"/>
			<point x="264" y="1276" type="line"/>
			<point x="236" y="1236" type="line"/>
			<point x="498" y="1032" type="line"/>
			<point x="762" y="1236" type="line"/>
			<point x="734" y="1276" type="line"/>
		</contour>
	</outline>
</glyph>
<glyph name="dotaccent" format="2">
  <advance width="277"/>
  <unicode hex="02D9"/>
  <outline>
    <contour>
      <point x="192" y="616" type="curve" smooth="yes"/>
      <point x="192" y="643"/>
      <point x="169" y="669"/>
      <point x="139" y="669" type="curve" smooth="yes"/>
      <point x="105" y="669"/>
      <point x="85" y="641"/>
      <point x="85" y="616" type="curve" smooth="yes"/>
      <point x="85" y="589"/>
      <point x="108" y="563"/>
      <point x="138" y="563" type="curve" smooth="yes"/>
      <point x="172" y="563"/>
      <point x="192" y="591"/>
    </contour>
  </outline>
</glyph>
<glyph name="ring" format="2">
	<unicode hex="02DA"/>
	<advance width="1500"/>
	<outline>
		<contour>
			<point x="940" y="1258" type="curve" smooth="yes"/>
			<point x="940" y="1350"/>
			<point x="858" y="1432"/>
			<point x="750" y="1432" type="curve" smooth="yes"/>
			<point x="636" y="1432"/>
			<point x="558" y="1346"/>
			<point x="558" y="1258" type="curve" smooth="yes"/>
			<point x="558" y="1158"/>
			<point x="646" y="1082"/>
			<point x="748" y="1082" type="curve" smooth="yes"/>
			<point x="858" y="1082"/>
			<point x="940" y="1162"/>
		</contour>
		<contour>
			<point x="750" y="1126" type="curve" smooth="yes"/>
			<point x="664" y="1126"/>
			<point x="608" y="1164"/>
			<point x="608" y="1256" type="curve" smooth="yes"/>
			<point x="608" y="1348"/>
			<point x="662" y="1388"/>
			<point x="748" y="1388" type="curve" smooth="yes"/>
			<point x="834" y="1388"/>
			<point x="890" y="1350"/>
			<point x="890" y="1258" type="curve" smooth="yes"/>
			<point x="890" y="1166"/>
			<point x="836" y="1126"/>
		</contour>
	</outline>
</glyph>
<glyph name="tilde" format="2">
	<unicode hex="02DC"/>
	<advance width="1000"/>
	<outline>
		<contour>
			<point x="198" y="1150" type="line"/>
			<point x="232" y="1192"/>
			<point x="294" y="1246"/>
			<point x="362" y="1246" type="curve" smooth="yes"/>
			<point x="408" y="1246"/>
			<point x="458" y="1216"/>
			<point x="492" y="1196" type="curve" smooth="yes"/>
			<point x="546" y="1164"/>
			<point x="582" y="1150"/>
			<point x="616" y="1150" type="curve" smooth="yes"/>
			<point x="669" y="1150"/>
			<point x="704" y="1172"/>
			<point x="756" y="1224" type="curve" smooth="yes"/>
			<point x="777" y="1246"/>
			<point x="802" y="1273"/>
			<point x="832" y="1306" type="curve"/>
			<point x="800" y="1336" type="line"/>
			<point x="772" y="1300"/>
			<point x="706" y="1240"/>
			<point x="636" y="1240" type="curve" smooth="yes"/>
			<point x="590" y="1240"/>
			<point x="540" y="1270"/>
			<point x="506" y="1290" type="curve" smooth="yes"/>
			<point x="452" y="1322"/>
			<point x="416" y="1336"/>
			<point x="382" y="1336" type="curve" smooth="yes"/>
			<point x="333" y="1336"/>
			<point x="299" y="1318"/>
			<point x="254" y="1274" type="curve" smooth="yes"/>
			<point x="230" y="1250"/>
			<point x="202" y="1219"/>
			<point x="166" y="1180" type="curve"/>
		</contour>
	</outline>
</glyph>
<glyph name="hungarumlaut" format="2">
	<unicode hex="02DD"/>
	<advance width="1000"/>
	<outline>
		<contour>
			<point x="256" y="1050" type="line"/>
			<point x="298" y="1026" type="line"/>
			<point x="359" y="1110"/>
			<point x="421" y="1194"/>
			<point x="482" y="1278" type="curve" smooth="yes"/>
			<point x="500" y="1302"/>
			<point x="506" y="1310"/>
			<point x="506" y="1330" type="curve" smooth="yes"/>
			<point x="506" y="1366"/>
			<point x="470" y="1398"/>
			<point x="432" y="1398" type="curve" smooth="yes"/>
			<point x="386" y="1398"/>
			<point x="374" y="1364"/>
			<point x="364" y="1340" type="curve" smooth="yes"/>
		</contour>
		<contour>
			<point x="590" y="1050" type="line"/>
			<point x="604" y="1042"/>
			<point x="618" y="1034"/>
			<point x="632" y="1026" type="curve"/>
			<point x="693" y="1110"/>
			<point x="755" y="1194"/>
			<point x="816" y="1278" type="curve" smooth="yes"/>
			<point x="834" y="1302"/>
			<point x="840" y="1310"/>
			<point x="840" y="1330" type="curve" smooth="yes"/>
			<point x="840" y="1366"/>
			<point x="804" y="1398"/>
			<point x="766" y="1398" type="curve" smooth="yes"/>
			<point x="720" y="1398"/>
			<point x="708" y="1364"/>
			<point x="698" y="1340" type="curve" smooth="yes"/>
		</contour>
	</outline>
</glyph>
<glyph name="endash" format="2">
	<unicode hex="2013"/>
	<advance width="500"/>
	<outline>
		<contour>
			<point x="499" y="255" type="line"/>
			<point x="499" y="277" type="line"/>
			<point x="0" y="277" type="line"/>
			<point x="0" y="255" type="line"/>
		</contour>
	</outline>
</glyph>
<glyph name="emdash" format="2">
	<unicode hex="2014"/>
	<advance width="2000"/>
	<outline>
		<contour>
			<point x="1998" y="510" type="line"/>
			<point x="1998" y="554" type="line"/>
			<point x="0" y="554" type="line"/>
			<point x="0" y="510" type="line"/>
		</contour>
	</outline>
</glyph>
<glyph name="quoteleft" format="2">
  <advance width="277"/>
  <unicode hex="2018"/>
  <outline>
    <contour>
      <point x="139" y="394" type="curve" smooth="yes"/>
      <point x="174" y="394"/>
      <point x="192" y="421"/>
      <point x="192" y="447" type="curve" smooth="yes"/>
      <point x="192" y="473"/>
      <point x="175" y="500"/>
      <point x="139" y="500" type="curve" smooth="yes"/>
      <point x="109" y="500"/>
      <point x="97" y="481"/>
      <point x="96" y="481" type="curve" smooth="yes"/>
      <point x="94" y="481"/>
      <point x="82" y="585"/>
      <point x="164" y="665" type="curve" smooth="yes"/>
      <point x="176" y="677"/>
      <point x="176" y="679"/>
      <point x="176" y="682" type="curve" smooth="yes"/>
      <point x="176" y="689"/>
      <point x="171" y="693"/>
      <point x="166" y="693" type="curve" smooth="yes"/>
      <point x="155" y="693"/>
      <point x="72" y="617"/>
      <point x="72" y="499" type="curve" smooth="yes"/>
      <point x="72" y="439"/>
      <point x="96" y="394"/>
    </contour>
  </outline>
</glyph>
<glyph name="quotedblleft" format="2">
  <advance width="500"/>
  <unicode hex="201C"/>
  <outline>
    <contour>
      <point x="219" y="394" type="curve" smooth="yes"/>
      <point x="254" y="394"/>
      <point x="272" y="421"/>
      <point x="272" y="447" type="curve" smooth="yes"/>
      <point x="272" y="473"/>
      <point x="255" y="500"/>
      <point x="219" y="500" type="curve" smooth="yes"/>
      <point x="189" y="500"/>
      <point x="177" y="481"/>
      <point x="176" y="481" type="curve" smooth="yes"/>
      <point x="174" y="481"/>
      <point x="162" y="585"/>
      <point x="244" y="665" type="curve" smooth="yes"/>
      <point x="256" y="677"/>
      <point x="256" y="679"/>
      <point x="256" y="682" type="curve" smooth="yes"/>
      <point x="256" y="689"/>
      <point x="251" y="693"/>
      <point x="246" y="693" type="curve" smooth="yes"/>
      <point x="235" y="693"/>
      <point x="152" y="617"/>
      <point x="152" y="499" type="curve" smooth="yes"/>
      <point x="152" y="439"/>
      <point x="176" y="394"/>
    </contour>
    <contour>
      <point x="413" y="394" type="curve" smooth="yes"/>
      <point x="448" y="394"/>
      <point x="466" y="421"/>
      <point x="466" y="447" type="curve" smooth="yes"/>
      <point x="466" y="473"/>
      <point x="449" y="500"/>
      <point x="413" y="500" type="curve" smooth="yes"/>
      <point x="383" y="500"/>
      <point x="371" y="481"/>
      <point x="370" y="481" type="curve" smooth="yes"/>
      <point x="368" y="481"/>
      <point x="356" y="585"/>
      <point x="438" y="665" type="curve" smooth="yes"/>
      <point x="450" y="677"/>
      <point x="450" y="679"/>
      <point x="450" y="682" type="curve" smooth="yes"/>
      <point x="450" y="689"/>
      <point x="445" y="693"/>
      <point x="440" y="693" type="curve" smooth="yes"/>
      <point x="429" y="693"/>
      <point x="346" y="617"/>
      <point x="346" y="499" type="curve" smooth="yes"/>
      <point x="346" y="439"/>
      <point x="370" y="394"/>
    </contour>
  </outline>
</glyph>
<glyph name="quotedblright" format="2">
	<unicode hex="201D"/>
	<advance width="1000"/>
	<outline>
		<contour>
			<point x="118" y="790" type="curve" smooth="yes"/>
			<point x="140" y="790"/>
			<point x="306" y="942"/>
			<point x="306" y="1178" type="curve" smooth="yes"/>
			<point x="306" y="1298"/>
			<point x="258" y="1388"/>
			<point x="172" y="1388" type="curve" smooth="yes"/>
			<point x="102" y="1388"/>
			<point x="66" y="1334"/>
			<point x="66" y="1282" type="curve" smooth="yes"/>
			<point x="66" y="1230"/>
			<point x="100" y="1176"/>
			<point x="172" y="1176" type="curve" smooth="yes"/>
			<point x="232" y="1176"/>
			<point x="256" y="1214"/>
			<point x="258" y="1214" type="curve" smooth="yes"/>
			<point x="262" y="1214"/>
			<point x="286" y="1006"/>
			<point x="122" y="846" type="curve" smooth="yes"/>
			<point x="98" y="822"/>
			<point x="98" y="818"/>
			<point x="98" y="812" type="curve" smooth="yes"/>
			<point x="98" y="798"/>
			<point x="108" y="790"/>
		</contour>
		<contour>
			<point x="506" y="790" type="curve" smooth="yes"/>
			<point x="528" y="790"/>
			<point x="694" y="942"/>
			<point x="694" y="1178" type="curve" smooth="yes"/>
			<point x="694" y="1298"/>
			<point x="646" y="1388"/>
			<point x="560" y="1388" type="curve" smooth="yes"/>
			<point x="490" y="1388"/>
			<point x="454" y="1334"/>
			<point x="454" y="1282" type="curve" smooth="yes"/>
			<point x="454" y="1230"/>
			<point x="488" y="1176"/>
			<point x="560" y="1176" type="curve" smooth="yes"/>
			<point x="620" y="1176"/>
			<point x="644" y="1214"/>
			<point x="646" y="1214" type="curve" smooth="yes"/>
			<point x="650" y="1214"/>
			<point x="674" y="1006"/>
			<point x="510" y="846" type="curve" smooth="yes"/>
			<point x="486" y="822"/>
			<point x="486" y="818"/>
			<point x="486" y="812" type="curve" smooth="yes"/>
			<point x="486" y="798"/>
			<point x="496" y="790"/>
		</contour>
	</outline>
</glyph>
<glyph name="a.alt" format="2">
	<advance width="500"/>
	<outline>
		<contour>
			<point x="42" y="95" type="curve" smooth="yes"/>
			<point x="42" y="14"/>
			<point x="139" y="-11"/>
			<point x="202" y="-11" type="curve" smooth="yes"/>
			<point x="268" y="-11"/>
			<point x="314" y="29"/>
			<point x="333" y="76" type="curve"/>
			<point x="333" y="27"/>
			<point x="354" y="0"/>
			<point x="411" y="0" type="curve" smooth="yes"/>
			<point x="423.987" y="0"/>
			<point x="436.974" y="0"/>
			<point x="450" y="0" type="curve" smooth="yes"/>
			<point x="470" y="0"/>
			<point x="477" y="2"/>
			<point x="477" y="16" type="curve" smooth="yes"/>
			<point x="477" y="27"/>
			<point x="469" y="29"/>
			<point x="456" y="29" type="curve" smooth="yes"/>
			<point x="395" y="30"/>
			<point x="395" y="44"/>
			<point x="395" y="68" type="curve" smooth="yes"/>
			<point x="395" y="275" type="line" smooth="yes"/>
			<point x="395" y="317"/>
			<point x="395" y="356"/>
			<point x="359" y="393" type="curve" smooth="yes"/>
			<point x="320" y="432"/>
			<point x="270" y="448"/>
			<point x="222" y="448" type="curve" smooth="yes"/>
			<point x="140" y="448"/>
			<point x="71" y="401"/>
			<point x="71" y="335" type="curve" smooth="yes"/>
			<point x="71" y="305"/>
			<point x="91" y="288"/>
			<point x="117" y="288" type="curve" smooth="yes"/>
			<point x="145" y="288"/>
			<point x="163" y="308"/>
			<point x="163" y="334" type="curve" smooth="yes"/>
			<point x="163" y="346"/>
			<point x="158" y="379"/>
			<point x="112" y="380" type="curve"/>
			<point x="139" y="415"/>
			<point x="188" y="426"/>
			<point x="220" y="426" type="curve" smooth="yes"/>
			<point x="269" y="426"/>
			<point x="326" y="387"/>
			<point x="326" y="298" type="curve" smooth="yes"/>
			<point x="326" y="261" type="line"/>
			<point x="275" y="258"/>
			<point x="205" y="255"/>
			<point x="142" y="225" type="curve" smooth="yes"/>
			<point x="67" y="191"/>
			<point x="42" y="139"/>
		</contour>
		<contour>
			<point x="326" y="140" type="line" smooth="yes"/>
			<point x="326" y="94.53015"/>
			<point x="309.5057592632" y="63.0345872909"/>
			<point x="287.3724056499" y="42.5528224563" type="curve" smooth="yes"/>
			<point x="263.2626202763" y="20.2421070146"/>
			<point x="232.46165" y="11"/>
			<point x="209" y="11" type="curve" smooth="yes"/>
			<point x="160" y="11"/>
			<point x="119" y="46"/>
			<point x="119" y="96" type="curve" smooth="yes"/>
			<point x="119" y="151"/>
			<point x="161" y="234"/>
			<point x="326" y="240" type="curve"/>
		</contour>
	</outline>
</glyph>
<glyph name="ff" format="2">
	<advance width="1166"/>
	<outline>
		<contour>
			<point x="896" y="800" type="line"/>
			<point x="1126" y="800" type="line"/>
			<point x="1126" y="862" type="line"/>
			<point x="890" y="862" type="line"/>
			<point x="890" y="1094" type="line" smooth="yes"/>
			<point x="890" y="1272"/>
			<point x="986" y="1366"/>
			<point x="1076" y="1366" type="curve" smooth="yes"/>
			<point x="1082" y="1366"/>
			<point x="1112" y="1366"/>
			<point x="1142" y="1352" type="curve"/>
			<point x="1118" y="1344"/>
			<point x="1082" y="1318"/>
			<point x="1082" y="1268" type="curve" smooth="yes"/>
			<point x="1082" y="1222"/>
			<point x="1114" y="1182"/>
			<point x="1168" y="1182" type="curve" smooth="yes"/>
			<point x="1226" y="1182"/>
			<point x="1256" y="1222"/>
			<point x="1256" y="1270" type="curve" smooth="yes"/>
			<point x="1256" y="1342"/>
			<point x="1186" y="1410"/>
			<point x="1074" y="1410" type="curve" smooth="yes"/>
			<point x="956" y="1410"/>
			<point x="868" y="1334"/>
			<point x="858" y="1326" type="curve"/>
			<point x="800" y="1400"/>
			<point x="688" y="1410"/>
			<point x="634" y="1410" type="curve" smooth="yes"/>
			<point x="444" y="1410"/>
			<point x="212" y="1306"/>
			<point x="212" y="1090" type="curve" smooth="yes"/>
			<point x="212" y="862" type="line"/>
			<point x="54" y="862" type="line"/>
			<point x="54" y="800" type="line"/>
			<point x="212" y="800" type="line"/>
			<point x="212" y="152" type="line" smooth="yes"/>
			<point x="212" y="62"/>
			<point x="190" y="62"/>
			<point x="56" y="62" type="curve"/>
			<point x="56" y="0" type="line"/>
			<point x="122" y="2"/>
			<point x="228" y="6"/>
			<point x="278" y="6" type="curve" smooth="yes"/>
			<point x="328" y="6"/>
			<point x="426" y="2"/>
			<point x="500" y="0" type="curve"/>
			<point x="500" y="62" type="line"/>
			<point x="366" y="62"/>
			<point x="344" y="62"/>
			<point x="344" y="152" type="curve" smooth="yes"/>
			<point x="344" y="800" type="line"/>
			<point x="764" y="800" type="line"/>
			<point x="764" y="152" type="line" smooth="yes"/>
			<point x="764" y="62"/>
			<point x="742" y="62"/>
			<point x="608" y="62" type="curve"/>
			<point x="608" y="0" type="line"/>
			<point x="686" y="2"/>
			<point x="780" y="6"/>
			<point x="836" y="6" type="curve" smooth="yes"/>
			<point x="916" y="6"/>
			<point x="1010" y="6"/>
			<point x="1090" y="0" type="curve"/>
			<point x="1090" y="62" type="line"/>
			<point x="1048" y="62" type="line" smooth="yes"/>
			<point x="900" y="62"/>
			<point x="896" y="84"/>
			<point x="896" y="156" type="curve" smooth="yes"/>
		</contour>
		<contour>
			<point x="338" y="862" type="line"/>
			<point x="338" y="1088" type="line" smooth="yes"/>
			<point x="338" y="1282"/>
			<point x="502" y="1366"/>
			<point x="632" y="1366" type="curve" smooth="yes"/>
			<point x="730" y="1366"/>
			<point x="782" y="1332"/>
			<point x="788" y="1326" type="curve"/>
			<point x="754" y="1322"/>
			<point x="714" y="1296"/>
			<point x="714" y="1240" type="curve" smooth="yes"/>
			<point x="714" y="1228"/>
			<point x="716" y="1178"/>
			<point x="770" y="1160" type="curve"/>
			<point x="764" y="1134"/>
			<point x="764" y="1116"/>
			<point x="764" y="1092" type="curve" smooth="yes"/>
			<point x="764" y="862" type="line"/>
		</contour>
	</outline>
</glyph>
<glyph name="ffi" format="2">
	<advance width="1666"/>
	<outline>
		<contour>
			<point x="634" y="1410" type="curve" smooth="yes"/>
			<point x="446" y="1410"/>
			<point x="212" y="1308"/>
			<point x="212" y="1090" type="curve" smooth="yes"/>
			<point x="212" y="1014"/>
			<point x="212" y="938"/>
			<point x="212" y="862" type="curve"/>
			<point x="159" y="862"/>
			<point x="107" y="862"/>
			<point x="54" y="862" type="curve"/>
			<point x="54" y="841"/>
			<point x="54" y="821"/>
			<point x="54" y="800" type="curve"/>
			<point x="107" y="800"/>
			<point x="159" y="800"/>
			<point x="212" y="800" type="curve"/>
			<point x="212" y="584"/>
			<point x="212" y="368"/>
			<point x="212" y="152" type="curve" smooth="yes"/>
			<point x="212" y="62"/>
			<point x="190" y="62"/>
			<point x="56" y="62" type="curve"/>
			<point x="56" y="41"/>
			<point x="56" y="21"/>
			<point x="56" y="0" type="curve"/>
			<point x="122" y="2"/>
			<point x="228" y="6"/>
			<point x="278" y="6" type="curve" smooth="yes"/>
			<point x="328" y="6"/>
			<point x="426" y="2"/>
			<point x="500" y="0" type="curve"/>
			<point x="500" y="21"/>
			<point x="500" y="41"/>
			<point x="500" y="62" type="curve"/>
			<point x="366" y="62"/>
			<point x="344" y="62"/>
			<point x="344" y="152" type="curve" smooth="yes"/>
			<point x="344" y="368"/>
			<point x="344" y="584"/>
			<point x="344" y="800" type="curve"/>
			<point x="485" y="800"/>
			<point x="625" y="800"/>
			<point x="766" y="800" type="curve"/>
			<point x="766" y="584"/>
			<point x="766" y="368"/>
			<point x="766" y="152" type="curve" smooth="yes"/>
			<point x="766" y="62"/>
			<point x="744" y="62"/>
			<point x="610" y="62" type="curve"/>
			<point x="610" y="41"/>
			<point x="610" y="21"/>
			<point x="610" y="0" type="curve"/>
			<point x="676" y="2"/>
			<point x="782" y="6"/>
			<point x="832" y="6" type="curve" smooth="yes"/>
			<point x="882" y="6"/>
			<point x="980" y="2"/>
			<point x="1054" y="0" type="curve"/>
			<point x="1054" y="21"/>
			<point x="1054" y="41"/>
			<point x="1054" y="62" type="curve"/>
			<point x="920" y="62"/>
			<point x="898" y="62"/>
			<point x="898" y="152" type="curve" smooth="yes"/>
			<point x="898" y="368"/>
			<point x="898" y="584"/>
			<point x="898" y="800" type="curve"/>
			<point x="1003" y="800"/>
			<point x="1108" y="800"/>
			<point x="1214" y="800" type="curve" smooth="yes"/>
			<point x="1306" y="800"/>
			<point x="1320" y="774"/>
			<point x="1320" y="692" type="curve" smooth="yes"/>
			<point x="1320" y="512"/>
			<point x="1320" y="332"/>
			<point x="1320" y="152" type="curve" smooth="yes"/>
			<point x="1320" y="62"/>
			<point x="1298" y="62"/>
			<point x="1164" y="62" type="curve"/>
			<point x="1164" y="41"/>
			<point x="1164" y="21"/>
			<point x="1164" y="0" type="curve"/>
			<point x="1230" y="2"/>
			<point x="1336" y="6"/>
			<point x="1386" y="6" type="curve" smooth="yes"/>
			<point x="1436" y="6"/>
			<point x="1534" y="2"/>
			<point x="1608" y="0" type="curve"/>
			<point x="1608" y="21"/>
			<point x="1608" y="41"/>
			<point x="1608" y="62" type="curve"/>
			<point x="1474" y="62"/>
			<point x="1452" y="62"/>
			<point x="1452" y="152" type="curve" smooth="yes"/>
			<point x="1452" y="396"/>
			<point x="1452" y="641"/>
			<point x="1452" y="886" type="curve"/>
			<point x="1356" y="878"/>
			<point x="1260" y="870"/>
			<point x="1164" y="862" type="curve"/>
			<point x="892" y="862" type="line"/>
			<point x="892" y="937"/>
			<point x="892" y="1013"/>
			<point x="892" y="1088" type="curve" smooth="yes"/>
			<point x="892" y="1286"/>
			<point x="1064" y="1366"/>
			<point x="1188" y="1366" type="curve" smooth="yes"/>
			<point x="1248" y="1366"/>
			<point x="1320" y="1346"/>
			<point x="1360" y="1300" type="curve"/>
			<point x="1278" y="1296"/>
			<point x="1266" y="1240"/>
			<point x="1266" y="1208" type="curve" smooth="yes"/>
			<point x="1266" y="1142"/>
			<point x="1318" y="1116"/>
			<point x="1356" y="1116" type="curve" smooth="yes"/>
			<point x="1402" y="1116"/>
			<point x="1448" y="1148"/>
			<point x="1448" y="1208" type="curve" smooth="yes"/>
			<point x="1448" y="1326"/>
			<point x="1338" y="1410"/>
			<point x="1190" y="1410" type="curve" smooth="yes"/>
			<point x="1014" y="1410"/>
			<point x="900" y="1330"/>
			<point x="864" y="1300" type="curve"/>
			<point x="818" y="1370"/>
			<point x="734" y="1410"/>
		</contour>
		<contour>
			<point x="338" y="862" type="line"/>
			<point x="338" y="937"/>
			<point x="338" y="1013"/>
			<point x="338" y="1088" type="curve" smooth="yes"/>
			<point x="338" y="1288"/>
			<point x="512" y="1366"/>
			<point x="630" y="1366" type="curve" smooth="yes"/>
			<point x="678" y="1366"/>
			<point x="748" y="1356"/>
			<point x="802" y="1300" type="curve"/>
			<point x="724" y="1296"/>
			<point x="706" y="1248"/>
			<point x="706" y="1208" type="curve" smooth="yes"/>
			<point x="706" y="1164"/>
			<point x="730" y="1132"/>
			<point x="766" y="1122" type="curve" smooth="yes"/>
			<point x="766" y="1122"/>
			<point x="766" y="1122"/>
			<point x="766" y="1122" type="curve"/>
			<point x="766" y="862" type="line"/>
		</contour>
	</outline>
</glyph>
<glyph name="ffl" format="2">
	<advance width="833"/>
	<outline>
		<contour>
			<point x="318" y="705" type="curve" smooth="yes"/>
			<point x="220" y="705"/>
			<point x="106" y="652"/>
			<point x="106" y="545" type="curve" smooth="yes"/>
			<point x="106" y="431" type="line"/>
			<point x="27" y="431" type="line"/>
			<point x="27" y="400" type="line"/>
			<point x="106" y="400" type="line"/>
			<point x="106" y="76" type="line" smooth="yes"/>
			<point x="106" y="31"/>
			<point x="95" y="31"/>
			<point x="28" y="31" type="curve"/>
			<point x="28" y="0" type="line"/>
			<point x="61" y="1"/>
			<point x="114" y="3"/>
			<point x="139" y="3" type="curve" smooth="yes"/>
			<point x="164" y="3"/>
			<point x="213" y="1"/>
			<point x="250" y="0" type="curve"/>
			<point x="250" y="31" type="line"/>
			<point x="183" y="31"/>
			<point x="172" y="31"/>
			<point x="172" y="76" type="curve" smooth="yes"/>
			<point x="172" y="400" type="line"/>
			<point x="383" y="400" type="line"/>
			<point x="383" y="76" type="line" smooth="yes"/>
			<point x="383" y="31"/>
			<point x="372" y="31"/>
			<point x="305" y="31" type="curve"/>
			<point x="305" y="0" type="line"/>
			<point x="338" y="1"/>
			<point x="391" y="3"/>
			<point x="416" y="3" type="curve" smooth="yes"/>
			<point x="441" y="3"/>
			<point x="490" y="1"/>
			<point x="527" y="0" type="curve"/>
			<point x="527" y="31" type="line"/>
			<point x="460" y="31"/>
			<point x="449" y="31"/>
			<point x="449" y="76" type="curve" smooth="yes"/>
			<point x="449" y="400" type="line"/>
			<point x="660" y="400" type="line"/>
			<point x="660" y="76" type="line" smooth="yes"/>
			<point x="660" y="31"/>
			<point x="649" y="31"/>
			<point x="582" y="31" type="curve"/>
			<point x="582" y="0" type="line"/>
			<point x="615" y="1"/>
			<point x="668" y="3"/>
			<point x="693" y="3" type="curve" smooth="yes"/>
			<point x="718" y="3"/>
			<point x="767" y="1"/>
			<point x="804" y="0" type="curve"/>
			<point x="804" y="31" type="line"/>
			<point x="737" y="31"/>
			<point x="726" y="31"/>
			<point x="726" y="76" type="curve" smooth="yes"/>
			<point x="726" y="694" type="line"/>
			<point x="714.012" y="692.002"/>
			<point x="702.024" y="690.004"/>
			<point x="690" y="688" type="curve"/>
			<point x="686" y="688"/>
			<point x="685" y="689"/>
			<point x="681" y="691" type="curve"/>
			<point x="649" y="705"/>
			<point x="608" y="705"/>
			<point x="597" y="705" type="curve" smooth="yes"/>
			<point x="527" y="705"/>
			<point x="473" y="683"/>
			<point x="436" y="653" type="curve"/>
			<point x="415" y="694"/>
			<point x="359" y="705"/>
		</contour>
		<contour>
			<point x="169" y="431" type="line"/>
			<point x="169" y="544" type="line" smooth="yes"/>
			<point x="169" y="641"/>
			<point x="250" y="683"/>
			<point x="317" y="683" type="curve" smooth="yes"/>
			<point x="334" y="683"/>
			<point x="368" y="680"/>
			<point x="394" y="664" type="curve"/>
			<point x="384" y="662"/>
			<point x="358" y="653"/>
			<point x="358" y="620" type="curve" smooth="yes"/>
			<point x="358" y="605"/>
			<point x="364" y="588"/>
			<point x="386" y="580" type="curve"/>
			<point x="383" y="569"/>
			<point x="383" y="556"/>
			<point x="383" y="545" type="curve" smooth="yes"/>
			<point x="383" y="431" type="line"/>
		</contour>
		<contour>
			<point x="446" y="431" type="line"/>
			<point x="446" y="544" type="line" smooth="yes"/>
			<point x="446" y="637"/>
			<point x="522" y="683"/>
			<point x="596" y="683" type="curve" smooth="yes"/>
			<point x="605" y="683"/>
			<point x="632" y="683"/>
			<point x="660" y="674" type="curve"/>
			<point x="651" y="670"/>
			<point x="635" y="660"/>
			<point x="635" y="634" type="curve" smooth="yes"/>
			<point x="635" y="616"/>
			<point x="643" y="601"/>
			<point x="660" y="595" type="curve"/>
			<point x="660" y="595"/>
			<point x="660" y="595"/>
			<point x="660" y="595" type="curve"/>
			<point x="660" y="431" type="line"/>
		</contour>
	</outline>
</glyph>
<glyph name="fl" format="2">
  <advance width="555"/>
  <outline>
    <contour>
      <point x="320" y="705" type="curve" smooth="yes"/>
      <point x="215" y="705"/>
      <point x="106" y="649"/>
      <point x="106" y="545" type="curve" smooth="yes"/>
      <point x="106" y="431" type="line"/>
      <point x="27" y="431" type="line"/>
      <point x="27" y="400" type="line"/>
      <point x="106" y="400" type="line"/>
      <point x="106" y="76" type="line" smooth="yes"/>
      <point x="106" y="31"/>
      <point x="95" y="31"/>
      <point x="28" y="31" type="curve"/>
      <point x="28" y="0" type="line"/>
      <point x="61" y="1"/>
      <point x="114" y="3"/>
      <point x="139" y="3" type="curve" smooth="yes"/>
      <point x="164" y="3"/>
      <point x="213" y="1"/>
      <point x="250" y="0" type="curve"/>
      <point x="250" y="31" type="line"/>
      <point x="183" y="31"/>
      <point x="172" y="31"/>
      <point x="172" y="76" type="curve" smooth="yes"/>
      <point x="172" y="400" type="line"/>
      <point x="383" y="400" type="line"/>
      <point x="383" y="76" type="line" smooth="yes"/>
      <point x="383" y="31"/>
      <point x="372" y="31"/>
      <point x="305" y="31" type="curve"/>
      <point x="305" y="0" type="line"/>
      <point x="338" y="1"/>
      <point x="391" y="3"/>
      <point x="416" y="3" type="curve" smooth="yes"/>
      <point x="441" y="3"/>
      <point x="490" y="1"/>
      <point x="527" y="0" type="curve"/>
      <point x="527" y="31" type="line"/>
      <point x="460" y="31"/>
      <point x="449" y="31"/>
      <point x="449" y="76" type="curve" smooth="yes"/>
      <point x="449" y="694" type="line"/>
      <point x="437.012" y="692.002"/>
      <point x="425.024" y="690.004"/>
      <point x="413" y="688" type="curve"/>
      <point x="409" y="688"/>
      <point x="408" y="689"/>
      <point x="404" y="691" type="curve"/>
      <point x="372" y="705"/>
      <point x="331" y="705"/>
    </contour>
    <contour>
      <point x="169" y="431" type="line"/>
      <point x="169" y="544" type="line" smooth="yes"/>
      <point x="169" y="637"/>
      <point x="245" y="683"/>
      <point x="319" y="683" type="curve" smooth="yes"/>
      <point x="328" y="683"/>
      <point x="355" y="683"/>
      <point x="383" y="674" type="curve"/>
      <point x="374" y="670"/>
      <point x="358" y="660"/>
      <point x="358" y="634" type="curve" smooth="yes"/>
      <point x="358" y="616"/>
      <point x="366" y="601"/>
      <point x="383" y="595" type="curve"/>
      <point x="383.0" y="595.0"/>
      <point x="383.0" y="595.0"/>
      <point x="383" y="595" type="curve"/>
      <point x="383" y="431" type="line"/>
    </contour>
  </outline>
</glyph>
<glyph name="sfthyphen" format="2">
  <advance width="166"/>
  <outline>
    <contour>
      <point x="276" y="187" type="line"/>
      <point x="276" y="245" type="line"/>
      <point x="11" y="245" type="line"/>
      <point x="11" y="187" type="line"/>
    </contour>
  </outline>
</glyph>
